<svg xmlns="http://www.w3.org/2000/svg" width="585.793" height="569.618" version="1"><path d="M541.855 265.435c-3.5 7-9.777 16.78-15.57 22.573H61.8c-3.38-4.587-11.467-15.09-14.968-22.573h495.02m-34.642 46.23c-5.794 8.09-14.485 15.693-23.78 20.884h-380.47c-7.603-5.192-15.087-12.796-22.088-20.884h426.338m-52.628 42.85c-41.16 30.66-86.185 46.232-120.345 48.526 0-12.675 0-30.056 3.5-48.525h116.844m130.605-240.57c3.5 37.54-8.692 83.29-31.747 129.52H382.28c6.277-10.985 14.485-21.365 23.66-31.867 49.73-58.302 126.138-94.272 179.25-97.652M253.243 403.042c-32.953-2.294-78.098-17.865-119.62-48.525h117.93c2.294 18.47 2.294 35.85 1.69 48.525m41.04 3.5c-13.277-12.674-24.865-30.056-36.936-52.025h73.39c-11.588 21.97-24.262 39.35-36.454 52.025m-87.27-163.075H35.246C12.07 197.237.604 151.487 3.983 113.947c52.63 3.38 129.64 39.35 179.37 97.653 8.572 10.502 17.263 20.882 23.66 31.867m161.386 0H220.29c-2.293-13.278-2.293-26.073-2.293-41.04 0-80.995 35.85-164.887 76.287-202.427 39.955 37.54 76.408 121.432 76.408 202.426 0 14.968-1.207 27.763-2.293 41.04"/><path d="M572.515 435.995c7 0 12.674 5.794 12.674 13.398 0 6.88-5.674 12.675-12.675 12.675-7 0-12.674-5.794-12.674-12.675 0-7.604 5.674-13.398 12.675-13.398zm0 1.81c-6.398 0-10.984 5.19-10.984 11.588 0 5.794 4.587 10.985 10.985 10.985 5.794 0 10.984-5.19 10.984-10.985 0-6.397-5.19-11.588-10.985-11.588zm2.897 11.588c.603 0 2.293.483 2.293 2.897v3.984h-2.293v-1.69c0-2.897-.604-4.104-2.294-4.104h-2.897v5.794h-2.292V441.79h4.587c2.897 0 5.19 1.81 5.19 4.103 0 1.69-1.207 3.5-2.293 3.5zm-5.19-5.19v3.983h2.293c1.086 0 2.897-.603 2.897-1.69 0-1.207-1.207-2.293-2.294-2.293h-2.897" class="ps01" fill-rule="evenodd"/><path d="M541.252 569.618c24.262 0 44.54-9.777 44.54-34.04 0-13.88-9.777-23.175-25.47-27.28-16.173-3.983-36.935-3.38-36.935-13.88 1.086-6.88 7.484-8.692 17.26-8.692 15.09 0 15.693 8.088 16.297 13.4h24.865c-1.81-19.073-17.383-32.47-42.248-32.47-26.073 0-41.04 13.88-41.04 31.865 0 10.382 5.19 19.677 13.88 24.263 6.277 2.897 14.968 5.19 25.47 7 10.863 1.088 20.76 2.295 21.365 9.78 0 5.19-5.19 11.587-16.778 11.587-16.78 0-20.28-9.295-20.28-15.572h-25.952c.483 20.158 17.26 34.04 45.024 34.04" class="ps00"/><path d="M432.494 569.618c11.105 0 20.883-3.5 28.97-8.69v6.396h24.866v-99.462h-24.866v7.483c-8.087-5.794-17.865-8.69-28.97-8.69-28.245 0-52.025 22.572-52.025 51.542 0 28.366 23.78 51.42 52.024 51.42zm-27.642-51.42c0-15.693 13.278-28.97 28.85-28.97 15.088 0 27.762 13.277 27.762 28.97 0 14.966-12.674 28.365-27.763 28.365-15.57 0-28.848-13.4-28.848-28.366M348.12 433.7v41.645c-8.69-5.794-18.468-8.69-29.453-8.69-28.366 0-51.542 22.572-51.542 51.542 0 28.366 23.176 51.42 51.542 51.42 10.985 0 21.366-3.5 29.453-8.69v6.397h24.262V433.7H348.12zm-57.215 84.497c0-15.692 13.277-28.97 28.245-28.97 15.692 0 28.97 13.278 28.97 28.97 0 14.967-13.278 28.366-28.97 28.366-14.968 0-28.245-13.4-28.245-28.366M232.482 567.324h24.262v-99.462h-24.262v99.462zm0-108.757h24.262V433.7h-24.262v24.867M165.973 569.618c10.984 0 20.76-3.5 29.452-8.69v6.396h24.866V433.7h-24.865v41.645c-8.69-5.794-18.468-8.69-29.452-8.69-28.367 0-52.025 22.572-52.025 51.542 0 28.366 23.658 51.42 52.025 51.42zm-28.367-51.42c0-15.693 13.278-28.97 29.453-28.97 15.087 0 28.365 13.277 28.365 28.97 0 14.966-13.278 28.365-28.366 28.365-16.176 0-29.454-13.4-29.454-28.366M51.42 569.618c11.59 0 21.367-3.5 30.057-8.69v6.396h24.263v-99.462H81.477v7.483c-8.69-5.794-19.07-8.69-30.056-8.69-28.365 0-51.42 22.572-51.42 51.542 0 28.366 23.055 51.42 51.42 51.42zm-27.76-51.42c0-15.693 13.276-28.97 28.365-28.97 16.175 0 29.452 13.277 29.452 28.97 0 14.966-13.277 28.365-29.452 28.365-15.09 0-28.366-13.4-28.366-28.366" class="ps01" fill-rule="evenodd"/></svg>