<svg xmlns="http://www.w3.org/2000/svg" viewBox="0 0 296 104.9"><path d="M282.4 67.1c-1.6-16.5-18.8-20.7-27.3-22.4-10.1-2.1-17.8-4.1-17.8-11.3 0-5.1 4.6-8.8 13.3-8.1 8 .6 11.4 5.5 12.3 10.2.1.8.5 1.3 1.4 1.3l14.4.1c1.1 0 1.4-.6 1.3-1.3-2.8-17.2-17.2-22.1-30.4-22.1s-29.1 3.7-30.3 20.2c0 .6-.1 1.3-.1 1.9-2.1-4.4-5.1-8.4-9-11.9-7.2-6.5-16.2-10-26-10.1h-.3c-4.7 0-9.3.9-13.6 2.6-4.4 1.7-8.4 4.2-12 7.5-3.7 3.4-6.6 7.1-8.7 11.2-3.4-16.7-17.6-21.4-30.6-21.4-12.1 0-26.5 3.1-29.7 16.4V16.7c0-.7-.6-1.3-1.3-1.3H74.5c-.7 0-1.3.6-1.3 1.3V20.3c0 .6-.4.8-.9.5-4.8-3.5-11.9-7.2-20.5-7.2-4.8 0-9.4.8-13.7 2.5-4.3 1.7-8.3 4.2-12 7.6-4.2 3.8-7.4 8.2-9.6 13-2.1 4.8-3.2 10.2-3.2 15.9 0 5.4.9 10.4 2.8 15s4.7 8.8 8.5 12.6c3.7 3.8 7.9 6.6 12.4 8.5 4.5 1.9 9.5 2.8 14.8 2.8 9.1 0 15.9-3.9 20.4-7.4.5-.4.9-.2.9.4v3.7c0 .7.6 1.3 1.3 1.3H88c.7 0 1.3-.6 1.3-1.3V75.6c6.4 15 22.6 15.8 30.6 15.8 13.3 0 28.6-4.3 31.7-17.4 1.4 2.1 3.1 4.1 5 6.1 7.3 7.3 16.8 11.2 27.5 11.3h.4c5.1 0 10-1 14.6-2.9s8.8-4.8 12.4-8.4c2.7-2.7 5-5.7 6.7-8.9 4.8 19.3 23.4 20.3 32.1 20.3 15.4-.1 33.5-5.8 32.1-24.4zm-230.7 10c-11.2 0-21.5-8.8-21.5-24.6 0-12.4 7.7-24.4 21.5-24.4 6 0 21.2 2.1 21.2 24.4.1 22.4-15.8 24.6-21.2 24.6zm69.1 1.8c-6.9 0-14.6-2.5-16.4-12-.2-.9-.6-1.3-1.3-1.3l-13.9-.2V40.9c1.8 7.2 7.9 12.2 20.9 15.1 8.7 2.1 23.9 3.4 23.9 12.4.2 6.2-4.4 10.7-13.2 10.5zm24.5-26.4v1c-6.2-5.6-15.1-7.7-20.6-8.8-10.1-2.1-17.8-4.1-17.8-11.3 0-5.1 4.6-8.8 13.3-8.1 8 .6 11.4 5.5 12.3 10.2.1.8.5 1.3 1.4 1.3l14.4.1h.2c-2.2 4.7-3.2 9.9-3.2 15.6zm54.1 18.1c-4 4.3-9.2 6.5-15.4 6.5-6.2 0-11.4-2.2-15.4-6.5-3.9-4.1-6.1-10.7-6.1-18.1 0-7.2 2.2-13.7 6.1-17.8 4.1-4.3 9.2-6.5 15.3-6.6 6.1 0 11.3 2.2 15.3 6.6 3.9 4.2 6.1 10.7 6.1 17.8.2 7.4-2 14-5.9 18.1zm35.5-3.7c-.1-.9-.6-1.3-1.3-1.3l-12.9-.2c1.4-4 2-8.3 2-12.9 0-2.1-.1-4.1-.4-6 3.2 4.3 8.9 7.4 18.3 9.5 8.7 2.1 23.9 3.4 23.9 12.4 0 6.3-4.6 10.7-13.3 10.5-6.9 0-14.6-2.5-16.3-12z"/></svg>