<svg xmlns="http://www.w3.org/2000/svg" xmlns:xlink="http://www.w3.org/1999/xlink" width="300" height="46.3" viewBox="0 0 300 46.299569"><defs><linearGradient id="a" gradientTransform="scale(21.77) rotate(-120 23.873 -11.157)" gradientUnits="userSpaceOnUse" x2="1"><stop offset="0" stop-color="#e4e6f5"/><stop offset=".295" stop-color="#4d72bf"/><stop offset=".4" stop-color="#4d72bf"/><stop offset=".9" stop-color="#1e5aaf"/><stop offset="1" stop-color="#1e5aaf"/></linearGradient><clipPath id="c"><path d="M1178.067 90.756H912.664V69.154h265.403v21.602z"/></clipPath><linearGradient xlink:href="#a" id="b" gradientUnits="userSpaceOnUse" gradientTransform="scale(21.77) rotate(-120 23.873 -11.157)" x2="1"/></defs><path d="M993.093 82.8c-2.44-2.424-7.723-4.505-10.323-5.48-3.552-1.334-5.128-1.806-7.116-2.453-2.25-.73-6.75-2.092-6.75-2.092 9.323-2.782 15.89-3.62 15.89-3.62s3.06.944 7.91 3.536c2.624 1.336 3.916 2.234 4.84 3.093.34.307 1.22 1.223 1.44 2.396.014.084.056.308.056.528 0 0 0 .156-.014.29-.004.157-.033.26-.033.26s-.05.278-.12.473c-.07.197-.37.798-.857 1.19-.326.263-.886.92-2.92 1.635-.69.24-1.81.462-1.81.462l-.193-.217" fill="url(#b)" transform="matrix(1.42 0 0 -1.42 -1117.59 128.78)"/><g clip-path="url(#c)" transform="matrix(1.42 0 0 -1.42 -1117.59 128.78)"><path d="M999.04 78.772s-.014.26-.077.48c-.05.195-.137.382-.268.58-.16.233-.373.507-.69.81-.24.226-.503.426-.817.638-1.272.833-2.913 1.302-4.366 1.5-2.25.3-4.832.248-5.077.256-.83.012-6.195-.032-7.575-.057-6.125-.128-13.623-.144-15.588-.144-20.275-.093-29.102.344-38.925 2.313-8.357 1.66-12.993 3.236-12.993 3.236 7.37.255 50.378 2.04 58.224 2.248 5.138.145 8.784.176 11.702.007 1.497-.082 2.89-.21 4.637-.507 1.57-.268 2.993-.723 3.823-1.03 1.748-.648 3.22-1.584 3.947-2.543 0 0 .216-.22.507-.612.328-.455.708-1.016.837-1.225 1.064-1.61 1.57-2.623 1.745-2.976.19-.37.357-.755.52-1.132.16-.374.225-.6.277-.76.11-.395.14-.757.144-.837l.014-.246" fill="#ed1b28"/></g><g><path d="M104.723 45.924c.444-.2.914-.898.914-1.813v-7.57c-1.09-.122-2.61-.176-4.32-.176-1.73 0-3.264.054-4.38.176v7.57c0 .916.46 1.582.908 1.814h-6.03c.446-.2.923-.898.923-1.813V27.41c0-.927-.477-1.61-.924-1.835h6.03c-.448.225-.908.908-.908 1.835v6.842c1.117.118 2.622.175 4.382.175 1.708 0 3.23-.074 4.32-.175v-6.842c0-.927-.47-1.61-.915-1.835h6.02c-.45.225-.896.908-.896 1.835V44.11c0 .916.446 1.582.896 1.814h-6.02zm-19.56-4.605c0-3.877-9.13-4.75-9.13-10.938 0-3.83 3.644-5.085 6.85-5.085 1.427 0 3.496.198 4.802.8l.227 3.804c-.802-1.68-2.814-2.897-4.682-2.897-1.476 0-3.025.73-3.025 2.42 0 4.02 9.284 5.002 9.284 10.86 0 4.256-3.716 6.017-7.468 6.017-1.962 0-4.63-.376-6.285-1.51-.1-.68-.148-1.392-.148-2.086 0-.83.074-1.665.196-2.483 1.034 2.353 3.17 4.194 5.84 4.194 2.027 0 3.537-.885 3.537-3.095zm-18.457 4.604c.5-.232 1.026-.898 1.026-1.813V27.41c0-.927-.525-1.584-1.026-1.835h6.264c-.533.25-1.042.908-1.042 1.835V44.11c0 .916.51 1.582 1.042 1.814h-6.264zm-14.012 0c.67-.308.998-1.1.998-1.813V27.91h-4.497c-1.038 0-2.272.126-3.166.656l1.398-2.99h14.915c1.21 0 2.445-.027 3.618-.277-.565 1.532-2.257 2.667-3.232 2.667-1.184-.028-3.146-.105-4.833-.105v16.25c0 .714.352 1.506 1.01 1.814h-6.21zm-13.59 0c.505-.232 1.033-.898 1.033-1.813V27.41c0-.927-.528-1.584-1.033-1.835h6.263c-.54.25-1.03.908-1.03 1.835V44.11c0 .916.49 1.582 1.03 1.814h-6.263zm-4.175.12c-.782 0-1.642.027-2.387-.193-1.386-.41-3.297-3.53-4.06-4.754-1.18-1.99-2.208-4.732-4.86-4.76v7.775c0 .68.31 1.506.966 1.814h-6.112c.64-.337.948-1.1.948-1.813V27.41c0-.707-.307-1.48-.948-1.835h7.358c3.2 0 7.206 1.23 7.206 5.074 0 3.23-2.668 4.883-5.646 4.883 4.236.023 6.724 9.962 11.4 9.99-1.253.37-2.56.523-3.867.523zm-10.262-18.72c-.364 0-.684.06-1.045.112v7.037c.334.023.636.058.966.058 2.29 0 3.983-1.263 3.983-3.753 0-2.544-1.665-3.452-3.905-3.452zm-17.715 9.04c-.58 0-1.104 0-1.813.054v7.52c.884.173 1.838.23 2.718.23 2.042 0 4.12-.91 4.12-4.03 0-3.08-2.457-3.774-5.025-3.774zm-.508-9.04c-.37 0-.624 0-1.305.084v7.123h.805c2.44 0 4.8-.753 4.8-3.58 0-2.805-1.886-3.625-4.3-3.625zM0 45.925c.655-.337.948-1.133.948-1.813V27.41c0-.707-.293-1.48-.948-1.835h7.96c3.552 0 7.014 1.454 7.014 5.484 0 2.137-1.863 3.823-3.87 4.203 2.89-.028 5.69 1.74 5.69 4.934 0 4.565-4.788 5.73-8.156 5.73H0M234.278 41.32c0-3.877-9.13-4.75-9.13-10.938 0-3.83 3.633-5.085 6.84-5.085 1.434 0 3.49.198 4.805.798l.226 3.806c-.813-1.68-2.816-2.897-4.685-2.897-1.48 0-3.016.73-3.016 2.42 0 4.02 9.283 5.002 9.283 10.86 0 4.256-3.69 6.017-7.47 6.017-1.962 0-4.636-.376-6.294-1.51-.11-.68-.16-1.392-.16-2.086 0-.832.08-1.665.204-2.483 1.033 2.353 3.176 4.193 5.845 4.193 2.036 0 3.548-.886 3.548-3.094zm-11.284-13.61l-4.82 8.454v7.947c0 .65.265 1.506.91 1.814h-5.997c.612-.337.894-1.19.894-1.813v-7.973l-4.19-6.714c-.374-.627-2.12-3.554-4.25-3.554.578-.22 2.34-.556 3.52-.556 1.972 0 2.95.18 4.158 2.07l3.876 6.146c.325-.603 3.395-5.94 3.395-5.94.37-.652.624-1.11.624-1.338 0-.292-.126-.482-.423-.68h4.322c-.85.407-1.553 1.337-2.018 2.138zm-18.39 18.214c.212-.2.372-.348.372-.71 0-.12-.06-.322-.184-.703 0 0-1.66-4.547-1.863-5.076-1.267-.155-2.574-.155-3.856-.155-1.203 0-2.44.03-3.65.154-.175.454-1.952 4.98-1.952 4.98-.26.612-.328.82-.328.953 0 .303.248.45.467.557h-4.096c.606-.308 1.127-.938 1.38-1.567l6.757-17.375c.02-.073.04-.153.04-.25 0-.48-.32-.934-.76-1.16h5.285l6.846 18.768c.284.753.887 1.303 1.387 1.584h-5.842zm-5.31-16.48l-3.084 7.926c.93.1 1.884.122 2.81.122 1.057 0 2.126 0 3.157-.122l-2.882-7.925zM191.9 27.56l-6.183 18.364c-.51 0-1.01-.176-1.294-.375-.61-.59-1.572-3.05-1.922-3.957l-2.79-7.062-4.027 11.394h-1.916l-6.922-18.41c-.3-.783-.804-1.535-1.56-1.94h6.015c-.252.196-.427.42-.427.847 0 .207.102.49.175.71l4.507 12.18 4.798-13.737 5.286 13.242 4.003-11.986c.1-.327.16-.447.16-.652 0-.25-.11-.408-.362-.605h3.983c-.735.387-1.267 1.23-1.524 1.987zm-25.39 18.483c-.778 0-1.62.028-2.384-.192-1.386-.41-3.295-3.53-4.056-4.754-1.177-1.99-2.71-4.76-5.346-4.76v7.775c0 .68.297 1.506.943 1.814h-6.106c.656-.337.96-1.1.96-1.813V27.41c0-.707-.304-1.48-.96-1.835h7.376c3.192 0 7.19 1.23 7.19 5.074 0 3.23-2.918 4.883-5.123 4.883 4.39.252 7.038 9.99 11.394 9.99-1.263.37-2.57.523-3.886.523zm-10.77-18.718c-.34 0-.664.06-1.016.11v7.038c.327.023.626.058.943.058 2.296 0 3.987-1.263 3.987-3.753 0-2.544-1.673-3.452-3.914-3.452zm-15.776 18.6c.505-.233 1.028-.9 1.028-1.814V27.41c0-.927-.523-1.584-1.028-1.835h6.258c-.53.25-1.027.908-1.027 1.835V44.11c0 .916.496 1.582 1.027 1.814h-6.258zm-12.184-16.48l-3.086 7.925c.918.1 1.872.122 2.804.122 1.066 0 2.12 0 3.158-.122l-2.876-7.925zm5.315 16.48c.197-.2.37-.35.37-.71 0-.122-.044-.323-.193-.704 0 0-1.672-4.547-1.868-5.076-1.256-.155-2.564-.155-3.844-.155-1.217 0-2.45.03-3.655.154-.17.454-1.963 4.98-1.963 4.98-.24.612-.324.82-.324.953 0 .303.26.45.48.557h-4.095c.603-.308 1.128-.938 1.385-1.567l6.734-17.375c.03-.073.042-.153.042-.25 0-.48-.32-.934-.748-1.16h5.282l6.846 18.768c.28.753.877 1.303 1.38 1.584h-5.83" fill="#1e5aaf"/></g></svg>