<svg xmlns="http://www.w3.org/2000/svg" xmlns:xlink="http://www.w3.org/1999/xlink" version="1" width="390.528" height="65.853" viewBox="0 0 595.276 841.891"><defs><path d="M-203.862 562.153v-114.52c0-6.594 4.9-11.354 11.362-11.354-6.463 0-11.702-5.35-11.702-11.94l-.03-32.203c0-2.888 2.294-5.227 5.118-5.227H79.182c11.734 0 21.246 9.703 21.246 21.67v164.29c0 5.41-4.3 10.95-9.608 10.95h-273.436c-11.74 0-21.246-12.783-21.246-21.667" id="a"/><clipPath id="b"><use height="841.891" width="595.276" overflow="visible" xlink:href="#a"/></clipPath></defs><path d="M2768.327 242.46c-26.668-48.33-84.154-84.986-146.594-84.986-54.916 0-103.22 22.49-103.22 80.808 0 49.106 60.808 82.414 124.105 123.246 69.08 43.296 140.73 96.552 140.73 189.034 0 120.756-117.41 194.843-253.16 194.843-55.8 0-114.062-10.817-179.85-35.798l10.79-160.732c31.676 64.153 90.823 114.92 178.19 114.92 67.474 0 117.41-32.452 117.41-89.11 0-48.3-40.832-78.263-90.74-108.224-104.96-63.27-171.524-114.116-171.524-205.687 0-137.437 114.893-183.223 233.963-183.223 69.08 0 112.43 12.504 156.528 12.504l-16.628 152.405m-582.04 144.023c-15.048 25.008-34.112 59.093-45.84 84.128-9.96 47.447-14.967 110.77-14.967 180.68 0 29.16 5.007 68.277 18.314 81.61h-174.012c30.765-29.13 43.295-208.123 41.662-264.78-23.32-80.754-55.023-158.214-103.3-252.33-30.737-59.092-66.59-114.946-89.08-125.736 39.118-3.294 89.08-5.81 113.26-5.81 43.268 0 54.97 5.81 81.637 64.126 41.556 94.115 72.375 164.83 90.716 217.335 44.152-69.133 74.944-116.58 114.92-181.536 9.986-15.825 18.313-35.8 18.313-54.97 0-15.022-2.518-31.65-9.158-39.146h172.38c-33.31 7.497-183.224 243.173-214.845 296.43m-605.39-145.66l-103.218 223.95h168.175l-64.957-223.95m202.367 497.888c-54.996 0-59.12-1.634-103.272-153.182l-15.797-55.8c-26.615 12.478-74.14 18.315-149.888 18.315h-76.604l-13.334 28.3c-19.145 42.52-44.956 92.403-44.956 127.452 0 8.327.83 17.457 4.177 29.13H928.92c25.838-29.13 34.165-123.22 46.642-293.965l2.49-40.778c6.668-97.436 11.728-172.38 10.845-224.806-.83-43.295-5.007-70.793-16.655-83.27h175.726c-25.008 19.17-34.192 122.39-45.812 293.135l-3.347 40.78c-4.178 63.296-12.478 128.226-12.478 191.522 0 29.105 11.647 35.772 41.662 35.772 106.54 0 133.234-2.49 181.483-34.968 29.96-54.97 64.153-124.105 97.408-195.702l45.036-95.748c42.44-89.938 84.05-181.563 84.05-199.02 0-12.532-3.32-24.152-8.275-35.826h139.874s56.602 209.864 69.106 254.793l27.445 101.612c47.447 170.72 77.462 253.963 117.437 286.44-33.362 4.178-80.807 5.812-98.292 5.812m-1133.263 6.693c-165.712 0-261.487-136.554-261.487-289.762 0-213.158 115.722-378.093 336.404-378.093 69.106 0 101.61 12.504 157.357 12.504L865.65 254.106c-31.648-57.46-83.298-96.605-152.378-96.605-137.384 0-193.184 148.255-193.184 275.652 0 138.214 77.46 213.96 180.68 213.96 55.8 0 104.905-14.993 187.373-72.426-33.307 106.62-110.768 170.72-238.138 170.72M75.458 168.345c-15.824 0-35.022 0-49.962 1.66-5.007 27.47-9.184 74.943-15.02 151.52l-3.348 45.01c8.38 1.686 19.17 2.543 29.185 2.543 79.897 0 134.894-48.357 134.894-121.588 0-50.016-34.97-79.147-95.75-79.147M307.735 760.4c-47.446 0-59.12-7.524-74.918-29.186L52.94 481.4c-14.164-19.143-24.98-34.967-47.446-34.967H1.318l-3.294 48.302C-6.18 560.522-8.67 613.028-8.67 652.147c.83 43.296 5.837 69.91 17.51 80.754h-174.038c24.955-22.49 34.085-97.434 48.276-293.964l2.517-40.78c6.667-96.578 11.674-171.548 10.817-223.974-.857-45.813-5.81-74.14-18.34-84.128H115.38c77.434 0 184.027 13.36 184.027 139.07 0 103.22-69.134 159.876-154.87 186.49 8.33 7.524 23.296 26.67 32.48 38.343l130.717 173.21c81.61 107.42 88.25 112.4 117.436 127.396-36.655 4.15-85.76 5.837-117.436 5.837m-810.97-519.575l-104.155 223.95h169.03l-64.876-223.95m202.287 497.887c-54.915 0-59.092-1.634-103.217-153.182l-15.824-55.8c-26.696 12.478-74.142 18.315-149.916 18.315h-76.604l-13.307 28.3C-673.152 606.362-705.63 668-704.8 703.798c0 8.327.83 16.654 4.177 29.13H-854.66c44.125-44.125 99.924-146.54 177.358-312.252l44.983-95.748c40.78-86.592 84.102-184.857 84.102-199.02 0-12.532-3.293-24.152-8.327-35.826h139.927s36.575 139.07 69.08 254.794l27.472 101.612c47.472 170.72 77.434 253.964 117.41 286.442-35.8 4.15-80.78 5.784-98.293 5.784m-792.734-571.197c-12.504 0-29.13 0-44.956 1.687-6.667 44.955-10.844 88.25-14.137 135.697 0 0-2.517 40.777-2.517 39.117h16.654c81.61 0 156.582-28.3 156.582-103.192 0-43.35-35.825-73.31-111.626-73.31m-20.778 254.793h-45.785l-6.667 94.92c-3.32 41.66-5.007 76.603-5.837 118.238 0 5.864 18.313 18.34 61.582 18.34 89.938 0 149.085-44.955 149.085-119.095 0-82.44-67.474-112.402-152.38-112.402m9.99 310.593h-224.833c28.328-25.007 35.825-122.415 48.302-293.964l2.49-39.95c6.694-97.434 11.674-172.378 10.844-224.804-.83-44.983-5.837-74.14-18.34-84.128h251.473c59.95 0 179.876 3.347 179.876 128.227 0 83.272-77.462 134.894-148.23 153.262 99.926 9.987 174.87 58.263 174.87 161.51-.026 111.57-104.932 199.85-276.454 199.85" fill="#00aeef"/><path transform="matrix(26.78 0 0 26.78 -2363.92 -13101.94)" clip-path="url(#b)" d="M19.74 489.332c-.83 0-1.003.145-1.273.446-.106-.007-.217-.01-.333-.01-.64 0-1.462.095-2.163.564-.676.447-.998 1.238-.637 1.817 0 0 .242-.356 1.038-.356.113 0 .237.012.37.023 1.1.13 1.913.71 1.814 2.238-.088 1.528-.66 3.232-3.005 3.252 0 0-.303 0-.625-.03-1.09-.12-1.434-.804-1.434-.804s.944-.256.952-1.453c-.008-.814-.717-1.56-1.74-1.86-.335-.098-.703-.146-1.086-.146-1.206 0-2.56.505-3.473 1.697-2.07 2.734-2.238 6.718-1.733 10.423.508 3.713 2.863 7.152 2.932 7.246.05.065.095.1.146.1.026 0 .053-.01.08-.034 1.018-.987 1.988-2.336 2.403-3.238.445.354.213 1.107-.03 1.91-.233.823-.797 1.914-1 2.266-.198.344-.462.744-.107.953.036.022.082.034.137.034.456 0 1.53-.794 2.726-2.39 1.34-1.796 2.02-3.39 2.02-3.39.098.022.262.188.235.64-.017.46-.49 2.167-1.408 3.757-.93 1.59-1.787 2.583-1.96 2.81-.107.13-.016.212.053.265.068.046 1.71 1.58 4.098 2.876 2.828 1.507 4.082 1.778 4.082 1.778s1.25-.264 4.08-1.77c2.385-1.298 4.035-2.84 4.096-2.89.07-.048.158-.122.054-.266-.163-.216-1.024-1.215-1.95-2.804-.917-1.58-1.407-3.298-1.414-3.75-.02-.458.135-.61.23-.647 0 0 .686 1.603 2.026 3.39 1.203 1.597 2.266 2.39 2.724 2.39.058 0 .104-.012.142-.034.344-.21.088-.615-.114-.955-.188-.35-.76-1.433-1.003-2.262-.233-.813-.475-1.565-.023-1.91.416.9 1.38 2.257 2.4 3.23.026.028.057.042.087.042.044 0 .092-.035.134-.096.075-.1 2.434-3.533 2.938-7.252.506-3.713.34-7.688-1.733-10.422-.908-1.195-2.272-1.703-3.486-1.703-.38 0-.74.05-1.072.144-1.03.31-1.737 1.063-1.73 1.87 0 1.196.947 1.452.947 1.452s-.318.668-1.448.804c-.21.026-.416.038-.612.038-.85 0-1.566-.27-2.226-1.202-.64-.897-.62-2.744-.656-3.36-.03-.625-.163-2.027-.82-2.6-.655-.586-1.453-.783-2.448-.822-.073.002-.138.002-.2.002" fill="#00afe9"/></svg>