<svg xmlns="http://www.w3.org/2000/svg" xmlns:xlink="http://www.w3.org/1999/xlink" width="162" height="114" version="1"><defs><clipPath id="i"><path d="M418.898 866.67H289.826V775.38h129.072v91.287z"/></clipPath><linearGradient x2="1" gradientUnits="userSpaceOnUse" gradientTransform="matrix(74.23 0 0 -74.23 317.13 838.28)" id="a"><stop offset="0" stop-color="#b2aaae"/><stop offset=".5" stop-color="#655b5f"/><stop offset=".994" stop-color="#d8d4d6"/><stop offset="1" stop-color="#d8d4d6"/></linearGradient><linearGradient x2="1" gradientUnits="userSpaceOnUse" gradientTransform="matrix(74.23 0 0 -74.23 317.09 838.28)" id="b"><stop offset="0" stop-color="#b2aaae"/><stop offset=".5" stop-color="#655b5f"/><stop offset=".994" stop-color="#d8d4d6"/><stop offset="1" stop-color="#d8d4d6"/></linearGradient><linearGradient x2="1" gradientUnits="userSpaceOnUse" gradientTransform="matrix(74.23 0 0 -74.23 317.13 811.85)" id="c"><stop offset="0" stop-color="#b2aaae"/><stop offset=".5" stop-color="#655b5f"/><stop offset=".994" stop-color="#d8d4d6"/><stop offset="1" stop-color="#d8d4d6"/></linearGradient><linearGradient x2="1" gradientUnits="userSpaceOnUse" gradientTransform="matrix(74.23 0 0 -74.23 317.09 811.85)" id="d"><stop offset="0" stop-color="#b2aaae"/><stop offset=".5" stop-color="#655b5f"/><stop offset=".994" stop-color="#d8d4d6"/><stop offset="1" stop-color="#d8d4d6"/></linearGradient><linearGradient x2="1" gradientUnits="userSpaceOnUse" gradientTransform="matrix(74 0 0 -74 317.14 849.3)" id="e"><stop offset="0" stop-color="#655b5f"/><stop offset=".5" stop-color="#fff"/><stop offset="1" stop-color="#655b5f"/></linearGradient><linearGradient x2="1" gradientUnits="userSpaceOnUse" gradientTransform="matrix(74 0 0 -74 317.14 822.88)" id="f"><stop offset="0" stop-color="#655b5f"/><stop offset=".5" stop-color="#fff"/><stop offset="1" stop-color="#655b5f"/></linearGradient><linearGradient x2="1" gradientUnits="userSpaceOnUse" gradientTransform="matrix(35 .7 .7 -35 354.53 849.89)" id="g"><stop offset="0" stop-color="#f0eeef"/><stop offset=".281" stop-color="#655b5f"/><stop offset=".59" stop-color="#8b8186"/><stop offset="1" stop-color="#655b5f"/></linearGradient><linearGradient x2="1" gradientUnits="userSpaceOnUse" gradientTransform="matrix(35 .7 .7 -35 354.53 823.46)" id="h"><stop offset="0" stop-color="#f0eeef"/><stop offset=".281" stop-color="#655b5f"/><stop offset=".59" stop-color="#8b8186"/><stop offset="1" stop-color="#655b5f"/></linearGradient><linearGradient xlink:href="#a" id="j" gradientUnits="userSpaceOnUse" gradientTransform="matrix(76.05 0 0 -76.05 612.86 733.47)" x1="-3.889" y1="-1.334" x2="-2.907" y2="-1.327"/><linearGradient xlink:href="#b" id="k" gradientUnits="userSpaceOnUse" gradientTransform="matrix(76.05 0 0 -76.05 612.83 733.47)" x1="-3.915" y1="-1.334" x2="-2.901" y2="-1.334"/><linearGradient xlink:href="#c" id="l" gradientUnits="userSpaceOnUse" gradientTransform="matrix(76.05 0 0 -76.05 612.86 706.39)" x1="-3.889" y1="-1.248" x2="-2.901" y2="-1.246"/><linearGradient xlink:href="#d" id="m" gradientUnits="userSpaceOnUse" gradientTransform="matrix(76.05 0 0 -76.05 612.83 706.39)" x1="-3.907" y1="-1.385" x2="-2.901" y2="-1.385"/><linearGradient xlink:href="#e" id="n" gradientUnits="userSpaceOnUse" gradientTransform="matrix(75.82 0 0 -75.82 612.88 744.76)" x1="-3.901" y1="-1.379" x2="-2.919" y2="-1.391"/><linearGradient xlink:href="#f" id="o" gradientUnits="userSpaceOnUse" gradientTransform="matrix(75.82 0 0 -75.82 612.88 717.68)" x1="-3.916" y1="-1.245" x2="-2.91" y2="-1.245"/><linearGradient xlink:href="#g" id="p" gradientUnits="userSpaceOnUse" gradientTransform="matrix(35.85 .73 .73 -35.85 651.18 745.35)" x1="-8.226" y1="-3.114" x2="-7.21" y2="-3.093"/><linearGradient xlink:href="#h" id="q" gradientUnits="userSpaceOnUse" gradientTransform="matrix(35.85 .73 .73 -35.85 651.18 718.28)" x1="-8.215" y1="-3.329" x2="-7.223" y2="-3.291"/></defs><path d="M101.932 110.59s-1.413.035-2.482 0c-2.724 0-5.662-2.055-5.662-5.373 0-3.29 2.88-5.257 5.648-5.256.033-.004 1.384-.06 2.493 0 2.784 0 5.663 1.967 5.663 5.257 0 3.318-2.94 5.372-5.66 5.372zm2.652-12.702c-3.87-.087-7.803 0-7.837 0-4.728 0-8.576 3.277-8.576 7.306 0 4.09 3.85 7.418 8.58 7.418.032 0 3.965.08 7.838 0 4.738 0 8.593-3.328 8.593-7.418 0-3.99-3.775-7.2-8.596-7.306M154.912 112.424h4.82v-7.017c0-4.1-3.67-7.313-8.358-7.313h-12.197c-.2 0-.663.05-.663.534v13.252c0 .356.26.543.513.543h5.097v-11.085c0-.486.37-.724.733-.724h5.614c1.555 0 3.855 1.394 3.855 4.434v6.817c0 .005.014.56.587.56M53.152 100.938h7.525v-2.283c0-.32-.232-.56-.542-.56h-20.97c-.34 0-.545.28-.545.553v2.29h5.012c1.88 0 3.145 1.613 3.145 3.118v7.824c0 .257.227.545.553.545h5.085V101.67c0-.404.33-.732.737-.732M29.97 111.88c0 .32.29.544.553.544h5.08V98.636c0-.296-.26-.546-.554-.546H30.52c-.3 0-.552.25-.552.546v13.243M69.305 104.804v-2.863c0-.78.556-1.326 1.352-1.326h7.484c1.136 0 2.094.95 2.094 2.08 0 1.163-.95 2.11-2.118 2.11h-8.81zm10.944 7.622h5.593c-.15-3.713-4.154-5.245-4.154-5.245s0 .002 0 0c2.517-.575 4.142-2.382 4.142-4.472 0-2.22-2.173-4.616-5.685-4.616h-13.53c-1.64 0-2.924 1.287-2.924 2.927v10.857c0 .314.225.548.536.548h5.078v-5.083H74.1c4.266 0 6.018 3.08 6.15 5.084" fill="#d9152e"/><g clip-path="url(#i)" transform="matrix(1.22 0 0 -1.22 -351.41 1058.93)"><path d="M305.55 783.505h4.485c-.97 2.456-3.786 4.195-6.758 4.2-1.627.003-4.526.096-6.42 0-2.21-.11-3.603-.615-4.965-1.8-1.33-1.16-2.064-2.692-2.066-4.318 0-3.358 2.988-5.995 6.95-6.132 2.717-.096 3.008-.1 6.57.007 3.3.1 5.665 1.593 6.687 4.2h-4.486c-.17 0-.3-.077-.386-.226-.81-1.4-2.337-2.237-4.008-2.263-.582-.01-1.367-.01-2.083-.005-2.332.023-4.64 1.658-4.64 4.425 0 2.718 2.37 4.374 4.65 4.375.26.01 1.18.04 2.022 0 1.664 0 3.26-.883 4.065-2.247.03-.05.145-.215.382-.215" fill="#d9152e"/></g><path d="M135.498 109.85H122.24c-.446 0-.758-.297-.758-.722v-2.73h11.49v-2.515h-11.494v-2.495c0-.01-.004-.724.854-.724h13.162v-2.01c0-.588-.627-.562-.644-.56h-18.44c-.057 0-.56.013-.56.56v10.852c0 1.434 1.104 2.917 2.95 2.917h16.148c.418 0 .55-.396.55-.535v-2.04M131.37 92.902c-.54-.332-1.188-.498-1.95-.498-.76 0-1.436.176-1.95.498-.518.32-.928.752-1.537.752-.608 0-.975-.43-1.523-.752-.55-.322-1.19-.498-1.95-.498-.762 0-1.41.166-1.952.498-.538.327-.81.726-.81 1.19 0 .467.272.865.81 1.193.542.33 1.19.494 1.95.494s1.42-.16 1.91-.457c.486-.297 1.015-.783 1.565-.783s1.048.436 1.537.746c.49.31 1.19.493 1.95.493.784 0 1.443-.164 1.967-.495.53-.328.792-.726.792-1.193 0-.464-.27-.863-.81-1.19" fill="#d9152e"/><path d="M80.985 23.628c11.76 0 40.154 24.38 43.713 27.475.24.21.575.48 1.19.41.887-.1.913-1.457.913-1.457s.212-3.098.212-6.216c0-3.93-3.07-7.366-3.07-7.366S92.127 1.424 80.986 1.424c-11.142 0-42.96 35.05-42.96 35.05s-3.068 3.436-3.068 7.366c0 3.118.21 6.216.21 6.216s.027 1.356.914 1.457c.616.07.95-.2 1.192-.41 3.558-3.096 31.95-27.475 43.713-27.475" fill="#231f20"/><path d="M80.985 55.876c11.76 0 40.154 24.38 43.713 27.476.24.21.575.48 1.19.41.887-.102.913-1.457.913-1.457s.212-3.1.212-6.216c0-3.93-3.07-7.367-3.07-7.367s-31.816-35.05-42.957-35.05c-11.142 0-42.96 35.05-42.96 35.05s-3.068 3.436-3.068 7.366c0 3.116.21 6.215.21 6.215s.027 1.355.914 1.456c.616.072.95-.197 1.192-.408 3.558-3.096 31.95-27.476 43.713-27.476" fill="#231f20"/><path d="M327.902 842.29c-5.283-4.35-9.362-8.438-10.76-9.875-.08-1.752.15-5.543.152-5.568 0 0 .024-1.37 1.003-.493l.974.866c10.517 9.62 21.316 18.04 29.968 21.787.615.266 1.624.445 1.1 1.107-.293.37-1.32.415-1.968.377-8.97-.515-20.06-7.907-20.468-8.202" fill="url(#j)" transform="matrix(1.22 0 0 -1.22 -351.41 1058.93)"/><path d="M380.82 842.29c5.283-4.35 9.363-8.438 10.76-9.875.08-1.752-.15-5.543-.152-5.568 0 0-.023-1.37-1.002-.493l-.975.866c-10.515 9.62-21.313 18.04-29.966 21.787-.614.266-1.624.445-1.1 1.107.294.37 1.32.415 1.968.377 8.972-.515 20.06-7.907 20.47-8.202" fill="url(#k)" transform="matrix(1.22 0 0 -1.22 -351.41 1058.93)"/><path d="M327.902 815.86c-5.283-4.35-9.362-8.437-10.76-9.874-.08-1.752.15-5.543.152-5.568 0 0 .024-1.37 1.003-.493l.974.866c10.517 9.62 21.316 18.042 29.968 21.788.615.266 1.624.445 1.1 1.107-.293.37-1.32.415-1.968.377-8.97-.516-20.06-7.908-20.468-8.203" fill="url(#l)" transform="matrix(1.22 0 0 -1.22 -351.41 1058.93)"/><path d="M380.82 815.86c5.283-4.35 9.363-8.437 10.76-9.874.08-1.752-.15-5.543-.152-5.568 0 0-.023-1.37-1.002-.493l-.975.866c-10.515 9.62-21.313 18.042-29.966 21.788-.614.266-1.624.445-1.1 1.107.294.37 1.32.415 1.968.377 8.972-.516 20.06-7.908 20.47-8.203" fill="url(#m)" transform="matrix(1.22 0 0 -1.22 -351.41 1058.93)"/><path d="M389.213 837.627c-.317.35-26.045 28.566-34.852 28.566-8.805 0-34.533-28.216-34.85-28.566-.03-.03-2.132-2.427-2.368-5.212 1.398 1.437 5.477 5.524 10.76 9.874-.002-.003 1.59 1.334 3.985 3.137 5.303 3.994 14.665 10.238 22.474 10.238 7.81 0 17.173-6.244 22.476-10.238 2.394-1.803 3.987-3.14 3.985-3.138 5.283-4.35 9.363-8.438 10.76-9.875-.236 2.785-2.338 5.18-2.367 5.212" fill="url(#n)" transform="matrix(1.22 0 0 -1.22 -351.41 1058.93)"/><path d="M389.213 811.198c-.317.35-26.045 28.566-34.852 28.566-8.805 0-34.533-28.216-34.85-28.566-.03-.03-2.132-2.427-2.368-5.212 1.398 1.437 5.477 5.524 10.76 9.874-.002-.002 1.59 1.335 3.985 3.138 5.303 3.994 14.665 10.238 22.474 10.238 7.81 0 17.173-6.244 22.476-10.238 2.394-1.803 3.987-3.14 3.985-3.138 5.283-4.35 9.363-8.437 10.76-9.874-.236 2.785-2.338 5.18-2.367 5.212" fill="url(#o)" transform="matrix(1.22 0 0 -1.22 -351.41 1058.93)"/><path d="M389.61 835.837c-14.44 16.56-30.195 29.286-34.702 29.515-.646.033-.66-.606-.66-.606-.008-5.442.32-6.402 4.066-7.86.515-.202 14.555-4.415 31.284-21.503l.24-.244-.23.697" fill="url(#p)" transform="matrix(1.22 0 0 -1.22 -351.41 1058.93)"/><path d="M389.61 809.408c-14.44 16.56-30.195 29.286-34.702 29.515-.646.033-.66-.606-.66-.606-.008-5.442.32-6.402 4.066-7.86.515-.202 14.555-4.415 31.284-21.503l.24-.244-.23.698" fill="url(#q)" transform="matrix(1.22 0 0 -1.22 -351.41 1058.93)"/></svg>