<svg xmlns="http://www.w3.org/2000/svg" width="222.125" height="124.528" version="1"><path fill="#ea2d31" d="M0 0h222.125v124.528H0V0"/><path d="M13.582 21.42v70.66h14.97c19.795 1.84 19.786-23.263 19.786-23.263V46.975c-.23-26.01-18.88-25.554-18.88-25.554H13.583zm13.902 10.94c7.73-.552 7.506 10.665 7.505 10.665v26.937c.23 13.352-8.296 11.296-8.296 11.296V32.44c.267-.043.54-.06.79-.08zM54.783 21.406h12.89v70.667h-12.89V21.406M104.272 91.876V81.484H87.468V61.688h11.74V50.41H87.7V32.685h16.113v-11.28H74.348v70.612l29.924-.14M128.21 41.663h11.28s1.38-21.867-16.345-21.867c-17.724 0-16.802 17.032-16.802 17.032s-2.3 13.81 12.43 24.858c0 0 15.422 8.98 9.668 18.645 0 0-9.206 8.288-9.438-8.285h-11.74s-2.07 22.788 17.265 21.868c0 0 15.882-.23 17.034-16.803 0 0 1.843-12.2-10.588-23.48 0 0-17.723-11.51-11.278-20.716 0 0 7.365-7.595 8.516 8.75zM145.642 21.406h29.49v11.51h-16.077V50.64h11.97v11.74h-12.2v19.104h16.803v11.05h-29.694l-.292-71.128M181.788 21.406h12.94v60.078h13.585v11.05h-26.525V21.405M203.372 22.562c.29-.06.71-.1 1.097-.1.612 0 1.014.12 1.29.37.216.19.348.493.348.842 0 .58-.375.968-.836 1.125v.02c.337.118.54.434.653.894.144.618.25 1.045.336 1.216h-.592c-.073-.126-.17-.507-.29-1.06-.13-.61-.375-.84-.894-.862h-.54v1.922h-.57v-4.368h-.002zm.572 2.013h.585c.61 0 1-.335 1-.842 0-.572-.416-.82-1.02-.82-.278 0-.47.025-.566.052v1.61z" fill="#fff"/><path d="M208.516 24.86c-.002 1.076-.438 2.05-1.14 2.753h-.002c-.704.703-1.676 1.138-2.75 1.14h-.004c-1.077 0-2.05-.437-2.754-1.14-.704-.704-1.137-1.677-1.138-2.75h-.002v-.002h.002c0-1.078.436-2.05 1.138-2.755.703-.704 1.677-1.137 2.753-1.138v-.002h.002v.002c1.075 0 2.048.436 2.754 1.14.704.704 1.138 1.675 1.138 2.75h.002v.002zm-.883 0v-.002c0-.83-.338-1.58-.883-2.126-.544-.546-1.296-.883-2.127-.883h-.004c-.83 0-1.582.337-2.128.882-.546.545-.884 1.298-.884 2.13h.003-.002c.002.83.34 1.58.884 2.127.545.545 1.298.882 2.128.882h.002c.83 0 1.583-.337 2.13-.882h-.002c.546-.547.883-1.3.883-2.13z" fill="#fff"/></svg>