<svg xmlns="http://www.w3.org/2000/svg" xmlns:xlink="http://www.w3.org/1999/xlink" width="281.988" height="121.739" viewBox="0 0 281.988 121.739"><path fill="#231F20" d="M276.407 114.133c-.75.724-1.646 1.085-2.688 1.085-1.086 0-1.993-.367-2.732-1.112-.74-.734-1.112-1.646-1.112-2.73 0-1.124.4-2.058 1.198-2.798.75-.696 1.63-1.047 2.646-1.047 1.06 0 1.966.38 2.716 1.13.75.755 1.123 1.656 1.123 2.715-.003 1.095-.38 2.013-1.153 2.758m-4.946-4.983c-.614.626-.917 1.366-.917 2.225 0 .89.31 1.646.93 2.268.62.626 1.365.934 2.245.934.87 0 1.614-.308 2.23-.94.62-.625.928-1.38.928-2.26 0-.855-.308-1.594-.923-2.226-.615-.636-1.366-.96-2.235-.96-.885 0-1.635.323-2.257.96zm.57 4.362v-4.26c.27 0 .657.006 1.187.006s.82.005.875.005c.346.027.62.098.842.222.384.21.572.545.572 1.015 0 .362-.103.616-.302.777-.2.157-.448.254-.734.286.265.055.464.14.604.243.248.205.372.52.372.956v.383c0 .044 0 .08.006.124.005.043.016.086.032.124l.043.118h-1.063c-.037-.13-.06-.33-.07-.588-.01-.254-.043-.433-.075-.52-.055-.15-.157-.258-.31-.317-.086-.032-.215-.055-.383-.065l-.248-.016h-.233v1.506h-1.118zm2.034-3.417c-.15-.065-.367-.092-.647-.092h-.27v1.24h.432c.258 0 .463-.06.614-.16.14-.104.216-.27.216-.503 0-.23-.114-.4-.346-.485z"/><defs><path id="a" d="M4.348 3.46h273.204V118H4.348z"/></defs><clipPath id="b"><use xlink:href="#a" overflow="visible"/></clipPath><path clip-path="url(#b)" fill="#E41E2A" d="M82.714 102.925c3.456 5.377 11.99 14.62 29.662 14.637 24.463.005 36.805-15.668 36.81-33.64.02-17.953-11.64-32.703-35.34-32.713-18.104-.017-36.104 10.322-36.12 33.305 0 2.208.26 4.692.61 6.598.194 1.112.74 3.158 1.296 4.978-4.114 5.427-12.023 13.283-23.637 13.277-15.986-.01-27.405-11.435-27.4-38.72.022-27.276 10.712-41.524 25.095-41.513 18.394.005 26.595 21.234 27.95 24.392l1.922-25.86c-7.645 1.408-15.738-4.38-30.677-4.407-28.048-.018-48.52 21.345-48.53 48.912-.033 27.443 18.588 45.826 45.4 45.832 18.652.006 28.602-9.507 32.96-15.08M99.142 83.64c0-4.93-.135-27.594 13.816-27.594 12.195.005 12.88 19.442 12.87 28.312 0 8.86-1.134 28.29-13.605 28.29-12.823-.01-13.082-20.98-13.082-29.008zm54.098-45.918c0 2.473-.042 77.88-.042 77.88l20.22.01.015-23.825 3.045-3.952s7.208 12.526 11.532 19.328c4.32 6.787 9.686 10.307 18.88 10.318 8.525 0 15.144-5.053 15.144-5.053s6.787 5.13 19.625 5.14c22.334.006 28.208-17.152 28.948-19.43 0 0-8.71 9.993-23.21 9.976-14.512-.005-15.592-14.76-16.348-18.334 8.644-1.108 39.4-3.44 39.407-21.96.01-13.27-13.28-16.363-24.506-16.368-21.886-.01-36.97 14.507-36.987 34.305 0 14.2 6.155 20.365 8.082 22.47-3.71 1.19-6.052.52-12.31-8.4-3.196-4.58-15.036-23.96-15.036-23.96l21.735-25.176h-25.92c.988 0 6.722 3.494 6.716 7.182.006 1.264-.447 1.922-1.36 2.99L173.428 81.24l.027-53.542-28.334-.016s8.12 1.182 8.12 10.042zm88.695 18.8c7.137.01 8.75 8.805 8.735 14.81 0 12.443-19.15 13.048-20.036 13.048.022-20.235 6.204-27.854 11.3-27.86z"/><path fill="#231F20" d="M236.136 37.14c-2.073 2.12-4.21 4.043-6.684 5.35-2.025.875-4.584 1.782-6.544.194-.95-.875-1.036-2.343-.696-3.563.378-1.273 1.042-2.46 1.674-3.622 0 0 8.433-15.468 8.52-15.63.097-.167.237-.157.237-.157 1.522 0 6.036-.01 6.214-.01.162 0 .038.286.092.178s-2.933 5.49-2.933 5.49-6.338 11.738-6.598 12.23c-.65 1.215-.065 2.144 1.754.994 2.22-1.404 3.423-2.85 4.767-4.616 1.793-2.343 2.776-5.48 5.87-8.752 3.007-3.196 5.426-4.69 7.974-5.583 2.926-1.025 6.198-.296 6.997 1.853.692 1.862-.328 4.443-1.65 5.97-3.132 3.58-7.354 5.546-11.765 6.534-.772 1.074-1.992 5.442 1.96 5.35 2.202-.053 4.038-1.273 6.024-2.575 3.433-2.43 6.596-5.49 8.848-8.967 1.063-1.9 2.225-3.817 3.175-5.745h-3.86s1.365-2.35 1.37-2.35h3.813l4.26-7.47 6.27.01c0 .027-3.58 6.787-3.942 7.46.907-.015 4.81-.01 4.81-.01l-1.17 2.354-4.925.005-.633 1.02s-5.215 9.675-7.062 12.984c-1.518 2.72-.373 3.158.745 2.683 1.512-.637 3.406-2.678 4.065-3.336 1.155-1.322 2.278-2.655 3.23-4.043.88-.016 2.083-.016 2.455 0-2.97 4.897-7.53 10.496-13.297 12.03-1.556.253-3.45.28-4.552-.908-1.062-1.108-.998-2.943-.463-4.272.178-.438.383-.93.47-1.112.097-.178-.006-.265-.194-.097-3.542 3.32-7.904 6.516-12.693 6.56-1.95.01-4.184-.843-5.156-2.75-.972-1.91-.74-3.185-.778-3.68m11.7-10.664c-1.037 1.16-2.17 2.73-3.072 4.583 0 0 5.248-1.34 8.115-4.984.642-.82 1.732-2.31 1.01-3.202-.24-.286-1.762-1.208-6.054 3.602zM237.815 10.484c-1.89 1.075-2.76 3.11-1.895 4.638.858 1.534 3.207 1.77 4.978.73 1.744-1.022 2.73-3.073 1.868-4.606-.858-1.53-3.056-1.826-4.95-.762"/><g><defs><path id="c" d="M4.348 3.46h273.204V118H4.348z"/></defs><clipPath id="d"><use xlink:href="#c" overflow="visible"/></clipPath><path clip-path="url(#d)" fill="#231F20" d="M212.808 10.344c-.438.648-.864 1.44-1.663 3.002-.793 1.56-2.392 6.095-3.704 9.243-2.272 5.457-5.668 10.344-9.81 13.82-3.433 2.9-5.236 4.136-8.043 5.13 0 0 1.053.382 3.466.485 9.243.4 17.04-3.73 21.428-9.913 4.066-5.728 6.993-13.47 2.312-20.473-4.41-6.572-23.723-9.223-34.187-.2-5.755 4.966-3.747 12.454 4.4 9.3 1.447-.636 2.76-1.727 3.288-2.715 4.68 1.717 10.29-1.927 10.29-1.927s-3.99 8.924-13.675 10.215c-9.918 1.312-12.698-3.85-12.57-7.494.94-12.165 24.863-19.265 39.117-13.083 11.7 5.08 14.177 14.016 11.79 21.143-3.514 10.512-12.487 15.01-20.996 16.85-9.19 1.998-16.684.194-19.15-.427-1.043-.275-1.54-.594-1.54-.594s3.26-2.258 6.387-6.048c2.63-3.186 5.367-7.083 7.326-10.425 4.477-7.697 10.427-13.804 15.535-15.893"/></g></svg>