<svg xmlns="http://www.w3.org/2000/svg" width="201.938" height="24.969"><path d="M49.53 0v.813h12V0h-12zM22.345 3.22c-3.35-.03-6.94 1.88-6.97 5.467-.034 3.91 3.236 4.984 6.407 6.032 2.806.925 5.462 1.807 5.44 4.592-.02 2.348-2.18 4.815-6.126 4.782-2.643-.024-4.717-1.247-5.875-2 0 .45-.002 1.228 0 1.406 1.687.922 3.782 1.45 5.905 1.47 4.045.035 8.15-2.196 8.188-6.532.032-3.697-3.213-4.788-6.375-5.844-2.86-.958-5.587-1.864-5.563-4.625.02-2.292 2.2-3.994 5.063-3.97 2.738.022 4.622 1.272 5.5 1.97.006-.477 0-1.207 0-1.376-.865-.45-2.93-1.353-5.594-1.375zm91.03.28c-.1.25-8.486 20.352-8.718 20.906h1.47c.1-.25 3.25-8.03 3.25-8.03h8.843s3.18 7.78 3.28 8.03h2.72l-5.47-12.812s-3.333-7.85-3.438-8.094h-1.937zM0 3.688v20.718h12.125v-.937h-9.75v-9.876h8.844v-.844H2.374V4.562h9.594v-.875H0zm30.188 0v.874H37v19.844h2.406V4.563h6.813v-.875H30.187zm19.375 0v20.718h12.124v-.937h-9.75v-9.876h8.844v-.844h-8.843V4.562h9.594v-.875H49.563zm16.5 0v20.718h12.124v-.937h-9.75v-9.876h8.844v-.844h-8.843V4.562h9.594v-.875H66.063zm25.03 0v20.718h12v-.968c-.397 0-9.656.03-9.656.03V3.69h-2.343zm35.126 0v13.937c0 4.74 2.864 7.25 8.28 7.25 5.15 0 8.22-2.65 8.22-7.094V3.688h-1.22v14.094c0 3.92-2.56 6.345-6.688 6.345-3.902 0-6.25-2.214-6.25-5.938v-14.5h-2.343zm21.124 0v20.718h6.844c3.696.045 6.687-.96 8.687-2.937 1.85-1.827 2.78-4.42 2.78-7.69 0-3.174-.924-5.762-2.686-7.5-1.786-1.755-4.432-2.645-7.69-2.593h-7.936zm22.187 0v20.718h12.126v-.937h-9.75v-9.876h8.844v-.844h-8.844V4.562h9.594v-.875h-11.97zm16.532 0v20.718h2.375V14.313h4.407l6.5 10.093h2.594l-6.844-10.343.312-.063c.215-.04 5.22-1.05 5.22-5.094-.005-1.41-.456-2.566-1.345-3.437-1.22-1.195-3.27-1.83-5.78-1.782h-7.438zm2.375.78h4.844c1.717-.02 3.01.396 3.876 1.25.77.757 1.155 1.838 1.156 3.188.005 1.248-.372 2.285-1.156 3.063-1.085 1.074-2.895 1.615-5.22 1.592h-3.5V4.47zM149.75 4.5h5.125c2.46-.026 4.43.664 5.844 2.062 1.66 1.647 2.5 4.204 2.5 7.594 0 3.186-.797 5.59-2.376 7.156-1.6 1.58-3.928 2.315-7.156 2.282h-3.938V4.5zm-35.97.844l2.94 7.312 1.155 2.844h-8.156l.124-.28c.397-.956 2.3-5.616 3.75-9.376l.187-.5z"/></svg>