<svg xmlns="http://www.w3.org/2000/svg" width="300" height="120" viewBox="0 0 300 120"><path fill="#C9C9CA" d="M150.824 6.46C70.48 6.46 6.077 30.544 6.077 60.738c0 30.013 64.933 54.28 144.748 54.28 79.817 0 144.757-24.35 144.757-54.28 0-29.926-64.94-54.276-144.758-54.276m143.873 50.085c.052.265.09.533.134.79-.037-.256-.09-.522-.133-.79"/><radialGradient id="a" cx="149.87" cy="185.55" r="623.71" gradientTransform="matrix(1 0 0 .5 0 91.31)" gradientUnits="userSpaceOnUse"><stop offset="0" stop-color="#00082E"/><stop offset=".155" stop-color="#000A30"/><stop offset=".242" stop-color="#010F39"/><stop offset=".312" stop-color="#011946"/><stop offset=".373" stop-color="#02275A"/><stop offset=".414" stop-color="#03346C"/><stop offset=".439" stop-color="#0B4F87"/><stop offset=".48" stop-color="#1676AF"/><stop offset=".513" stop-color="#1C8EC7"/><stop offset=".533" stop-color="#1F97D0"/><stop offset="1" stop-color="#1F97D0"/></radialGradient><path fill="url(#a)" d="M150.828 8.628c-78.745 0-142.533 23.277-142.533 52.08 0 28.79 63.788 52.08 142.533 52.08 78.757 0 142.53-23.29 142.53-52.08 0-28.802-63.773-52.08-142.53-52.08"/><linearGradient id="b" gradientUnits="userSpaceOnUse" x1="-257.216" y1="409.621" x2="-253.949" y2="409.621" gradientTransform="matrix(0 -33.76 -33.76 0 13979.6 -8567.51)"><stop offset="0" stop-color="#00082E"/><stop offset=".321" stop-color="#010A30"/><stop offset=".501" stop-color="#030F39"/><stop offset=".647" stop-color="#071846"/><stop offset=".773" stop-color="#0D245A"/><stop offset=".809" stop-color="#0F2961"/><stop offset=".839" stop-color="#0B386E"/><stop offset=".896" stop-color="#054E83"/><stop offset=".951" stop-color="#015B90"/><stop offset="1" stop-color="#006094"/></linearGradient><path fill="url(#b)" d="M151.476 19.55c66.95 0 122.23 16.356 130.674 37.525v-.003c-5.64-22.272-62.278-39.768-131.332-39.768-72.787 0-131.788 19.435-131.788 43.42 0 1.956.393 3.876 1.15 5.763-.327-1.242-.496-2.497-.496-3.772 0-23.837 59.004-43.166 131.792-43.166z"/><linearGradient id="c" gradientUnits="userSpaceOnUse" x1="-257.217" y1="409.584" x2="-253.949" y2="409.584" gradientTransform="matrix(0 -33.76 -33.76 0 13980.13 -8567.51)"><stop offset="0" stop-color="#00082E"/><stop offset=".321" stop-color="#010A30"/><stop offset=".501" stop-color="#030F39"/><stop offset=".647" stop-color="#071846"/><stop offset=".773" stop-color="#0D245A"/><stop offset=".809" stop-color="#0F2961"/><stop offset=".839" stop-color="#0B386E"/><stop offset=".896" stop-color="#054E83"/><stop offset=".951" stop-color="#015B90"/><stop offset="1" stop-color="#006094"/></linearGradient><path fill="url(#c)" d="M286.525 55.292c.583 1.788.873 3.594.873 5.433 0 26.257-61.148 47.54-136.58 47.54-67.133 0-122.945-16.86-134.428-39.062 8.713 23.076 65.786 40.903 134.97 40.977h.838c75.238-.074 136.166-21.142 136.166-47.138 0-2.636-.627-5.232-1.84-7.75z"/><linearGradient id="d" gradientUnits="userSpaceOnUse" x1="-259.93" y1="412.537" x2="-256.664" y2="412.537" gradientTransform="matrix(0 -23.74 -23.74 0 9967.25 -6071.98)"><stop offset="0" stop-color="#00082E"/><stop offset=".321" stop-color="#010A30"/><stop offset=".501" stop-color="#030F39"/><stop offset=".647" stop-color="#071846"/><stop offset=".773" stop-color="#0D245A"/><stop offset=".809" stop-color="#0F2961"/><stop offset=".839" stop-color="#0B386E"/><stop offset=".896" stop-color="#054E83"/><stop offset=".951" stop-color="#015B90"/><stop offset="1" stop-color="#006094"/></linearGradient><path fill="url(#d)" d="M177.1 68.042c-.302-.763-.358-1.622-.184-2.473.06-.304-.33-.578-.65-.247-3.058 3.19-3.287 7.313-1.283 9.165.715.667 1.538.964 2.416 1.02-1.307-1.656-1.923-4.902-.3-7.466z"/><linearGradient id="e" gradientUnits="userSpaceOnUse" x1="-259.943" y1="411.606" x2="-256.711" y2="411.606" gradientTransform="matrix(0 -23.68 -23.68 0 9955.55 -6058.49)"><stop offset="0" stop-color="#00082E"/><stop offset=".321" stop-color="#010A30"/><stop offset=".501" stop-color="#030F39"/><stop offset=".647" stop-color="#071846"/><stop offset=".773" stop-color="#0D245A"/><stop offset=".809" stop-color="#0F2961"/><stop offset=".839" stop-color="#0B386E"/><stop offset=".896" stop-color="#054E83"/><stop offset=".951" stop-color="#015B90"/><stop offset="1" stop-color="#006094"/></linearGradient><path fill="url(#e)" d="M208.088 74.182h.003c.16-.302.315-.622.48-.964.128-.262.064-.336-.044-.38-.316-.114-.64-.353-.684-.6-.02-.046-.024-.09-.028-.14.003.015.004.02.004.027.04.478.168 1.384.27 2.057z"/><linearGradient id="f" gradientUnits="userSpaceOnUse" x1="-259.943" y1="411.467" x2="-256.699" y2="411.467" gradientTransform="matrix(0 -23.68 -23.68 0 9956.92 -6058.44)"><stop offset="0" stop-color="#00082E"/><stop offset=".321" stop-color="#010A30"/><stop offset=".501" stop-color="#030F39"/><stop offset=".647" stop-color="#071846"/><stop offset=".773" stop-color="#0D245A"/><stop offset=".809" stop-color="#0F2961"/><stop offset=".839" stop-color="#0B386E"/><stop offset=".896" stop-color="#054E83"/><stop offset=".951" stop-color="#015B90"/><stop offset="1" stop-color="#006094"/></linearGradient><path fill="url(#f)" d="M211.563 61.693c1.02.978 1.642 2.166 1.76 3.257.045.517.438.576.76.124.083-.124.18-.277.293-.45-.09-.124-.185-.244-.277-.363-.452-.526-1.51-1.67-2.537-2.567z"/><linearGradient id="g" gradientUnits="userSpaceOnUse" x1="-259.949" y1="412.71" x2="-256.68" y2="412.71" gradientTransform="matrix(0 -23.7 -23.7 0 9949.97 -6062.23)"><stop offset="0" stop-color="#00082E"/><stop offset=".321" stop-color="#010A30"/><stop offset=".501" stop-color="#030F39"/><stop offset=".647" stop-color="#071846"/><stop offset=".773" stop-color="#0D245A"/><stop offset=".809" stop-color="#0F2961"/><stop offset=".839" stop-color="#0B386E"/><stop offset=".896" stop-color="#054E83"/><stop offset=".951" stop-color="#015B90"/><stop offset="1" stop-color="#006094"/></linearGradient><path fill="url(#g)" d="M169.194 59.684c.82 1.12 1.202 2.722 1.145 4.77-.014.533.372.496.625.134.142-.2.272-.38.404-.56v-.016c-.6-1.838-1.52-3.642-2.176-4.328z"/><linearGradient id="h" gradientUnits="userSpaceOnUse" x1="-259.94" y1="411.805" x2="-256.675" y2="411.805" gradientTransform="matrix(0 -23.7 -23.7 0 9965.84 -6066.27)"><stop offset="0" stop-color="#00082E"/><stop offset=".321" stop-color="#010A30"/><stop offset=".501" stop-color="#030F39"/><stop offset=".647" stop-color="#071846"/><stop offset=".773" stop-color="#0D245A"/><stop offset=".809" stop-color="#0F2961"/><stop offset=".839" stop-color="#0B386E"/><stop offset=".896" stop-color="#054E83"/><stop offset=".951" stop-color="#015B90"/><stop offset="1" stop-color="#006094"/></linearGradient><path fill="url(#h)" d="M207.28 65.103c-2.522-1.21-6.37 1.01-9.85 5.295-2.854 3.504-4.392 7.068-4.446 10.542-.022 1.238.447 2.766 1.538 3.326.354.193.712.318 1.09.377-.133-.494-.19-.978-.192-1.396-.042-3.585 1.072-7.165 3.932-10.673 3.456-4.264 7.094-6.39 9.618-5.214-.128-.94-.616-1.75-1.69-2.257z"/><linearGradient id="i" gradientUnits="userSpaceOnUse" x1="-259.961" y1="413.791" x2="-256.695" y2="413.791" gradientTransform="matrix(0 -23.66 -23.66 0 9923.75 -6052.83)"><stop offset="0" stop-color="#00082E"/><stop offset=".321" stop-color="#010A30"/><stop offset=".501" stop-color="#030F39"/><stop offset=".647" stop-color="#071846"/><stop offset=".773" stop-color="#0D245A"/><stop offset=".809" stop-color="#0F2961"/><stop offset=".839" stop-color="#0B386E"/><stop offset=".896" stop-color="#054E83"/><stop offset=".951" stop-color="#015B90"/><stop offset="1" stop-color="#006094"/></linearGradient><path fill="url(#i)" d="M131.846 72.206c2.658-3.604 5.652-4.965 9.066-6.442.45-.198.504-.452.418-.85-.146-.678-.62-2.367-.765-2.773.108.372.012.656-.432.82-3.874 1.472-7.758 3.756-10.445 7.354-3.048 4.085-3.865 8.996-1.83 11.826.486.663 1.064 1.154 1.702 1.473-1.097-3.378-.296-7.91 2.286-11.407z"/><linearGradient id="j" gradientUnits="userSpaceOnUse" x1="-259.951" y1="412.797" x2="-256.683" y2="412.797" gradientTransform="matrix(0 -23.7 -23.7 0 9945.25 -6059.85)"><stop offset="0" stop-color="#00082E"/><stop offset=".321" stop-color="#010A30"/><stop offset=".501" stop-color="#030F39"/><stop offset=".647" stop-color="#071846"/><stop offset=".773" stop-color="#0D245A"/><stop offset=".809" stop-color="#0F2961"/><stop offset=".839" stop-color="#0B386E"/><stop offset=".896" stop-color="#054E83"/><stop offset=".951" stop-color="#015B90"/><stop offset="1" stop-color="#006094"/></linearGradient><path fill="url(#j)" d="M151.348 93.582c2.62 0 5.837 0 8.016-.01.323-.02.553-.204.723-.446 3.255-5.098 6.732-10.633 10.056-15.737.73 2.574 1.104 3.772 2.46 4.985 1.382 1.234 2.66 1.556 4.538 1.574 1.708.02 3.39-.663 5.39-1.494.716-.297 1.36-.668 1.936-1.04 0-.946.096-1.897.265-2.802.014-.098-.082-.727-.618-.354-.923.664-2.126 1.392-3.622 1.947-1.844.688-2.703.948-4.41.93-2.148-.017-4.082-.93-5.444-3.054-.76-1.147-1.076-2.895-1.148-4.18-.01-.14-.195-.39-.396-.067-3.61 5.516-6.98 10.845-10.56 16.448-.186.263-.348.434-.72.45-2.213 0-4.636-.007-7.074.006-.255 0-.438-.118-.492-.294.192.855.504 2.404.587 2.764.06.243.243.372.515.372z"/><linearGradient id="k" gradientUnits="userSpaceOnUse" x1="-259.869" y1="411.51" x2="-256.601" y2="411.51" gradientTransform="matrix(0 -23.9 -23.9 0 10038.24 -6109.86)"><stop offset="0" stop-color="#00082E"/><stop offset=".321" stop-color="#010A30"/><stop offset=".501" stop-color="#030F39"/><stop offset=".647" stop-color="#071846"/><stop offset=".773" stop-color="#0D245A"/><stop offset=".809" stop-color="#0F2961"/><stop offset=".839" stop-color="#0B386E"/><stop offset=".896" stop-color="#054E83"/><stop offset=".951" stop-color="#015B90"/><stop offset="1" stop-color="#006094"/></linearGradient><path fill="url(#k)" d="M186.39 90.532c.604 1.16 1.958 2.46 2.78 2.87 4.695 2.314 11.397-.31 15.702-4.448.042-.056.05-.06.115-.128.197.745.438 1.646.472 1.77.293.962.753 1.835 1.157 2.3 2.946 3.326 9.198 1.812 15.705-3.224 3.638-2.81 6.335-5.636 9.638-9.48.13-.16.12-.395.045-.754-.188-.836-.485-2.348-.65-3.11h-.002c0 .134-.06.258-.127.35-3.45 4.205-7.26 8.18-10.908 10.992-5.67 4.392-11.33 5.507-14.127 2.693-1.046-1.046-1.618-2.543-1.687-3.813-.035-.688-.383-.72-.712-.398-3.34 3.31-9.15 6.976-14.446 4.365-2.73-1.347-4.155-3.876-4.666-6.66.004.03.014.065.02.094.33 1.976.758 4.823 1.69 6.582z"/><linearGradient id="l" gradientUnits="userSpaceOnUse" x1="-259.894" y1="412.3" x2="-256.632" y2="412.3" gradientTransform="matrix(0 -23.83 -23.83 0 10006.14 -6094.86)"><stop offset="0" stop-color="#00082E"/><stop offset=".321" stop-color="#010A30"/><stop offset=".501" stop-color="#030F39"/><stop offset=".647" stop-color="#071846"/><stop offset=".773" stop-color="#0D245A"/><stop offset=".809" stop-color="#0F2961"/><stop offset=".839" stop-color="#0B386E"/><stop offset=".896" stop-color="#054E83"/><stop offset=".951" stop-color="#015B90"/><stop offset="1" stop-color="#006094"/></linearGradient><path fill="url(#l)" d="M184.052 72.574c1.743-.944 3.274-2.944 3.083-6.187-.1-1.616-.568-3.28-1.324-4.622.515.98.73 2.12.547 3.32-.333 2.094-1.47 3.943-3.4 4.897-1.633.8-3.544.66-4.88-.533-.42-.38-.723-.84-.937-1.324.345 1.582.645 2.745 1.057 3.368 1.263 1.9 3.446 2.38 5.855 1.08z"/><linearGradient id="m" gradientUnits="userSpaceOnUse" x1="-259.961" y1="411.142" x2="-256.694" y2="411.142" gradientTransform="matrix(0 -23.66 -23.66 0 9953.8 -6054.35)"><stop offset="0" stop-color="#00082E"/><stop offset=".321" stop-color="#010A30"/><stop offset=".501" stop-color="#030F39"/><stop offset=".647" stop-color="#071846"/><stop offset=".773" stop-color="#0D245A"/><stop offset=".809" stop-color="#0F2961"/><stop offset=".839" stop-color="#0B386E"/><stop offset=".896" stop-color="#054E83"/><stop offset=".951" stop-color="#015B90"/><stop offset="1" stop-color="#006094"/></linearGradient><path fill="url(#m)" d="M235.866 45.17c-1.1 1.902-22.3 34.182-23.642 37.52-.424 1.057-.473 1.867-.042 2.45.438.584 1.076.807 1.8.795.074-.407.23-.867.422-1.35 1.34-3.35 21.197-33.527 22.288-35.436.09-.164.057-.347.028-.47-.063-.302-.73-3.51-.795-3.81.02.084 0 .19-.06.3z"/><linearGradient id="n" gradientUnits="userSpaceOnUse" x1="-259.951" y1="413.316" x2="-256.68" y2="413.316" gradientTransform="scale(23.7) rotate(-90 81.9 -337.73)"><stop offset="0" stop-color="#00082E"/><stop offset=".321" stop-color="#010A30"/><stop offset=".501" stop-color="#030F39"/><stop offset=".647" stop-color="#071846"/><stop offset=".773" stop-color="#0D245A"/><stop offset=".809" stop-color="#0F2961"/><stop offset=".839" stop-color="#0B386E"/><stop offset=".896" stop-color="#054E83"/><stop offset=".951" stop-color="#015B90"/><stop offset="1" stop-color="#006094"/></linearGradient><path fill="url(#n)" d="M147.864 60.193c.06.067.11.133.165.2 1.275 1.9 1.97 4.573 2.04 7.334.077.582.326.595.607.297.26-.263.51-.54.76-.81-.374-1.484-.952-2.817-1.548-4.102-.22-.466-1.19-2.13-2.026-2.92z"/><linearGradient id="o" gradientUnits="userSpaceOnUse" x1="-259.954" y1="413.676" x2="-256.689" y2="413.676" gradientTransform="matrix(0 -23.68 -23.68 0 9934.36 -6058.77)"><stop offset="0" stop-color="#00082E"/><stop offset=".321" stop-color="#010A30"/><stop offset=".501" stop-color="#030F39"/><stop offset=".647" stop-color="#071846"/><stop offset=".773" stop-color="#0D245A"/><stop offset=".809" stop-color="#0F2961"/><stop offset=".839" stop-color="#0B386E"/><stop offset=".896" stop-color="#054E83"/><stop offset=".951" stop-color="#015B90"/><stop offset="1" stop-color="#006094"/></linearGradient><path fill="url(#o)" d="M113.646 90.365c.386.195.785.017.977-.09 1.293-.662 3.81-2.597 4.896-3.95.328-.306.644-.097.75.23.452 1.435 1.116 2.542 1.86 3.72.81 1.313 2.438 2.672 4.547 3.25 2.73.764 5.674.9 9.545-.578 3.105-1.187 6.357-3.61 8.858-6.328 3.003-3.258 4.088-5.347 5.225-6.772 1.947-2.41 4.978-6.68 9.226-10.303 1.488-1.27 3.115-2.095 4.134-1.696.616-1.582.325-2.455-.33-2.876-.994-.648-2.982.325-4.66 1.604-4.574 3.464-8.417 8.862-10.363 11.275-1.148 1.42-2.23 3.514-5.227 6.77-4.713 5.117-10.962 8.056-16.99 6.027-3.29-1.107-5.67-3.752-6.577-7-.182-.628-.533-.805-.875-.39-.972 1.216-2.963 3.003-4.626 4.128-.182.13-.632.398-1.018.205-.348-.157-1.583-1.9-1.825-2.404-.03-.05-.05-.115-.06-.168v.022c.434 2.147.488 2.396 1.075 3.388.666 1.096 1.314 1.87 1.46 1.933z"/><linearGradient id="p" gradientUnits="userSpaceOnUse" x1="-259.962" y1="415.397" x2="-256.695" y2="415.397" gradientTransform="matrix(0 -23.66 -23.66 0 9908.65 -6053.87)"><stop offset="0" stop-color="#00082E"/><stop offset=".321" stop-color="#010A30"/><stop offset=".501" stop-color="#030F39"/><stop offset=".647" stop-color="#071846"/><stop offset=".773" stop-color="#0D245A"/><stop offset=".809" stop-color="#0F2961"/><stop offset=".839" stop-color="#0B386E"/><stop offset=".896" stop-color="#054E83"/><stop offset=".951" stop-color="#015B90"/><stop offset="1" stop-color="#006094"/></linearGradient><path fill="url(#p)" d="M77.297 71.087c1.522-3.07 3.664-4.535 5.77-5.866.906-.573 1.308-1.13.77-2.625-.154-.426-.24-1.194-.41-1.874.054.665-.274 1.236-.86 1.54-2.573 1.314-5.67 3.563-7.197 6.63-1.242 2.5-1.494 5.526.398 8.4.16.23.33.46.52.674h.003c-.607-2.386.047-4.956 1.007-6.877z"/><linearGradient id="q" gradientUnits="userSpaceOnUse" x1="-259.877" y1="414.256" x2="-256.607" y2="414.256" gradientTransform="scale(23.9) rotate(-90 81.62 -337.4)"><stop offset="0" stop-color="#00082E"/><stop offset=".321" stop-color="#010A30"/><stop offset=".501" stop-color="#030F39"/><stop offset=".647" stop-color="#071846"/><stop offset=".773" stop-color="#0D245A"/><stop offset=".809" stop-color="#0F2961"/><stop offset=".839" stop-color="#0B386E"/><stop offset=".896" stop-color="#054E83"/><stop offset=".951" stop-color="#015B90"/><stop offset="1" stop-color="#006094"/></linearGradient><path fill="url(#q)" d="M103.63 33.82c9.352-3.084 19.778-1.134 28.15.658 1.172-.732 2.197-1.237 3.224-1.8.51-.267-.06-.586-.22-.586-10.81-2.03-22.042-4.66-32.775-.686-7.437 2.776-10.698 8.672-9.125 12.61.3.75.78 1.335 1.404 1.75-.526-3.632 2.196-9.582 9.34-11.946z"/><linearGradient id="r" gradientUnits="userSpaceOnUse" x1="-259.955" y1="414.67" x2="-256.687" y2="414.67" gradientTransform="matrix(0 -23.68 -23.68 0 9921.36 -6057.12)"><stop offset="0" stop-color="#00082E"/><stop offset=".321" stop-color="#010A30"/><stop offset=".501" stop-color="#030F39"/><stop offset=".647" stop-color="#071846"/><stop offset=".773" stop-color="#0D245A"/><stop offset=".809" stop-color="#0F2961"/><stop offset=".839" stop-color="#0B386E"/><stop offset=".896" stop-color="#054E83"/><stop offset=".951" stop-color="#015B90"/><stop offset="1" stop-color="#006094"/></linearGradient><path fill="url(#r)" d="M73.215 90.338c3.067 2.16 6.083 2.876 9.605 2.94 7.152.124 13.685-2.83 20.613-9.86 6.65-6.75 12.408-16.18 18.085-25.53.188-.33.39-.477 1.34-.6 3.562-.44 6.753-.643 9.9-.94.937-.087 1.652-.173 1.994.167 1.136 1.137 2.458 2.176 3.332 2.684.58.005 1.07.133 1.41.44.367-.05.702-.253.92-.464.407-.4.423-.866.356-1.262-.14-.777-.35-2.307-.6-2.752.172.338.06.817-.278 1.2-.25.284-.638.552-1.133.546-.41-.01-.652-.15-1.166-.43-1.06-.57-2.37-1.507-3.252-2.616-.297-.372-.45-.382-1.2-.34-3.364.196-8.613.7-12.172 1.147-.858.107-.986.267-1.165.562-5.67 9.353-11.725 19.436-18.373 26.188-7.13 7.24-13.06 9.14-19.35 9.192-7.258.05-13.717-4.063-15.355-11.29v.003c.884 4.036 3.485 8.894 6.488 11.013z"/><linearGradient id="s" gradientUnits="userSpaceOnUse" x1="-259.918" y1="414.565" x2="-256.656" y2="414.565" gradientTransform="matrix(0 -23.77 -23.77 0 9957.93 -6079.46)"><stop offset="0" stop-color="#00082E"/><stop offset=".321" stop-color="#010A30"/><stop offset=".501" stop-color="#030F39"/><stop offset=".647" stop-color="#071846"/><stop offset=".773" stop-color="#0D245A"/><stop offset=".809" stop-color="#0F2961"/><stop offset=".839" stop-color="#0B386E"/><stop offset=".896" stop-color="#054E83"/><stop offset=".951" stop-color="#015B90"/><stop offset="1" stop-color="#006094"/></linearGradient><path fill="url(#s)" d="M100.032 58.915c-.166-.255-.246-.533-.252-.813-.074 1.212.415 2.994.807 3.59.43.663 1.644.99 2.604.274 2.17-1.598 4.13-2.53 6.322-2.944.565-.77 1.17-1.625 1.867-2.585.06-.075.076-.175.05-.225-.04-.087-.11-.112-.25-.118-3.213.09-6.02 1.05-8.74 3.083-.784.57-1.914.49-2.408-.262z"/><linearGradient id="t" gradientUnits="userSpaceOnUse" x1="-259.963" y1="413.08" x2="-256.692" y2="413.08" gradientTransform="matrix(0 -23.66 -23.66 0 9933.02 -6054)"><stop offset="0" stop-color="#00082E"/><stop offset=".321" stop-color="#010A30"/><stop offset=".501" stop-color="#030F39"/><stop offset=".647" stop-color="#071846"/><stop offset=".773" stop-color="#0D245A"/><stop offset=".809" stop-color="#0F2961"/><stop offset=".839" stop-color="#0B386E"/><stop offset=".896" stop-color="#054E83"/><stop offset=".951" stop-color="#015B90"/><stop offset="1" stop-color="#006094"/></linearGradient><path fill="url(#t)" d="M187.492 37.01c-4.496 2.467-9.193 3.212-14.103 3.255-11.876.097-22.94-4.53-34.384-7.016.016.498.147 1.097-.274 1.413-6.338 4.674-12.07 9.425-15.91 16.092-.126.156-.056.3.167.284 1.01-.047 1.99-.092 2.955-.145 3.497-5.478 7.238-8.618 12.95-12.834.428-.323.855-.548.715-1.767 11.48 2.55 20.21 6.77 35.034 6.81 4.424.014 10.663-1.46 14.017-3.48 3.86-2.32 4.884-4.026 5.024-5.83.045-.562-.103-1.398-.195-1.83-.132-.61-.218-1.39-.393-1.97.06.237.086.503.066.796-.118 2.073-1.72 4.066-5.67 6.22z"/><linearGradient id="u" gradientUnits="userSpaceOnUse" x1="-259.942" y1="413.641" x2="-256.673" y2="413.641" gradientTransform="matrix(0 -23.72 -23.72 0 9948.34 -6067.31)"><stop offset="0" stop-color="#00082E"/><stop offset=".321" stop-color="#010A30"/><stop offset=".501" stop-color="#030F39"/><stop offset=".647" stop-color="#071846"/><stop offset=".773" stop-color="#0D245A"/><stop offset=".809" stop-color="#0F2961"/><stop offset=".839" stop-color="#0B386E"/><stop offset=".896" stop-color="#054E83"/><stop offset=".951" stop-color="#015B90"/><stop offset="1" stop-color="#006094"/></linearGradient><path fill="url(#u)" d="M137.89 44.75c-.14.133-.3.27-.457.414-1.133 1.173-1.478 2.726-1.312 3.902.094.477.278.57.496.53.214-.043.43-.118.657-.206.08-.648.35-1.275 1.005-1.85.473-.42 1.066-.613 1.573-.53.438-.865.563-1.907.03-2.372-.512-.443-1.33-.36-1.99.11z"/><linearGradient id="v" gradientUnits="userSpaceOnUse" x1="-259.958" y1="413.594" x2="-256.693" y2="413.594" gradientTransform="matrix(0 -23.67 -23.67 0 9928.75 -6054.69)"><stop offset="0" stop-color="#00082E"/><stop offset=".321" stop-color="#010A30"/><stop offset=".501" stop-color="#030F39"/><stop offset=".647" stop-color="#071846"/><stop offset=".773" stop-color="#0D245A"/><stop offset=".809" stop-color="#0F2961"/><stop offset=".839" stop-color="#0B386E"/><stop offset=".896" stop-color="#054E83"/><stop offset=".951" stop-color="#015B90"/><stop offset="1" stop-color="#006094"/></linearGradient><path fill="url(#v)" d="M142.457 48.813c-1.09 2.083-2.885 3.193-4.608 3.732 0 0-.362.082-.308.412.042.37 1.264 1.144 2.027 1.687.11-.03.276-.09.276-.09.884-.352 2.358-1.25 3.21-3.116.546-1.203.843-2.148.606-4.212-.172-1.44-.463-2.742-.85-3.415.746 1.51.45 3.447-.355 5.003z"/><linearGradient id="w" gradientUnits="userSpaceOnUse" x1="-259.964" y1="414.826" x2="-256.689" y2="414.826" gradientTransform="matrix(0 -23.67 -23.67 0 9917.98 -6056.06)"><stop offset="0" stop-color="#00082E"/><stop offset=".321" stop-color="#010A30"/><stop offset=".501" stop-color="#030F39"/><stop offset=".647" stop-color="#071846"/><stop offset=".773" stop-color="#0D245A"/><stop offset=".809" stop-color="#0F2961"/><stop offset=".839" stop-color="#0B386E"/><stop offset=".896" stop-color="#054E83"/><stop offset=".951" stop-color="#015B90"/><stop offset="1" stop-color="#006094"/></linearGradient><path fill="url(#w)" d="M110.553 41.375c-3.14 7.382-9.14 13.238-16.448 13.48-4.087.136-7.215-1.79-8.878-4.73 1.215 2.195 3.27 4.118 5.103 5.272 1.583.986 3.536 1.535 5.77 1.46 7.615-.26 13.385-6.536 15.3-11.838.51-1.43.11-2.963-.125-4-.096-.395-.227-1.298-.517-1.942h-.003c.216.53.216 1.313-.202 2.297z"/><path fill="#4B4B4B" d="M150.824 6.46C70.48 6.46 6.077 30.544 6.077 60.738c0 30.013 64.933 54.28 144.748 54.28 79.817 0 144.757-24.35 144.757-54.28 0-29.926-64.94-54.276-144.758-54.276M7.07 61.336c-.03-6.352 2.77-12.663 8.657-18.604C36.45 21.83 90.745 7.7 150.585 7.457c79.27-.33 143.866 23.306 144.004 52.688.027 6.353-2.94 12.58-8.828 18.516-20.725 20.908-74.854 35.124-134.688 35.364-79.27.33-143.87-23.303-144.005-52.69m287.627-4.79c.052.266.09.534.134.79-.037-.255-.09-.52-.133-.79"/><linearGradient id="x" gradientUnits="userSpaceOnUse" x1="-254.226" y1="410.453" x2="-250.96" y2="410.453" gradientTransform="scale(39.58) rotate(-105 33.23 -302.14)"><stop offset="0" stop-color="#A5A5A6"/><stop offset=".35" stop-color="#D7D7D7"/><stop offset=".65" stop-color="#D7D7D7"/><stop offset="1" stop-color="#A5A5A6"/></linearGradient><path fill="url(#x)" d="M6.514 60.737c0 1.418.167 2.825.457 4.212-.22-1.196-.344-2.397-.35-3.612-.028-6.436 2.85-12.934 8.786-18.924C36.244 21.396 90.596 7.254 150.582 7c8.313-.036 16.458.197 24.394.67-7.856-.492-15.92-.757-24.15-.757C70.802 6.913 6.513 30.91 6.513 60.737z"/><linearGradient id="y" gradientUnits="userSpaceOnUse" x1="206.881" y1="71.964" x2="173.501" y2="-52.61"><stop offset="0" stop-color="#A5A5A6"/><stop offset=".35" stop-color="#D7D7D7"/><stop offset=".65" stop-color="#D7D7D7"/><stop offset="1" stop-color="#A5A5A6"/></linearGradient><path fill="url(#y)" d="M286.084 78.995c-20.766 20.94-75.1 35.232-135.008 35.48-8.473.037-16.78-.19-24.854-.676 7.994.51 16.22.767 24.605.767 79.568 0 144.303-24.293 144.303-53.812 0-1.128-.104-2.245-.287-3.357.13.913.19 1.834.198 2.76.037 6.435-3.02 12.848-8.956 18.837"/><path fill="#FFF" d="M150.818 13.184c-75.44 0-136.594 21.28-136.594 47.54 0 26.258 61.155 47.542 136.594 47.542 75.432 0 136.58-21.284 136.58-47.54 0-26.263-61.148-47.542-136.58-47.542zm0 90.964c-72.787 0-131.788-19.435-131.788-43.424 0-23.986 59-43.42 131.788-43.42 72.793 0 131.788 19.434 131.788 43.42 0 23.99-58.995 43.424-131.788 43.424z"/><path fill="#FFF" d="M235.866 45.17c.188-.33-.007-.573-.425-.573-2.186 0-5.045.007-7.316.007-.543 0-.82.06-1.076.566-.84 1.61-11.063 16.927-12.966 19.903-.322.452-.715.393-.76-.124-.188-1.77-1.717-3.805-4.12-4.772-1.835-.745-3.625-.88-5.485-.63-3.363.45-6.357 2.23-8.993 4.225-3.97 3.02-7.395 6.928-11.814 9.82-2.412 1.57-5.72 2.943-7.927.895-2.004-1.853-1.774-5.976 1.282-9.165.322-.33.712-.057.65.246-.29 1.445.064 2.877 1.16 3.88 1.337 1.192 3.248 1.333 4.882.532 1.93-.954 3.066-2.804 3.4-4.896.51-3.258-1.995-6.126-5.13-6.355-2.543-.18-4.985.707-7.362 2.67-1.19.99-1.87 1.716-2.9 3.187-.253.362-.64.4-.626-.134.117-4.163-1.603-6.507-5.05-6.582-2.67-.068-5.524 1.388-7.75 3.16-2.44 1.955-4.57 4.554-6.863 6.994-.28.298-.53.285-.606-.297-.07-2.762-.765-5.435-2.04-7.333-.458-.66-1.405-.986-2.203-.54-.37.2-1.653.792-2.59 1.546-.46.383-.64.933-.44 1.64 1.233 4.13.962 8.812-.71 12.776-1.532 3.62-4.516 6.895-8.026 7.998-2.306.732-4.713.374-6.2-1.676-2.036-2.83-1.22-7.74 1.83-11.826 2.686-3.598 6.57-5.882 10.444-7.353.457-.18.552-.47.42-.858-.21-.636-.544-1.503-.682-1.898-.354-.943-1.353-1.1-2.57-.967-2.814.328-5.35 1.29-7.862 2.634-6.568 3.518-9.86 10.328-11.307 13.97-.693 1.753-1.29 2.842-2.06 3.812-1.036 1.3-2.332 2.487-4.712 4.575-.213.193-.37.59-.19.962.242.502 1.478 2.246 1.825 2.403.386.193.836-.074 1.018-.205 1.663-1.125 3.654-2.912 4.627-4.128.34-.415.692-.238.875.39.906 3.248 3.287 5.893 6.577 7 6.028 2.028 12.277-.91 16.99-6.027 2.997-3.256 4.08-5.35 5.228-6.77 1.947-2.413 5.79-7.812 10.362-11.275 1.68-1.278 3.667-2.252 4.662-1.604.8.52 1.06 1.722-.227 4.06-4.662 8.52-11.526 18.53-12.788 20.95-.228.423-.026.757.414.757 2.438-.012 4.86-.006 7.075-.006.37-.016.532-.187.718-.45 3.58-5.603 6.95-10.932 10.56-16.447.2-.32.387-.072.396.068.072 1.284.39 3.03 1.148 4.18 1.362 2.123 3.296 3.036 5.444 3.052 1.707.02 2.566-.24 4.41-.93 1.496-.555 2.7-1.282 3.622-1.946.536-.372.632.257.62.355-.827 4.447.19 9.72 4.613 11.9 5.296 2.61 11.107-1.055 14.448-4.364.33-.32.677-.288.712.4.07 1.27.642 2.767 1.688 3.812 2.798 2.813 8.457 1.698 14.127-2.693 3.647-2.814 7.46-6.788 10.908-10.994.12-.164.22-.43-.025-.69-.523-.548-1.283-1.176-1.804-1.662-.238-.2-.583-.14-.788.01-3.53 3.355-6.704 7.187-11.3 10.35-1.548 1.085-4.015 1.957-5.126.457-.43-.58-.382-1.392.042-2.447 1.343-3.34 22.546-35.62 23.644-37.523m-28.023 27.068c.045.248.367.486.684.6.108.045.172.12.044.38-.898 1.935-1.726 3.046-2.858 4.727-1.037 1.55-2.21 2.762-3.625 3.925-2.138 1.768-5.11 3.692-7.563 2.397-1.09-.56-1.56-2.088-1.538-3.326.055-3.473 1.593-7.037 4.445-10.54 3.482-4.286 7.33-6.507 9.853-5.296 2.61 1.246 1.777 4.27.61 6.647-.088.18-.097.34-.05.488"/><path fill="#FFF" d="M82.087 90.613c-7.905.056-14.865-4.833-15.666-13.287-.442-4.684.882-8.865 3.534-12.304 2.352-3.068 6.338-5.614 9.702-6.238 1.1-.2 2.575-.07 3.185.656.955 1.112.677 2.338-.273 2.82-2.572 1.314-5.668 3.563-7.196 6.63-1.24 2.5-1.493 5.526.4 8.4 3.178 4.79 12.024 4.925 20.25-2.72 2.04-1.872 3.862-3.67 5.72-5.795 3.622-4.148 4.825-5.66 9.64-12.34.062-.074.078-.174.052-.224-.04-.086-.11-.11-.25-.117-3.213.09-6.02 1.05-8.74 3.083-.786.57-1.916.49-2.41-.262-.55-.85-.156-1.96.75-2.585 4.38-3.047 9.17-3.602 14.06-4.43-.002 0 .343.014.62-.356 2.007-2.574 3.523-4.898 5.665-7.506 2.157-2.64 4.94-5.064 7.07-6.892 2.97-2.556 4.875-3.415 6.81-4.468.51-.268-.062-.587-.22-.587-10.81-2.028-22.043-4.66-32.776-.685-7.435 2.776-10.696 8.672-9.123 12.61 1.11 2.794 4.787 3.247 8.227 1.565 2.856-1.4 5.5-3.654 7.378-6.56 1.047-1.613 3.255-.45 2.062 2.354-3.14 7.382-9.14 13.238-16.448 13.48-6.223.206-10.238-4.37-10.222-10.016.022-11.138 12.424-18.473 25.45-19.572 15.692-1.294 30.554 2.886 46.13 4.775 11.94 1.445 23.383 1.474 35.38-1.28 1.416-.308 2.415.595 2.32 2.028-.12 2.072-1.722 4.065-5.672 6.22-4.496 2.467-9.193 3.212-14.103 3.255-11.876.097-22.94-4.53-34.384-7.016.016.5.147 1.098-.274 1.414-6.338 4.675-12.07 9.426-15.91 16.093-.126.156-.056.3.167.284 3.33-.174 6.33-.258 9.44-.507.54-.045.56-.18.516-.578-.274-2.298.396-4.92 2.418-6.726 2.068-1.853 4.66-2.064 6.376-.732 1.953 1.524 1.78 4.262.715 6.317-1.09 2.084-2.885 3.194-4.608 3.733 0 0-.36.082-.307.412.067.523 2.416 1.827 2.617 2.173.194.327.096.84-.265 1.23-.25.285-.638.553-1.133.547-.41-.01-.652-.15-1.166-.43-1.06-.57-2.37-1.507-3.252-2.616-.297-.373-.45-.383-1.2-.34-3.364.195-8.613.7-12.172 1.146-.858.108-.986.268-1.165.563-5.67 9.352-11.725 19.435-18.373 26.187-7.125 7.244-13.055 9.143-19.345 9.196m54.035-41.548c.093.477.277.57.495.53 1.08-.216 2.26-1.106 2.96-2.132.64-.934.936-2.284.304-2.826-.564-.483-1.483-.343-2.166.258-1.353 1.2-1.764 2.898-1.592 4.17"/></svg>