<svg xmlns="http://www.w3.org/2000/svg" version="1" width="1704.101" height="300"><g fill="#b2c9d9" fill-rule="evenodd"><path d="M110.46 71.54h-35.1l.197-37.48L23.6 41.794v28.954L0 74.318v23.004h24.392l-.198 100.94c.17 3.633 6.002 36.388 41.448 34.31 40.205-2.36 43.628-6.942 47.198-9.32-.283.293 0-19.634 0-19.634l-21.814.595s-12.296-.794-14.28-14.477c-.075.01-.396-92.017-.396-92.017l34.11.197V71.54zM185.968 0l-70.153 10.064.1 13.386 18.64 8.33.198 175.21-17.65 6.94.2 14.378 86.067.1v-14.28l-17.353-7.536.1-103.618s9.816-4.363 23.4-4.363c13.585 0 19.832 8.727 19.832 14.08v94.2l-15.866 7.04v14.477h85.87v-13.882l-17.65-8.627V99.702s.396-33.713-38.672-32.028c-23.77.144-40.604 7.635-57.163 20.724 0-.05 0-88.3.098-88.398zM396.588 133.8l-43.61 1.964s-.29-22.284 4.153-36.433c3.547-11.29 10.716-15.017 18.985-15.03 13.772-.02 17.214 7.702 18.763 17.19 2.227 13.654 1.86 32.16 1.71 32.31zm51.043 20.334h-94.513s-.56 45.872 48.24 46.205c20.612.14 40.244-5.75 40.244-5.75v14.794s-15.143 22.015-56.93 23.418c-52.894-.815-81.052-21.116-84.98-75.724-.42-33.795 8.21-86.085 76.565-89.325 69.754-3.306 73.37 51.81 71.376 86.38z"/></g><g fill="#00417b"><path d="M559.738 113.484v14.973s2.578 26.97-17.848 27.07c-20.427.1-19.832-15.667-19.832-27.07v-17.65s-1.19-25.582 18.146-25.68c19.335-.1 19.435 19.93 19.534 28.357zm63.063-47l-43.53 8.032s-22.606-8.23-38.67-8.23c-10.808 0-66.537 4.284-68.57 53.21-1.434 34.543 27.718 47.434 27.52 47.434-.2 0-27.764 17.055-27.962 38.274-.2 21.22 24.987 27.17 24.987 27.17.052-.52-38.08 5.788-38.076 31.73.003 23.996 39.662 35.695 81.704 35.894 42.042.198 88.25-11.7 88.25-61.477 0-49.776-48.39-44.025-48.39-44.025h-62.27s-9.32-.99-9.717-10.51c-.396-9.52 6.346-11.9 6.346-11.9s13.287 3.967 27.17 3.967c13.88 0 68.417-5.75 68.417-52.95 0-21.44-16.857-33.713-16.857-33.713l30.157 8.08-.51-30.986zM508.277 241.99s-7.04 4.66-7.04 15.965c0 11.304 10.312 23.005 39.067 23.005 28.755 0 42.736-10.01 42.736-26.773 0-10.91-12.395-12.295-12.395-12.295l-62.37.1zM698.457 67.377l-70.202 10.907v13.684l18.046 8.725v88.25s.94 43.338 43.432 43.827c34.506.396 51.76-23.6 51.76-23.6v23.203l68.02-8.13v-12.495l-17.382-10.035V67.773L722.255 78.68v13.09l18.443 9.32v94.198s-4.76 3.967-20.03 5.157c-15.27 1.19-22.21-13.287-22.21-13.287V67.378zM823.863 78.69s33.515-12.2 61.14-12.2 67.59 9.396 67.59 43.752v95.215l17.108 8.975v11.358s-12.2 6.59-30.148 6.59c-17.95 0-33.515-9.114-33.515-22.856-3.9.07-5.32 22.577-47.397 22.577-49.08 0-45.294-43.47-45.294-44.312 0-.84-1.41-32.45 34.356-39.263 35.338-6.73 51.744-9.396 51.744-9.396l-.172-31.973s-2.913-19.35-19.6-19.21c-16.687.14-16.547.28-16.547.28l-11.78 32.112h-27.624l.14-41.65zm76.916 119.826v-43.19s-35.2-3.155-35.27 25.03c-.05 21.22 13.284 23.7 19.353 23.7 6.942-.444 11.55-2.888 15.916-5.54zM1041.498 65.93l-68.572 10.798V91.03l17.67 8.415v106.152l-16.408 8.414v13.463h90.307v-12.9l-21.595-8.695.14-87.643s13.743-5.47 27.625-5.47c13.883 0 20.754 1.544 20.754 1.544V68.453s-29.387-9.204-50.203 31.832c0 .14.28-34.356.28-34.356zM1177.38 13.625v13.883l17.247 8.273v37.582s-12.06-5.75-26.643-5.75c-14.584 0-74.18 2.245-75.864 84.138-1.683 81.893 61.98 80.77 61.42 80.77-.56 0 29.168.843 42.63-16.546-.07 0-.14 16.477-.14 16.477l67.38-8.202v-13.322l-16.197-8.273-.14-199.966-69.694 10.938zm17.177 81.192V201.25s-5.56 2.805-15.916 2.805c-16.84 0-31.09-11.46-30.99-48.38.09-32.25 4.797-57.59 18.903-64.224 14.1-6.63 27.35 2.48 28.004 3.367z" fill-rule="evenodd"/><path d="M1340.198 28.805c0 15.818-12.838 28.656-28.657 28.656-15.817 0-28.655-12.837-28.655-28.655 0-15.818 12.838-28.656 28.656-28.656 15.82 0 28.658 12.837 28.658 28.655zm-1.19 37.778l-71.195 10.114V90.38l18.642 9.123V205.8l-17.055 7.733v14.477h85.67v-13.882l-16.26-7.932.198-139.613z"/><path d="M1371.508 78.514s33.515-12.2 61.14-12.2c27.624 0 67.59 9.395 67.59 43.75v95.216l17.107 8.975v11.358s-12.2 6.59-30.15 6.59c-17.948 0-33.513-9.114-33.513-22.856-3.9.07-5.32 22.577-47.397 22.577-49.08 0-45.294-43.47-45.294-44.312 0-.842-1.41-32.452 34.357-39.264 35.337-6.73 51.744-9.396 51.744-9.396l-.172-31.972s-2.912-19.35-19.6-19.21c-16.686.14-16.546.28-16.546.28l-11.78 32.112h-27.624l.14-41.648zm76.915 119.825v-43.19s-35.2-3.156-35.267 25.03c-.052 21.22 13.282 23.698 19.35 23.698 6.943-.443 11.55-2.887 15.917-5.54zM1589.873 66.187l-70.004 11.105V90.58l18.838 8.923v107.09l-17.253 6.94v14.874h85.67v-14.675l-15.864-7.536v-103.52s8.53-3.966 21.022-3.966c12.494 0 22.212 5.553 22.212 17.848v89.638l-17.578 8.637-.072 13.177h87.257v-14.08l-17.054-7.14v-99.354s1.19-39.663-39.067-39.663c-40.26 0-57.91 21.22-57.91 21.22l-.197-22.806z" fill-rule="evenodd"/></g></svg>