<svg xmlns="http://www.w3.org/2000/svg" height="56.18" viewBox="0 0 300.00001 56.179805" width="300"><defs><clipPath id="a"><path d="M106.55 591.874H235.84v27.246H106.55v-27.246z"/></clipPath></defs><g clip-path="url(#a)" transform="matrix(2.32 0 0 -2.32 -245.25 1438.66)"><path d="M123.047 607.02c-.015 0 0-7.775 0-7.775 0-.978-.84-1.835-1.94-1.835h-1.054v-.396h8.92v.396h-1.053c-1.085 0-1.94.87-1.94 1.835V616.567c0 .948.84 1.833 1.94 1.833h1.054v.398h-8.92v-.398h1.053c1.115 0 1.94-.885 1.94-1.833v-8.447h-10.57v8.447c0 .948.855 1.833 1.94 1.833h1.053v.398h-8.92v-.398h1.054c1.1 0 1.94-.885 1.94-1.833V599.245c0-.964-.84-1.835-1.94-1.835h-1.055v-.396h8.92v.396h-1.053c-1.085 0-1.94.87-1.94 1.835 0 0 .014 7.775 0 7.775h10.57zM144.262 602.714c.077-1.28-.717-3.223-1.818-4.215-1.058-.957-2.566-1.79-4.582-1.79-2.29 0-4.262 1.223-4.98 1.498-.435.167-1.005.15-1.345-.06-.397-.246-.64-.642-.733-1.376h-.336v7.547h.336c.306-2.323 1.39-3.687 2.063-4.462 1.1-1.268 3.177-1.986 5.178-1.665 1.59.255 3.33 1.98 3.14 4.117-.07.77-.238 1.893-1.84 2.94-1.007.658-2.436 1.59-3.79 2.49-1.71 1.133-3.26 2.36-3.696 2.857-.573.65-1.285 1.588-1.285 3.086 0 1.283.49 2.75 1.528 3.727 1.04.977 2.444 1.71 4.46 1.71 2.017 0 3.545-1.07 4.064-1.313s1.093-.187 1.42 0c.32.184.535.46.627 1.192h.336v-7.15h-.336c-.306 2.322-1.314 4.062-2.017 4.704-.702.642-2.077 1.528-4.124 1.13-1.964-.38-2.92-1.268-3.1-2.84-.14-1.198.51-1.935.885-2.383.764-.915 5.61-3.662 7.806-5.56 1.13-.977 2.017-2.14 2.138-4.186M151.364 598.246c1.51-.467 4.382-.826 6.384.61 2.402 1.718 2.908 5.92-.482 8.108-1.365.882-4.77.82-5.902.555v-9.274zm0 10.5c1.07-.273 4.217-.347 5.438.43 1.914 1.214 2.578 3.164 2.225 4.888-.212 1.036-.76 1.992-1.706 2.657-1.862 1.315-4.55 1.102-5.956.674v-8.647zm7.027-.61c3.884-1.332 4.99-4.073 4.27-6.897-.846-3.32-4.59-3.996-5.804-4.157-.548-.07-1.947-.065-3.33-.065-2.468-.003-5.59.005-8.097.005v.397h1.283c.816 0 1.748.688 1.748 1.726v17.392c0 1.04-.93 1.74-1.74 1.74h-1.283v.4h7.745c1.863 0 2.875-.18 3.53-.307 1.098-.212 4.307-1.16 5.07-4.153.59-2.318-.565-5.24-3.39-6.08M183.08 618.417l.313-7.378-.443-.017c-.214 1.865-.917 3.178-1.803 4.034-.255.246-.74.744-1.437 1.184-1.163.734-2.893 1.382-4.948 1.016-3.086-.55-4.675-2.59-5.47-4.552-.977-2.413-1.596-6.54.063-10.022 1.345-2.826 3.93-4.003 5.926-4.307 1.7-.26 5.47-.18 8.342 3.696l.458-.304c-2.23-3.147-5.194-5.163-8.585-5.132-4.338.038-7.064 2.43-8.31 3.85-1.314 1.496-2.322 4.337-2.335 6.812-.01 2.2.475 4.648 1.265 6.08 1.36 2.46 4.2 4.903 7.943 5.27 2.803.274 4.645-.275 6.22-1.176.785-.45 1.227-.503 1.655-.32.427.183.772.55.772 1.267h.374z" fill="#1a1818"/><path d="M223.224 597.016H201.46v21.76h21.764v-21.76z" fill="#FFF"/><path d="M190.575 607.896l10.883-10.882v21.765l-10.883-10.884zM201.46 597.014h21.765l-10.883 10.882-10.882-10.882z" fill="#e71d1c"/><path d="M212.342 607.896l10.883 10.883H201.46l10.882-10.884z" fill="#e71d1c"/><path d="M223.225 618.78v-21.766l10.883 10.882-10.883 10.883z" fill="#e71d1c"/></g></svg>