<svg xmlns="http://www.w3.org/2000/svg" width="246.222" height="81.736"><path d="M225.746 69.09c-13.028.084-25.367.188-28.807-.118-6.96-.605-11.612-5.158-12.15-11.857-.366-4.397-.366-8.04-.02-11.507.63-6.523 6.087-12.735 12.17-13.034 2.178-.117 8.005-.104 18.562-.06l30.72.06V19.832s-24.47-.026-31.826-.06c-9.873-.044-14.843-.05-17.99.06-6.928.266-12.73 2.732-17.237 7.31-4.275 4.326-6.824 11.208-7.202 18.174-.214 3.76-.286 8.67 0 11.59.71 7.494 3.136 13.373 7.2 17.49 4.346 4.424 10.96 7.227 17.244 7.312 5.158.065 49.81 0 49.81 0V68.972s-13.562.052-20.476.117M87.067 20.515v12.73h30.31v48.24h12.795v-48.24h30.31v-12.73H87.067zM73.78 44.587c-.092-6.855-2.512-12.735-7.2-17.49-4.893-4.976-12.353-7.044-17.238-7.304-4.247-.24-20.983-.163-24.912 0-5.535.234-9.568 1.886-11.59 3.395-.02.013-.04.006-.04-.026V0H0v81.708h12.78s-.253-33.446.034-37.088c.507-6.472 5.418-11.558 11.68-12.105 5.023-.43 20.093-.312 24.822.007 6.49.45 11.285 5.522 11.662 12.358.124 2.517-.006 36.828-.006 36.828H73.78s.032-34.18 0-37.12" fill="#8cc751"/></svg>