<svg xmlns="http://www.w3.org/2000/svg" version="1" width="800" height="144.748" viewBox="0 0 800 144.748"><path d="M435.23 135.01h103.235V122.4h-85.538V82.05h64.25V69.29h-64.25V32.115h85.538V19.55H435.23v115.46M488.878.887L474.9 16.59 518.78.886h-29.9M711.773 122.4V19.55h-16.136v115.46H800V122.4h-88.227M605.36 19.55L546.65 135.01h19.844l15.02-29.885h70.41l15.146 29.884h19.64L627.956 19.55H605.36m-16.414 71.103l27.664-55.148 27.988 55.148h-55.652zM379.21 86.73c26.45-7.058 29.02-26.74 28.887-33.775-1.58-20.626-15.476-33.404-40.447-33.404h-72.77v115.46h16.59V86.575h47.374l34.853 48.433h20.91c-.002 0-25.083-32.597-35.397-48.28m-13.825-13.796H311.47V33.217h55.794c12.846 0 20.072 5.997 22.675 13.615 1.72 5.222.617 12.077-2.232 16.744-4.663 7.716-13.52 9.358-22.323 9.358zM195.188 0c-46.828 0-78.745 33.017-78.745 72.98 0 42.07 35.257 71.768 78.745 71.768 43.46 0 78.702-29.275 78.702-71.77C273.89 33.02 241.578 0 195.188 0m-.562 130.416c-32.398 0-59.092-26.035-59.092-57.398 0-31.32 25.434-58.602 60.348-58.602 34.05 0 59.078 27.282 59.078 58.602 0 31.362-27.95 57.398-60.334 57.398zM74.663 60.396h11.97L108.36 19.55H90.876L74.663 60.397M16.145 122.4V19.55H0v115.46h104.36V122.4H16.144"/></svg>