<svg xmlns="http://www.w3.org/2000/svg" width="306.252" height="150.369" version="1"><g fill-rule="evenodd" stroke="#000"><path d="M23.103 130.42l61.878-1.306-7.833 14.364-62.69.435 8.646-13.493zM31.01 114.316l9.94-15.655 61.864-1.742-9.563 17.833-62.24-.434z" stroke-width=".912"/><path d="M103.262 96.906l8.27 19.586 60.458 2.713-60.023 5.12 5.658 19.153 100.108-.87c24.982.1 77.6-40.777 37.867-67.465 45.686-20.878 39.192-42.728 32.644-57.89-5.125-9.053-24.8-7.55-47.444-7.677-26.68-.148-55.235.97-58.322.28l-6.53 15.668 39.174 4.353-1.74 1.305-41.336 2.99-12.65 21.805 37.373 6.166-137.15 4.425-9.894 16.845 135.93 3.756-82.394 9.736z" stroke-width=".912"/><path d="M67.136 52.03l8.255-16.844 73.124-1.74 2.19 21.675-83.568-3.09zM91.945 7.68L86.287 21.17l58.76.87-1.307-13.057L91.945 7.68z" stroke-width=".912"/><path d="M184.22 112.14l14.797-26.55c42.156-1.963 21.28 38.03-14.798 26.55z" fill="#fff" stroke-width=".912"/><path d="M216.536 58.58l11.986-23.46c34.145-1.733 17.236 33.603-11.986 23.46z" fill="#fff" stroke-width=".772"/></g></svg>