<svg xmlns="http://www.w3.org/2000/svg" version="1" width="1024" height="456" viewBox="0 0 78.66629 35"><path fill="#00136f" d="M0 0h78.666v35H0z"/><path d="M63.97 10.22l-8.314 15.06h4.75l.72-1.53h5.655l.75 1.53h4.72l-.625-1.124L63.97 10.22zm-55.907.124V25.28H12.5v-5.5l7.28 6.47V11.437h-4.436v5.313l-7.28-6.406zM24 11.438V25.28h4.5V11.438H24zm5.344 0l7.843 14.5 7.876-14.5h-4.75l-3.126 6.187-3.062-6.188h-4.78zm16.468 0V25.28h8.782v-3.624h-4.282V19.5h4.282v-2.594h-4.282V15h4.282v-3.563h-8.782zm18.126 6.406l1.718 3.593H62.25l1.688-3.593z" fill="#fff" fill-rule="evenodd"/></svg>