<svg xmlns="http://www.w3.org/2000/svg" width="500" height="550" viewBox="0 0 500 550"><path fill-rule="evenodd" clip-rule="evenodd" fill="#0E1F7F" d="M106.12 208.266c0-62.003 34.183-122.416 102.545-122.416 69.156 0 104.132 58.824 104.132 122.416 0 62.797-31 122.418-104.132 122.418-71.542 0-102.544-61.21-102.544-122.418zm-63.592 0c0 105.724 60.413 179.652 166.137 179.652 106.52 0 167.727-73.928 167.727-179.652 0-102.543-62.004-178.855-167.727-178.855-104.928 0-166.137 76.313-166.137 178.856zM361.287 470.59v-24.643c12.72-11.926 62.004-53.26 62.004-79.495 0-13.513-11.923-19.87-23.05-19.87-12.72 0-24.643 5.563-34.183 11.926l-2.384-24.643c13.514-6.363 28.617-10.335 43.72-10.335 27.026 0 44.515 14.307 44.515 42.922 0 30.21-31 58.824-54.055 81.086h59.62v23.052h-96.186z"/></svg>