<svg xmlns="http://www.w3.org/2000/svg" width="300" height="149.144"><g fill="#e63129"><path d="M161.69.51c-.983.145-1.927 3.76-3.824 5.644-1.386 1.357-3.12 1.275-4.038 2.955-.35.624-.237 1.697-.63 2.723-.778 2.06-3.502 2.242-3.502 4.483-.01 2.422 2.27 2.882 4.25 4.603 1.543 1.38 1.69 2.332 3.56 3.004 1.597.54 3.97-1.23 6.11-.593 1.75.522 3.43.897 3.828 2.7.35 1.664-.025 4.237-2.153 3.94-.716-.082-3.828-1.127-7.645-.72-4.612.524-9.872 2.027-10.387 7.17-.284 2.87 3.27 6.257 6.703 5.568 2.372-.464 1.25-3.264 2.54-4.62 1.694-1.744 11.294 6.076 20.213 6.076 3.756 0 6.55-.95 9.325-3.855.26-.225.575-.7.976-.73.38.03 1.038.404 1.256.562 7.182 5.774 12.615 17.36 39.023 17.492 3.716.022 7.943 1.797 11.4 4.947 3.08 2.85 4.88 7.284 6.633 11.78 2.645 6.746 7.377 13.31 14.56 20.61.39.393 6.304 4.99 6.777 5.33.073.054.51 1.09.357 1.667-.174 4.382-.81 17.114 8.682 17.692 2.32.115 1.714-1.517 1.714-2.637-.006-2.22-.41-4.423.757-6.696 1.598-3.122-3.39-4.56-3.245-11.312.104-5.035-4.126-4.176-6.27-8.012-1.237-2.222-2.336-3.4-2.257-6.118.484-15.295-3.254-25.347-5.116-27.816-1.455-1.863-2.658-2.602-1.33-3.464 7.925-5.237 9.72-10.102 9.72-10.102 4.216-9.903 8.004-18.948 13.23-22.932 1.05-.824 3.75-2.838 5.403-3.627 4.878-2.3 7.44-3.694 8.86-5.07 2.237-2.182 4.01-6.737 1.86-9.497-2.67-3.406-7.288-.704-9.324.506-14.566 8.643-16.713 23.89-21.758 32.65-4.025 6.994-10.57 12.134-16.422 12.554-4.382.325-9.114-.562-13.82-2.63-11.452-5.02-17.715-11.5-19.2-12.647C215.43 29.718 191.55 6.27 172.2 5.315c0 0-2.402-4.81-3.005-4.887-1.414-.183-2.863 2.87-3.902 3.227-.975.322-2.616-3.306-3.6-3.145M76.505 140.434c-1.82-.044-3.368-1.537-3.368-3.384l.006-60.36H53.248v66.532c0 3.264 2.642 5.922 5.885 5.922H93.9c3.264 0 5.875-2.658 5.875-5.922V76.69H79.9l-.017 60.36c0 1.847-1.547 3.34-3.378 3.384M143.107 76.69h-30.104c-3.568 0-6.47 2.897-6.47 6.496v65.958h19.915V88.642c.013-1.854 1.512-3.322 3.365-3.322 1.857 0 3.35 1.434 3.39 3.27v60.554h19.83V88.59c.025-1.836 1.515-3.27 3.37-3.27 1.838 0 3.36 1.468 3.373 3.322v60.502h19.914V83.186c0-3.6-2.91-6.497-6.472-6.497h-30.11M39.98 130.938H19.88v18.206H0V76.69h40.106c3.59 0 6.393 2.916 6.393 6.525v41.19c0 3.622-2.915 6.533-6.52 6.533zm-13.35-42.17c.015-2.014-1.627-3.448-3.37-3.448h-3.378v36.646h3.378c1.756 0 3.385-1.395 3.37-3.403V88.768"/><path d="M213.068 149.144v-18.19h-6.76v18.19h-19.872V83.186c0-3.6 2.9-6.497 6.47-6.497h33.57c3.573 0 6.47 2.897 6.47 6.496v65.958H213.07zm0-27.165V88.615c-.047-1.843-1.53-3.26-3.387-3.26-1.837 0-3.352 1.473-3.37 3.314v33.31h6.758"/></g></svg>