<svg xmlns="http://www.w3.org/2000/svg" width="121.678" height="41.675" viewBox="0 0 121.678 41.675"><path fill="#004098" d="M106.05 25.003c21.245-10.89 18.586-21.296-3.034-23.443C79.724-.753 45.692 4.254 21.98 13.83l-3.288 1.41C-6.003 26.28-3.664 37.965 18.38 40.097c24.085 2.33 60.702-2.43 84.676-13.595l2.994-1.5"/><path fill="#FFF" d="M101.34 14.39c-4.55 0-4.03 3.47-4.03 3.47v6.343c.096 3.27 4.155 2.938 4.155 2.938 2.11 0 3.188-1.405 3.188-1.405.124-.094.47-.594.47-.594.323-.456.343-1.25.343-1.25v-3.718h-4.063v1.782h.875v1.875c0 .92-.813.968-.813.968-.962 0-.906-.906-.906-.906V17.36c0-.674.843-.72.843-.72.818 0 .813.814.813.814v1h3.156c.103-1.942-.28-2.406-.28-2.406-.783-1.76-3.752-1.658-3.752-1.658zm-80.53.03c-.915.022-2.833.215-3.5 1.47 0 0-.345.388-.345 1.688v.938s-.053 1.084.5 1.78c0 0 .324.465 1.094.97 0 0 1.56.83 2.5 1.313 0 0 .937.545.812 1.405 0 0-.086.88-1 .844 0 0-.813-.042-.813-.907v-1h-3.376v1.47s-.09 2.812 4.22 2.812c0 0 4.118.108 4.312-2.875v-1.22s.132-1.82-1.47-2.78c0 0-.844-.546-1.374-.75 0 0-1.644-.765-1.97-1.126 0 0-.62-.583-.25-1.28 0 0 .17-.47.845-.47 0 0 .875.06.875.78v1h3.125v-1.5s.26-2.453-3.688-2.562c0 0-.197-.008-.5 0zm41.217 0c-.914.022-2.83.215-3.5 1.47 0 0-.344.388-.344 1.688v.938s-.054 1.084.5 1.78c0 0 .322.465 1.094.97 0 0 1.563.83 2.5 1.313 0 0 .938.545.813 1.405 0 0-.055.88-.97.844 0 0-.843-.042-.843-.907v-1h-3.344v1.47s-.118 2.812 4.188 2.812c0 0 4.12.108 4.314-2.875v-1.22s.163-1.82-1.438-2.78c0 0-.877-.546-1.406-.75 0 0-1.613-.765-1.938-1.126 0 0-.653-.583-.28-1.28 0 0 .17-.47.843-.47 0 0 .875.06.875.78v1h3.125v-1.5s.26-2.453-3.688-2.562c0 0-.195-.008-.5 0zm8.125.376v8.97s-.35 3.374 4.438 3.374c0 0 4.156.066 4.156-3.22v-9.124h-3.344v9s.07 1-.844 1c0 0-.97.043-.97-.97l-.03-9.03h-3.406zm-39.78.032l-2.095 11.97h3.375l1.22-9.283h.28l1.22 9.282h3.343l-2.063-11.97h-5.28zm10.937.03l-.25 11.94h3.124l.03-9h.25l1.626 9h3.28l1.626-9h.22l.062 9h3.156l-.344-11.94h-5.22l-1.03 6.533h-.25l-1-6.53h-5.28zm41.717 0V26.8h3.094l-.187-7.314h.156l3.312 7.313h3.72V14.86h-3.157l.22 7.25h-.126l-3.22-7.25h-3.813z"/></svg>