<svg xmlns="http://www.w3.org/2000/svg" width="663" height="320"><path d="M338.4 97.243c.98-1.447 3.876-.49 5.943-.44 2.765.052 2.093 4.16 5.918 3.334 3.8-.827 3.85 3.618 9.304 3.463 5.453-.155-1.085 1.912-1.085 1.912s-3.387-1.628-5.583-.542c-1.137.568.44-.336-1.5-1.913-2.997-2.455-2.583.466-7.597-3.798-3.54-3.025-6.977.36-5.4-2.017" fill-rule="evenodd"/><path d="M297.466 102.85c-3.23-5.194-.827-11.68 2.842-18.01 2.688-4.627 9.846-6.694 16.1-4.24 7.003-5.53 8.683.414 14.885-2.273 8.14-3.54 3.592 9.355 11.474 12.636 3.256-8.708-7.443-15.246-.724-19.33 4.78-2.945 8.4-4.754 10.363-8.656 2.79-5.582 3.876-9.665 6.047-10.39 4.96-1.704 3.902-6.433 3.902-6.433s5.297 1.55 9.406-2.3c-3.15-1.706-7.725-3.153-6.537-6.538 1.422-3.98 12.094 4.11 15.22-2.404-6.33-2.765-12.79-8.76-16.667-10.155-2.662 2.894-4.315 1.73-7.727-.957-5.79-4.6-6.28-.232-9.898-3.385-2.894 5.79 1.473 5.324 2.79 6.797 3.722 4.083-3.772-3.67-3.048 6.718.206 2.714-3.8 3.205-6.745-2.635-1.552-3.05-13.852-2.404-15.713-5.324 1.706-3.384 16.177-15.452 38.427-12.558C329.56.698 285.89 14.575 285.45 19.407c-4.342 2.714-2.843 5.84-5.014 6.564-3.773 1.242-7.856 12.74-7.856 12.74s2.326 1.577-4.96 9.744c-6.023 6.744-7.806 16.926-7.806 16.926s3.98 7.287 3.23 15.686c-.568 6.383-.852 1.628 1.913 6.254 1.654 2.74 3.41 12.197 4.496 8.502 2.042-7.03-3.773-13.567-2.79-20.57.206.878 2.222-2.79 2.144.516-.206 8.657 10.647 25.325 10.647 25.325s-4.057 4.135.18 4.135l-1.06 2.558s3.128-.18 5.17 1.473c2.04 1.68 3.8 3.72 5.66 3.72h31.242s2.222-9.483 4.03-11.085c1.81-1.63-3.642 0-5.245-1.63-1.627-1.6-2.634 1.423-3.435 3.025-.802 1.628-1.81 4.445-4.24 5.246-2.402.827-8.242 1.214-9.457 1.214-1.214 0-4.832-6.9-4.832-6.9M443.834 204.306c-1.214-1.602.207-4.03.207-4.03h-88.094l9.794 8.578c2.17.853 4.884 3.024 6.125 6.33 2.946 7.806-1.422 1.474-1.422 13.258 0 10.854-3.05 9.097-3.05 9.097s-.67 12.79-7.286 20.672c-4.213 4.238-.957 7.753-.957 7.753s-1.42.8-3.488 10.078c-.672 3.023 3.204 7.65 6.538 6.486 2.506-.854-6.073-1.706 3.204-5.608 3.592-1.525.672-4.368.672-4.368s6.02-.49 9.432-9.587c5.996.88 3.773-2.79 16.1-5.453 3.282-.723 3.98-1.705 3.566-4.78-.413-3.076 4.03.44 16.28-12.043 9.64-9.844 6.177-12.04 12.844-15.633 7.03-3.747 7.675.336 10.052-2.74 5.375-7.002 3.49-6.537 5.737-11.008l1.577-2.482s3.385-2.894 2.17-4.522M382.253 110.32c-.077.98-1.163 1.162-1.938 1.162l-.414-1.964c.983-.078 1.578.388 2.353.8M375.224 108.743c-3.153.697-6.46 0-9.406 2.35-.207-.696-.982-1.86-1.964-1.575h-1.163c2.74-2.248-1.576-4.6 3.128-4.677 3.618.078 6.253 2.636 9.406 3.903"/><path d="M484.38 207.82C464.12 270.926 407.165 320 334.988 320c-76.57 0-128.02-48.428-148.694-110.81 21.526 58.118 80.007 99.8 148.798 99.8 69.308 0 128.175-42.328 149.288-101.17zm-298.422-96.26C206.322 48.633 254.49 0 334.988 0 409.8 0 464.766 49.28 484.716 112.93 463.913 53.62 404.786 10.827 335.092 10.827c-69.153 0-127.918 42.122-149.134 100.73" fill-rule="evenodd"/><path d="M65.69 126.96H41.14l3.67 4.368v32.225c0 7.262-4.807 10.31-11.965 10.31-7.158 0-11.965-3.048-11.965-10.31v-32.225l3.67-4.367H0l3.67 4.368v32.768c0 16.074 8.993 22.276 29.175 22.276 20.183 0 29.176-6.202 29.176-22.276v-32.768l3.67-4.367M150.89 126.96h-20.7l3.67 4.368v29.357l-29.69-33.724H85.56l3.67 4.368v49.54l-3.67 4.367h20.7l-3.67-4.368v-29.873l31.527 34.24h13.1V131.33l3.67-4.367M198.595 185.235l-3.67-4.368v-49.54l3.67-4.366H173.89l3.67 4.368v49.54l-3.67 4.367h24.705M280.126 126.96h-20.803l3.67 4.368-14.653 32.07-14.16-32.07 3.67-4.367h-24.474l27.186 58.275h12.146l27.418-58.274M349.537 185.235V169.42l-4.367 3.67H315.4V161.9h18.865l4.264 3.67v-18.943l-4.265 3.67H315.4v-11.19h29.77l4.367 3.67V126.96h-54.862l3.67 4.368v49.54l-3.67 4.367h54.862"/><path d="M433.058 185.235l-15.815-22.974c7.778-3.152 13.205-9.173 13.205-17.65 0-9.69-5.943-17.65-22.534-17.65h-36.36l3.67 4.368v49.54l-3.67 4.367h24.37l-3.67-4.368v-16.513h7.34l11.19 16.513-3.67 4.368h25.944zm-20.08-39.41c0 4.187-4.03 7.598-9.612 7.598h-11.112v-14.316h13.205c3.85 0 7.52 1.912 7.52 6.72" fill-rule="evenodd"/><path d="M506.863 168.18c0-9.252-7.443-14.395-18.193-17.884-6.977-2.196-16.85-3.773-16.85-8.398 0-2.274 2.714-3.85 7.418-3.85 6.305 0 16.616 2.635 24.653 6.46v-19.46l-4.65 4.446c-4.885-2.016-13.36-4.11-19.2-4.11-19.848 0-26.205 8.735-26.205 16.695 0 10.826 7.158 15.53 18.425 19.483 8.373 2.87 16.152 3.127 16.152 7.934 0 4.11-4.807 4.626-7.236 4.626-6.202 0-17.21-2.17-27.005-8.554v21.577l4.627-5.065c4.548 1.757 14.78 4.703 23.154 4.703 17.212 0 24.913-7.597 24.913-18.606"/><path d="M593.976 185.235l-28.66-58.274h-19.64l2.094 4.368-25.945 53.907h21.397l-3.67-4.368 2.895-6.124h27.78l2.79 6.124-3.67 4.368h24.63zm-28.04-20.984h-19.303l9.613-20.88 9.69 20.88" fill-rule="evenodd"/><path d="M663 185.235V169.42l-4.368 3.67h-28.038v-41.762l3.67-4.367h-24.37l3.67 4.368v49.54l-3.67 4.367H663"/></svg>