<svg xmlns="http://www.w3.org/2000/svg" version="1" width="791.429" height="320"><g fill="#231f20"><path d="M771.15 27.657c-5.458 12.8 5.14 33.08-10.13 37.057L286.6 63.124l-50.336 1.046-7.124 10.892-59.377 225.254-8.224 3.736-80.138-1.405-7.526-15.63C51.566 195.176 26.47 104.864 5 13.136c20.533-2.69 44.454-4.25 65.303.14 21.73 67.09 31.61 138.493 50.543 207.957l2.483 2.015 5.86-6.624 51.098-200.363 5.72-4.793 538.803.87c15.436 4.816 47.668-11 46.34 15.317"/><path d="M771.89 114.18c1.34 15.075-13.006 28.898-23.474 37.7-19.53-8.672-43.637-26.558-67.645-13.628-7.504 5.632-12.776 15.74-7.297 24.073 33.245 24.87 92.567 11.318 105.072 61.763 6.177 21.71 1.23 49.475-15.97 64.856-27.71 25.85-67.894 31.317-106.63 20.173-16.992-7.58-35.99-12.68-50.705-26.295 5.653-15.435 15.61-28.637 26.295-40.162 21.6 5.348 40.424 22.864 67.11 19.738 8.824-.142 19.924-6.242 24.28-15.675 3.15-37.58-44.845-23.06-66.924-33.757-22.46-5.38-40.205-24.542-44.627-46.022-4.347-22.46 1.873-43.996 19.02-58.44 40.15-27.46 103.306-23.126 141.497 5.675M588.51 103.264c1.6 64.53 1.327 131.542-.503 195.723-20.794 5.36-44.203.72-66.228.675-17.79-29.64-28.682-57.983-49.084-87.85-2.582-1.1-3.747 2.34-5.556 3.017l-1.677 82.86c-13.89 7.604-33.518.698-49.628 3.748l-3.54-10.926c.653-60.76-1.732-127.12 3.18-186.66 17.995-3.78 38.3-3.878 58.495-3.083l5.85 4.02 45.25 81.347 6.284-1.21c-1.558-23.975 3.66-54.333 2.342-80.966 15.555-6.633 38.212-3.005 54.813-.696M312.374 208.968c-1.373-16-7.963-31.458-14.662-45.314-9.074 12.472-8.747 30.14-12.67 44.802 7.42 6.808 19.14 3.453 27.332.512m47.983-56.84l36.284 146.86c-15.5 5.696-35.456 1.404-53.09 1.666-8.704-12.19-3.225-35.522-23.268-38.093-18.638 1.134-42.787-6.153-55.423 8.617l-8.694 30.097c-16.916 2.168-37.264 2.3-52.775-1.753 17.004-66.478 36.6-131.836 57.014-197.182 25.173-4.945 57.645-3.093 83.733-.033l16.22 49.824zM780.157 80.258c-.403-.185-.98-.283-1.742-.283h-.698v3.28h1.133c.708.02 1.242-.132 1.623-.372.392-.316.59-.773.59-1.383.01-.62-.317-1.046-.906-1.242m-5.315 8.92V78.102c.708-.02 1.72 0 3.104 0 1.373.023 2.146 0 2.266 0 .915.067 1.645.252 2.21.6.992.512 1.472 1.417 1.472 2.615 0 .947-.24 1.623-.763 2.004-.51.424-1.143.674-1.905.73.708.15 1.22.39 1.58.663.653.556 1.023 1.406 1.012 2.528l.01.97c-.01.11.034.218-.01.35 0 .086.044.216.044.304l.077.36-2.745-.055c-.087-.317-.152-.85-.174-1.537-.01-.643-.076-1.08-.196-1.34-.153-.403-.436-.686-.806-.84-.24-.064-.578-.14-1.035-.162h-.63l-.633-.02v3.92l-2.875-.01zm-1.416-11.305c-1.602 1.59-2.397 3.518-2.397 5.784 0 2.265.816 4.248 2.44 5.882 1.622 1.61 3.54 2.406 5.794 2.374 2.277.043 4.248-.807 5.882-2.42 1.57-1.622 2.386-3.593 2.386-5.837 0-2.266-.817-4.194-2.407-5.773-1.667-1.69-3.584-2.517-5.86-2.517-2.256 0-4.216.828-5.84 2.506m12.865 12.95c-1.972 1.875-4.303 2.844-7.026 2.822-2.832-.032-5.207-.98-7.146-2.897-1.895-1.928-2.832-4.335-2.875-7.135 0-2.92 1.056-5.36 3.148-7.276 1.962-1.852 4.238-2.734 6.896-2.767 2.745 0 5.152.98 7.048 2.93 1.982 2.004 2.952 4.346 2.952 7.113.01 2.854-.97 5.283-2.996 7.21"/></g></svg>