<svg width="2254" height="1379" viewBox="0 0 2254 1379" xmlns="http://www.w3.org/2000/svg"><title>cut_away_tri</title><g stroke-width="1.51" fill="none" fill-rule="evenodd"><path d="M2252 2h-125l125 125V2z" stroke="#9B537B" fill="#9B537B"/><path d="M2127 2v125h125L2127 2z" stroke="#A35E80" fill="#A35E80"/><path d="M2252 127h-125l125 125V127z" stroke="#AC637C" fill="#AC637C"/><path d="M2127 127v125h125l-125-125z" stroke="#B16E7E" fill="#B16E7E"/><path d="M2252 252h-125l125 125V252z" stroke="#B57780" fill="#B57780"/><path d="M2127 252v125h125l-125-125z" stroke="#B48587" fill="#B48587"/><path d="M2252 377h-125l125 125V377z" stroke="#B48E8F" fill="#B48E8F"/><path d="M2127 377v125h125l-125-125z" stroke="#B29B97" fill="#B29B97"/><path d="M2252 502h-125l125 125V502z" stroke="#B1A2A1" fill="#B1A2A1"/><path d="M2127 502v125h125l-125-125z" stroke="#AFABAA" fill="#AFABAA"/><path d="M2252 627h-125l125 125V627z" stroke="#AFAFB5" fill="#AFAFB5"/><path d="M2127 627v125h125l-125-125z" stroke="#ACB5B9" fill="#ACB5B9"/><path d="M2252 752h-125l125 125V752z" stroke="#A8ADAC" fill="#A8ADAC"/><path d="M2127 752v125h125l-125-125z" stroke="#A3B1A9" fill="#A3B1A9"/><path d="M2252 877h-125l125 125V877z" stroke="#94A6A9" fill="#94A6A9"/><path d="M2127 1127v125h125l-125-125z" stroke="#528CB2" fill="#528CB2"/><path d="M2252 1252h-125l125 125v-125z" stroke="#4678B5" fill="#4678B5"/><path d="M2127 2h-125l125 125V2z" stroke="#9A6482" fill="#9A6482"/><path d="M2002 2v125h125L2002 2z" stroke="#A46F83" fill="#A46F83"/><path d="M2127 127h-125l125 125V127z" stroke="#AB7482" fill="#AB7482"/><path d="M2002 127v125h125l-125-125z" stroke="#B27F80" fill="#B27F80"/><path d="M2002 1002v125l125-125h-125z" stroke="#71B1B0" fill="#71B1B0"/><path d="M2127 502h-125l125 125V502z" stroke="#ADB2A7" fill="#ADB2A7"/><path d="M2002 502v125h125l-125-125z" stroke="#AEBBAD" fill="#AEBBAD"/><path d="M2127 627h-125l125 125V627z" stroke="#A9BEBC" fill="#A9BEBC"/><path d="M2002 627v125h125l-125-125z" stroke="#A9C5BC" fill="#A9C5BC"/><path d="M2002 1002h125V877l-125 125z" stroke="#83B2B1" fill="#83B2B1"/><path d="M2002 877v125l125-125h-125z" stroke="#8FBBAE" fill="#8FBBAE"/><path d="M2127 752h-125l125 125V752z" stroke="#A1BDB3" fill="#A1BDB3"/><path d="M2002 752v125h125l-125-125z" stroke="#A0C1AC" fill="#A0C1AC"/><path d="M2127 252h-125l125 125V252z" stroke="#B38786" fill="#B38786"/><path d="M2002 252v125h125l-125-125z" stroke="#B5958A" fill="#B5958A"/><path d="M2002 502h125V377l-125 125z" stroke="#B0A59B" fill="#B0A59B"/><path d="M2002 377v125l125-125h-125z" stroke="#B3A494" fill="#B3A494"/><path d="M2002 2h-125l125 125V2z" stroke="#A2757C" fill="#A2757C"/><path d="M1877 2v125h125L1877 2z" stroke="#AC807D" fill="#AC807D"/><path d="M2002 127h-125l125 125V127z" stroke="#B3857D" fill="#B3857D"/><path d="M1877 127v125h125l-125-125z" stroke="#BA8F79" fill="#BA8F79"/><path d="M1877 502h125V377l-125 125z" stroke="#B7B595" fill="#B7B595"/><path d="M1877 377v125l125-125h-125z" stroke="#BBB48D" fill="#BBB48D"/><path d="M2002 252h-125l125 125V252z" stroke="#BA9880" fill="#BA9880"/><path d="M1877 252v125h125l-125-125z" stroke="#BCA583" fill="#BCA583"/><path d="M2002 502h-125l125 125V502z" stroke="#B4C2A1" fill="#B4C2A1"/><path d="M1877 502v125h125l-125-125z" stroke="#B5CBA6" fill="#B5CBA6"/><path d="M2002 627h-125l125 125V627z" stroke="#B1CFB6" fill="#B1CFB6"/><path d="M1877 627v125h125l-125-125z" stroke="#B1D5B5" fill="#B1D5B5"/><path d="M2002 752h-125l125 125V752z" stroke="#A9CDAD" fill="#A9CDAD"/><path d="M1877 752v125h125l-125-125z" stroke="#A8D1A5" fill="#A8D1A5"/><path d="M2002 877h-125l125 125V877z" stroke="#94C5AA" fill="#94C5AA"/><path d="M1877 877v125h125l-125-125z" stroke="#8DC8A9" fill="#8DC8A9"/><path d="M2002 1002h-125l125 125v-125z" stroke="#77BBAB" fill="#77BBAB"/><path d="M1877 1002v125h125l-125-125z" stroke="#6FBDAA" fill="#6FBDAA"/><path d="M1877 1252v125l125-125h-125z" stroke="#4B9AB5" fill="#4B9AB5"/><path d="M2002 1127h-125l125 125v-125z" stroke="#5AADAE" fill="#5AADAE"/><path d="M1877 1127v125h125l-125-125z" stroke="#57AAB0" fill="#57AAB0"/><path d="M1877 2h-125l125 125V2z" stroke="#AA8476" fill="#AA8476"/><path d="M1752 2v125h125L1752 2z" stroke="#B68C78" fill="#B68C78"/><path d="M1877 127h-125l125 125V127z" stroke="#BA9576" fill="#BA9576"/><path d="M1752 127v125h125l-125-125z" stroke="#C39C74" fill="#C39C74"/><path d="M1877 252h-125l125 125V252z" stroke="#C1A879" fill="#C1A879"/><path d="M1752 252v125h125l-125-125z" stroke="#C6B27E" fill="#C6B27E"/><path d="M1752 627h125V502l-125 125z" stroke="#BAD6A1" fill="#BAD6A1"/><path d="M1752 502v125l125-125h-125z" stroke="#C0D599" fill="#C0D599"/><path d="M1877 377h-125l125 125V377z" stroke="#BFBF88" fill="#BFBF88"/><path d="M1752 377v125h125l-125-125z" stroke="#C3C88D" fill="#C3C88D"/><path d="M1877 627h-125l125 125V627z" stroke="#B8DFAF" fill="#B8DFAF"/><path d="M1752 627v125h125l-125-125z" stroke="#BCE3B0" fill="#BCE3B0"/><path d="M1877 752h-125l125 125V752z" stroke="#B0DDA5" fill="#B0DDA5"/><path d="M1752 752v125h125l-125-125z" stroke="#B2DEA0" fill="#B2DEA0"/><path d="M1877 877h-125l125 125V877z" stroke="#9BD5A2" fill="#9BD5A2"/><path d="M1752 877v125h125l-125-125z" stroke="#98D4A4" fill="#98D4A4"/><path d="M1752 1252h125v-125l-125 125z" stroke="#5EB4AB" fill="#5EB4AB"/><path d="M1752 1127v125l125-125h-125z" stroke="#6BBFA8" fill="#6BBFA8"/><path d="M1877 1002h-125l125 125v-125z" stroke="#7FCAA5" fill="#7FCAA5"/><path d="M1752 1002v125h125l-125-125z" stroke="#7BC9A5" fill="#7BC9A5"/><path d="M1877 1252h-125l125 125v-125z" stroke="#54A4B1" fill="#54A4B1"/><path d="M1752 1252v125h125l-125-125z" stroke="#639EAE" fill="#639EAE"/><path d="M1752 2h-125l125 125V2z" stroke="#B88B76" fill="#B88B76"/><path d="M1627 2v125h125L1627 2z" stroke="#C49278" fill="#C49278"/><path d="M1752 127h-125l125 125V127z" stroke="#C89B75" fill="#C89B75"/><path d="M1627 127v125h125l-125-125z" stroke="#D1A274" fill="#D1A274"/><path d="M1752 252h-125l125 125V252z" stroke="#CFAF79" fill="#CFAF79"/><path d="M1627 252v125h125l-125-125z" stroke="#D4B87D" fill="#D4B87D"/><path d="M1752 377h-125l125 125V377z" stroke="#CEC687" fill="#CEC687"/><path d="M1627 377v125h125l-125-125z" stroke="#D1CE8C" fill="#D1CE8C"/><path d="M1752 502h-125l125 125V502z" stroke="#CAD999" fill="#CAD999"/><path d="M1627 502v125h125l-125-125z" stroke="#CFDFA0" fill="#CFDFA0"/><path d="M1752 627h-125l125 125V627z" stroke="#C8E6AF" fill="#C8E6AF"/><path d="M1627 627v125h125l-125-125z" stroke="#CCEAAF" fill="#CCEAAF"/><path d="M1752 752h-125l125 125V752z" stroke="#C0E4A5" fill="#C0E4A5"/><path d="M1627 752v125h125l-125-125z" stroke="#C1E59F" fill="#C1E59F"/><path d="M1752 877h-125l125 125V877z" stroke="#ACDCA2" fill="#ACDCA2"/><path d="M1627 877v125h125l-125-125z" stroke="#A8DBA3" fill="#A8DBA3"/><path d="M1752 1002h-125l125 125v-125z" stroke="#91D2A5" fill="#91D2A5"/><path d="M1627 1002v125h125l-125-125z" stroke="#8DD0A5" fill="#8DD0A5"/><path d="M1752 1127h-125l125 125v-125z" stroke="#78C4A8" fill="#78C4A8"/><path d="M1627 1127v125h125l-125-125z" stroke="#7ABDAB" fill="#7ABDAB"/><path d="M1752 1252h-125l125 125v-125z" stroke="#6BABB2" fill="#6BABB2"/><path d="M1627 2h-125l125 125V2z" stroke="#C59175" fill="#C59175"/><path d="M1502 2v125h125L1502 2z" stroke="#D19876" fill="#D19876"/><path d="M1627 127h-125l125 125V127z" stroke="#D5A174" fill="#D5A174"/><path d="M1502 127v125h125l-125-125z" stroke="#DEA872" fill="#DEA872"/><path d="M1627 252h-125l125 125V252z" stroke="#DDB577" fill="#DDB577"/><path d="M1502 252v125h125l-125-125z" stroke="#E1BF7B" fill="#E1BF7B"/><path d="M1627 377h-125l125 125V377z" stroke="#DCCD86" fill="#DCCD86"/><path d="M1502 377v125h125l-125-125z" stroke="#DFD58B" fill="#DFD58B"/><path d="M1627 502h-125l125 125V502z" stroke="#D9E098" fill="#D9E098"/><path d="M1502 502v125h125l-125-125z" stroke="#DEE69E" fill="#DEE69E"/><path d="M1627 627h-125l125 125V627z" stroke="#D8EDAD" fill="#D8EDAD"/><path d="M1502 627v125h125l-125-125z" stroke="#DBF1AD" fill="#DBF1AD"/><path d="M1627 752h-125l125 125V752z" stroke="#CFECA4" fill="#CFECA4"/><path d="M1502 752v125h125l-125-125z" stroke="#D1EC9D" fill="#D1EC9D"/><path d="M1502 1127h125v-125l-125 125z" stroke="#99D5A4" fill="#99D5A4"/><path d="M1502 1002v125l125-125h-125z" stroke="#A7DBA3" fill="#A7DBA3"/><path d="M1627 877h-125l125 125V877z" stroke="#BCE4A1" fill="#BCE4A1"/><path d="M1502 877v125h125l-125-125z" stroke="#B9E2A2" fill="#B9E2A2"/><path d="M1627 1127h-125l125 125v-125z" stroke="#8BCBA7" fill="#8BCBA7"/><path d="M1502 2h-125l125 125V2z" stroke="#D29672" fill="#D29672"/><path d="M1377 2v125h125L1377 2z" stroke="#DE9E74" fill="#DE9E74"/><path d="M1502 127h-125l125 125V127z" stroke="#E2A771" fill="#E2A771"/><path d="M1377 127v125h125l-125-125z" stroke="#EBAE6F" fill="#EBAE6F"/><path d="M1502 252h-125l125 125V252z" stroke="#EABA74" fill="#EABA74"/><path d="M1377 252v125h125l-125-125z" stroke="#EFC578" fill="#EFC578"/><path d="M1377 1127v125l125-125h-125z" stroke="#A2D3A3" fill="#A2D3A3"/><path d="M1502 627h-125l125 125V627z" stroke="#E7F3AA" fill="#E7F3AA"/><path d="M1377 627v125h125l-125-125z" stroke="#EBF7AA" fill="#EBF7AA"/><path d="M1502 752h-125l125 125V752z" stroke="#DFF2A0" fill="#DFF2A0"/><path d="M1377 752v125h125l-125-125z" stroke="#E0F39A" fill="#E0F39A"/><path d="M1377 1127h125v-125l-125 125z" stroke="#AADBA1" fill="#AADBA1"/><path d="M1377 1002v125l125-125h-125z" stroke="#B8E1A0" fill="#B8E1A0"/><path d="M1502 877h-125l125 125V877z" stroke="#CCE99E" fill="#CCE99E"/><path d="M1377 877v125h125l-125-125z" stroke="#C8E99F" fill="#C8E99F"/><path d="M1502 377h-125l125 125V377z" stroke="#EAD283" fill="#EAD283"/><path d="M1377 377v125h125l-125-125z" stroke="#EEDB87" fill="#EEDB87"/><path d="M1377 627h125V502l-125 125z" stroke="#E8EA9C" fill="#E8EA9C"/><path d="M1377 502v125l125-125h-125z" stroke="#ECE993" fill="#ECE993"/><path d="M1377 2h-125l125 125V2z" stroke="#DE9A73" fill="#DE9A73"/><path d="M1252 2v125h125L1252 2z" stroke="#E8A178" fill="#E8A178"/><path d="M1377 127h-125l125 125V127z" stroke="#EEAB71" fill="#EEAB71"/><path d="M1252 127v125h125l-125-125z" stroke="#F5B173" fill="#F5B173"/><path d="M1377 252h-125l125 125V252z" stroke="#F6BF74" fill="#F6BF74"/><path d="M1252 252v125h125l-125-125z" stroke="#F9C87C" fill="#F9C87C"/><path d="M1377 377h-125l125 125V377z" stroke="#F6D783" fill="#F6D783"/><path d="M1252 377v125h125l-125-125z" stroke="#F8DF8C" fill="#F8DF8C"/><path d="M1377 502h-125l125 125V502z" stroke="#F4EC94" fill="#F4EC94"/><path d="M1252 502v125h125l-125-125z" stroke="#F7F19F" fill="#F7F19F"/><path d="M1377 627h-125l125 125V627z" stroke="#F4F9AB" fill="#F4F9AB"/><path d="M1252 627v125h125l-125-125z" stroke="#F5FBAF" fill="#F5FBAF"/><path d="M1377 752h-125l125 125V752z" stroke="#ECF7A1" fill="#ECF7A1"/><path d="M1252 752v125h125l-125-125z" stroke="#EBF79F" fill="#EBF79F"/><path d="M1377 877h-125l125 125V877z" stroke="#D9EF9E" fill="#D9EF9E"/><path d="M1252 877v125h125l-125-125z" stroke="#D3EDA3" fill="#D3EDA3"/><path d="M1377 1002h-125l125 125v-125z" stroke="#C0E4A1" fill="#C0E4A1"/><path d="M1252 1002v125h125l-125-125z" stroke="#BAE2A5" fill="#BAE2A5"/><path d="M1377 1127h-125l125 125v-125z" stroke="#ABD6A5" fill="#ABD6A5"/><path d="M1252 1127v125h125l-125-125z" stroke="#A9CEAC" fill="#A9CEAC"/><path d="M1252 1252h125l-125 125v-125z" stroke="#9FBCAF" fill="#9FBCAF"/><path d="M1252 2h-125l125 125V2z" stroke="#E49D7C" fill="#E49D7C"/><path d="M1127 2v125h125L1127 2z" stroke="#EEA381" fill="#EEA381"/><path d="M1252 127h-125l125 125V127z" stroke="#F4AE7B" fill="#F4AE7B"/><path d="M1127 127v125h125l-125-125z" stroke="#FBB37D" fill="#FBB37D"/><path d="M1252 252h-125l125 125V252z" stroke="#FCC27E" fill="#FCC27E"/><path d="M1127 252v125h125l-125-125z" stroke="#FFCB86" fill="#FFCB86"/><path d="M1252 377h-125l125 125V377z" stroke="#FCDA8D" fill="#FCDA8D"/><path d="M1127 377v125h125l-125-125z" stroke="#FEE196" fill="#FEE196"/><path d="M1252 752h-125l125 125V752z" stroke="#F2FAAB" fill="#F2FAAB"/><path d="M1127 752v125h125l-125-125z" stroke="#F1F9A9" fill="#F1F9A9"/><path d="M1252 877h-125l125 125V877z" stroke="#DFF2A8" fill="#DFF2A8"/><path d="M1127 877v125h125l-125-125z" stroke="#D9F0AD" fill="#D9F0AD"/><path d="M1127 1252h125v-125l-125 125z" stroke="#ACD0B2" fill="#ACD0B2"/><path d="M1127 1127v125l125-125h-125z" stroke="#B3DAB1" fill="#B3DAB1"/><path d="M1252 1002h-125l125 125v-125z" stroke="#C6E8AB" fill="#C6E8AB"/><path d="M1127 1002v125h125l-125-125z" stroke="#C0E5AF" fill="#C0E5AF"/><path d="M1252 1252h-125l125 125v-125z" stroke="#A5BFB9" fill="#A5BFB9"/><path d="M1127 1252v125h125l-125-125z" stroke="#AAB7B9" fill="#AAB7B9"/><path d="M1252 502h-125l125 125V502z" stroke="#FBEF9E" fill="#FBEF9E"/><path d="M1127 502v125h125l-125-125z" stroke="#FDF3A9" fill="#FDF3A9"/><path d="M1127 752h125V627l-125 125z" stroke="#F9FDB6" fill="#F9FDB6"/><path d="M1127 627v125l125-125h-125z" stroke="#FDFCB8" fill="#FDFCB8"/><path d="M1002 1377h125v-125l-125 125z" stroke="#ADB6B8" fill="#ADB6B8"/><path d="M1002 1252v125l125-125h-125z" stroke="#AABBB7" fill="#AABBB7"/><path d="M1002 1252h125v-125l-125 125z" stroke="#B1CFB4" fill="#B1CFB4"/><path d="M1002 1127v125l125-125h-125z" stroke="#B6D5AC" fill="#B6D5AC"/><path d="M1002 1127h125v-125l-125 125z" stroke="#C3E3AE" fill="#C3E3AE"/><path d="M1002 1002v125l125-125h-125z" stroke="#CCE4A9" fill="#CCE4A9"/><path d="M1002 1002h125V877l-125 125z" stroke="#DBEEAC" fill="#DBEEAC"/><path d="M1002 877v125l125-125h-125z" stroke="#E4EEA6" fill="#E4EEA6"/><path d="M1002 877h125V752l-125 125z" stroke="#F3F8A8" fill="#F3F8A8"/><path d="M1002 752v125l125-125h-125z" stroke="#F7F6A9" fill="#F7F6A9"/><path d="M1002 752h125V627l-125 125z" stroke="#FEFCB8" fill="#FEFCB8"/><path d="M1002 627v125l125-125h-125z" stroke="#FFF7B2" fill="#FFF7B2"/><path d="M1002 627h125V502l-125 125z" stroke="#FFF1A8" fill="#FFF1A8"/><path d="M1002 502v125l125-125h-125z" stroke="#FFEA9C" fill="#FFEA9C"/><path d="M1002 502h125V377l-125 125z" stroke="#FFE095" fill="#FFE095"/><path d="M1002 377v125l125-125h-125z" stroke="#FFD68B" fill="#FFD68B"/><path d="M1002 377h125V252l-125 125z" stroke="#FFC985" fill="#FFC985"/><path d="M1002 252v125l125-125h-125z" stroke="#FFBD7C" fill="#FFBD7C"/><path d="M1002 252h125V127l-125 125z" stroke="#FDB27C" fill="#FDB27C"/><path d="M1002 127v125l125-125h-125z" stroke="#F8A979" fill="#F8A979"/><path d="M1002 127h125V2l-125 125z" stroke="#EFA180" fill="#EFA180"/><path d="M1002 2v125L1127 2h-125z" stroke="#E7987A" fill="#E7987A"/><path d="M1002 1002H877l125 125v-125z" stroke="#CDDE9F" fill="#CDDE9F"/><path d="M877 1002v125h125l-125-125z" stroke="#C5D89B" fill="#C5D89B"/><path d="M1002 2H877l125 125V2z" stroke="#E69371" fill="#E69371"/><path d="M877 2v125h125L877 2z" stroke="#ED966F" fill="#ED966F"/><path d="M1002 127H877l125 125V127z" stroke="#F6A470" fill="#F6A470"/><path d="M877 127v125h125L877 127z" stroke="#FAA76A" fill="#FAA76A"/><path d="M1002 252H877l125 125V252z" stroke="#FFB873" fill="#FFB873"/><path d="M877 252v125h125L877 252z" stroke="#FEBE73" fill="#FEBE73"/><path d="M1002 377H877l125 125V377z" stroke="#FFD181" fill="#FFD181"/><path d="M877 377v125h125L877 377z" stroke="#FED582" fill="#FED582"/><path d="M1002 502H877l125 125V502z" stroke="#FFE593" fill="#FFE593"/><path d="M877 502v125h125L877 502z" stroke="#FFE696" fill="#FFE696"/><path d="M1002 627H877l125 125V627z" stroke="#FFF2A9" fill="#FFF2A9"/><path d="M877 627v125h125L877 627z" stroke="#FDF1A5" fill="#FDF1A5"/><path d="M877 1002h125V877l-125 125z" stroke="#DCE69E" fill="#DCE69E"/><path d="M877 877v125l125-125H877z" stroke="#E4E698" fill="#E4E698"/><path d="M1002 752H877l125 125V752z" stroke="#F7F19F" fill="#F7F19F"/><path d="M877 752v125h125L877 752z" stroke="#F3ED95" fill="#F3ED95"/><path d="M1002 1127H877l125 125v-125z" stroke="#B8D0A3" fill="#B8D0A3"/><path d="M877 1127v125h125l-125-125z" stroke="#B4C5A3" fill="#B4C5A3"/><path d="M1002 1252H877l125 125v-125z" stroke="#ACB6AE" fill="#ACB6AE"/><path d="M877 2H752l125 125V2z" stroke="#E48866" fill="#E48866"/><path d="M752 2v125h125L752 2z" stroke="#EB8A64" fill="#EB8A64"/><path d="M877 127H752l125 125V127z" stroke="#F49964" fill="#F49964"/><path d="M752 127v125h125L752 127z" stroke="#F89A5F" fill="#F89A5F"/><path d="M752 1127h125v-125l-125 125z" stroke="#C6D194" fill="#C6D194"/><path d="M752 1002v125l125-125H752z" stroke="#CED08F" fill="#CED08F"/><path d="M877 502H752l125 125V502z" stroke="#FEDB86" fill="#FEDB86"/><path d="M752 502v125h125L752 502z" stroke="#FFDA8A" fill="#FFDA8A"/><path d="M877 627H752l125 125V627z" stroke="#FFE89C" fill="#FFE89C"/><path d="M752 627v125h125L752 627z" stroke="#FEE59A" fill="#FEE59A"/><path d="M752 1002h125V877l-125 125z" stroke="#DDDC92" fill="#DDDC92"/><path d="M752 877v125l125-125H752z" stroke="#E5DA8C" fill="#E5DA8C"/><path d="M877 752H752l125 125V752z" stroke="#F7E792" fill="#F7E792"/><path d="M752 752v125h125L752 752z" stroke="#F4E189" fill="#F4E189"/><path d="M877 1127H752l125 125v-125z" stroke="#BAC797" fill="#BAC797"/><path d="M877 252H752l125 125V252z" stroke="#FDAE66" fill="#FDAE66"/><path d="M752 252v125h125L752 252z" stroke="#FDB268" fill="#FDB268"/><path d="M752 502h125V377L752 502z" stroke="#FECE7A" fill="#FECE7A"/><path d="M752 377v125l125-125H752z" stroke="#FEC271" fill="#FEC271"/><path d="M752 2H627l125 125V2z" stroke="#E37A5B" fill="#E37A5B"/><path d="M627 2v125h125L627 2z" stroke="#E97C5A" fill="#E97C5A"/><path d="M752 127H627l125 125V127z" stroke="#F38B5A" fill="#F38B5A"/><path d="M627 127v125h125L627 127z" stroke="#F78D55" fill="#F78D55"/><path d="M752 252H627l125 125V252z" stroke="#FCA05C" fill="#FCA05C"/><path d="M627 252v125h125L627 252z" stroke="#FCA55D" fill="#FCA55D"/><path d="M752 377H627l125 125V377z" stroke="#FEB96A" fill="#FEB96A"/><path d="M627 377v125h125L627 377z" stroke="#FEBC6C" fill="#FEBC6C"/><path d="M752 502H627l125 125V502z" stroke="#FFCE7B" fill="#FFCE7B"/><path d="M627 502v125h125L627 502z" stroke="#FFCE7F" fill="#FFCE7F"/><path d="M752 627H627l125 125V627z" stroke="#FFDA91" fill="#FFDA91"/><path d="M627 627v125h125L627 627z" stroke="#FFD88E" fill="#FFD88E"/><path d="M752 752H627l125 125V752z" stroke="#F8D987" fill="#F8D987"/><path d="M627 752v125h125L627 752z" stroke="#F5D47E" fill="#F5D47E"/><path d="M752 877H627l125 125V877z" stroke="#E6D285" fill="#E6D285"/><path d="M627 877v125h125L627 877z" stroke="#DFCB83" fill="#DFCB83"/><path d="M752 1002H627l125 125v-125z" stroke="#D0C888" fill="#D0C888"/><path d="M627 2H502l125 125V2z" stroke="#E06A52" fill="#E06A52"/><path d="M502 2v125h125L502 2z" stroke="#E76A52" fill="#E76A52"/><path d="M627 127H502l125 125V127z" stroke="#F17C51" fill="#F17C51"/><path d="M502 127v125h125L502 127z" stroke="#F47B4C" fill="#F47B4C"/><path d="M627 252H502l125 125V252z" stroke="#FA9152" fill="#FA9152"/><path d="M502 252v125h125L502 252z" stroke="#FB9454" fill="#FB9454"/><path d="M627 627H502l125 125V627z" stroke="#FFCC87" fill="#FFCC87"/><path d="M502 627v125h125L502 627z" stroke="#FFC885" fill="#FFC885"/><path d="M627 752H502l125 125V752z" stroke="#F8CB7D" fill="#F8CB7D"/><path d="M502 752v125h125L502 752z" stroke="#F5C475" fill="#F5C475"/><path d="M502 1127h125v-125l-125 125z" stroke="#CAB77F" fill="#CAB77F"/><path d="M502 1002v125l125-125H502z" stroke="#D2B57B" fill="#D2B57B"/><path d="M627 877H502l125 125V877z" stroke="#E7C47B" fill="#E7C47B"/><path d="M502 877v125h125L502 877z" stroke="#E0BC7A" fill="#E0BC7A"/><path d="M502 1252v125l125-125H502z" stroke="#B28D8A" fill="#B28D8A"/><path d="M627 1127H502l125 125v-125z" stroke="#BEAC82" fill="#BEAC82"/><path d="M502 1127v125h125l-125-125z" stroke="#BA9E83" fill="#BA9E83"/><path d="M627 377H502l125 125V377z" stroke="#FDAB60" fill="#FDAB60"/><path d="M502 377v125h125L502 377z" stroke="#FDAC63" fill="#FDAC63"/><path d="M502 627h125V502L502 627z" stroke="#FFC379" fill="#FFC379"/><path d="M502 502v125l125-125H502z" stroke="#FEBA6F" fill="#FEBA6F"/><path d="M502 2H377l125 125V2z" stroke="#DD574B" fill="#DD574B"/><path d="M377 2v125h125L377 2z" stroke="#E4574A" fill="#E4574A"/><path d="M502 127H377l125 125V127z" stroke="#EE6949" fill="#EE6949"/><path d="M377 127v125h125L377 127z" stroke="#F16945" fill="#F16945"/><path d="M502 252H377l125 125V252z" stroke="#F7804B" fill="#F7804B"/><path d="M377 252v125h125L377 252z" stroke="#F8834D" fill="#F8834D"/><path d="M502 377H377l125 125V377z" stroke="#FB9A59" fill="#FB9A59"/><path d="M377 377v125h125L377 377z" stroke="#FB9C5B" fill="#FB9C5B"/><path d="M502 502H377l125 125V502z" stroke="#FDAF6A" fill="#FDAF6A"/><path d="M377 502v125h125L377 502z" stroke="#FEAE6E" fill="#FEAE6E"/><path d="M502 627H377l125 125V627z" stroke="#FFBC7F" fill="#FFBC7F"/><path d="M377 627v125h125L377 627z" stroke="#FFB87D" fill="#FFB87D"/><path d="M502 752H377l125 125V752z" stroke="#F8BB75" fill="#F8BB75"/><path d="M377 752v125h125L377 752z" stroke="#F4B56D" fill="#F4B56D"/><path d="M502 877H377l125 125V877z" stroke="#E7B473" fill="#E7B473"/><path d="M377 877v125h125L377 877z" stroke="#E0AC72" fill="#E0AC72"/><path d="M502 1002H377l125 125v-125z" stroke="#D1AB76" fill="#D1AB76"/><path d="M377 1002v125h125l-125-125z" stroke="#CAA274" fill="#CAA274"/><path d="M502 1127H377l125 125v-125z" stroke="#BF9D7A" fill="#BF9D7A"/><path d="M377 2H252l125 125V2z" stroke="#D7484A" fill="#D7484A"/><path d="M252 2v125h125L252 2z" stroke="#DC4A4D" fill="#DC4A4D"/><path d="M377 127H252l125 125V127z" stroke="#E85B49" fill="#E85B49"/><path d="M252 127v125h125L252 127z" stroke="#E95D48" fill="#E95D48"/><path d="M377 252H252l125 125V252z" stroke="#F1724B" fill="#F1724B"/><path d="M252 252v125h125L252 252z" stroke="#F07850" fill="#F07850"/><path d="M377 627H252l125 125V627z" stroke="#FBAF7E" fill="#FBAF7E"/><path d="M252 627v125h125L252 627z" stroke="#F7AE80" fill="#F7AE80"/><path d="M377 752H252l125 125V752z" stroke="#F3AF74" fill="#F3AF74"/><path d="M252 752v125h125L252 752z" stroke="#ECAA70" fill="#ECAA70"/><path d="M252 1127h125v-125l-125 125z" stroke="#C69C75" fill="#C69C75"/><path d="M252 1002v125l125-125H252z" stroke="#CA9B75" fill="#CA9B75"/><path d="M377 877H252l125 125V877z" stroke="#E2A872" fill="#E2A872"/><path d="M252 877v125h125L252 877z" stroke="#D8A274" fill="#D8A274"/><path d="M377 377H252l125 125V377z" stroke="#F58D58" fill="#F58D58"/><path d="M252 377v125h125L252 377z" stroke="#F3915E" fill="#F3915E"/><path d="M252 627h125V502L252 627z" stroke="#F9A670" fill="#F9A670"/><path d="M252 502v125l125-125H252z" stroke="#F59F6A" fill="#F59F6A"/><path d="M252 2H127l125 125V2z" stroke="#CE3A4D" fill="#CE3A4D"/><path d="M127 2v125h125L127 2z" stroke="#D33D4F" fill="#D33D4F"/><path d="M252 127H127l125 125V127z" stroke="#DF4F4C" fill="#DF4F4C"/><path d="M127 127v125h125L127 127z" stroke="#E1514B" fill="#E1514B"/><path d="M252 252H127l125 125V252z" stroke="#E9674E" fill="#E9674E"/><path d="M127 252v125h125L127 252z" stroke="#E86D53" fill="#E86D53"/><path d="M252 377H127l125 125V377z" stroke="#ED825C" fill="#ED825C"/><path d="M127 377v125h125L127 377z" stroke="#EB8661" fill="#EB8661"/><path d="M252 502H127l125 125V502z" stroke="#EF986C" fill="#EF986C"/><path d="M127 502v125h125L127 502z" stroke="#EE9874" fill="#EE9874"/><path d="M252 627H127l125 125V627z" stroke="#F2A581" fill="#F2A581"/><path d="M127 627v125h125L127 627z" stroke="#EEA382" fill="#EEA382"/><path d="M252 752H127l125 125V752z" stroke="#EBA477" fill="#EBA477"/><path d="M127 752v125h125L127 752z" stroke="#E4A073" fill="#E4A073"/><path d="M252 877H127l125 125V877z" stroke="#DA9D75" fill="#DA9D75"/><path d="M127 877v125h125L127 877z" stroke="#D09877" fill="#D09877"/><path d="M252 1002H127l125 125v-125z" stroke="#C59477" fill="#C59477"/><path d="M127 1002v125h125l-125-125z" stroke="#BB8E78" fill="#BB8E78"/><path d="M127 2H2l125 125V2z" stroke="#C22E4B" fill="#C22E4B"/><path d="M2 2v125h125L2 2z" stroke="#C4304C" fill="#C4304C"/><path d="M127 127H2l125 125V127z" stroke="#D2434A" fill="#D2434A"/><path d="M2 127v125h125L2 127z" stroke="#D24648" fill="#D24648"/><path d="M127 252H2l125 125V252z" stroke="#DC5C4C" fill="#DC5C4C"/><path d="M2 252v125h125L2 252z" stroke="#D96250" fill="#D96250"/><path d="M127 377H2l125 125V377z" stroke="#E1785A" fill="#E1785A"/><path d="M2 377v125h125L2 377z" stroke="#DC7B5E" fill="#DC7B5E"/><path d="M127 752H2l125 125V752z" stroke="#DE9A75" fill="#DE9A75"/><path d="M2 752v125h125L2 752z" stroke="#D6956F" fill="#D6956F"/><path d="M127 877H2l125 125V877z" stroke="#CD9373" fill="#CD9373"/><path d="M2 877v125h125L2 877z" stroke="#C18D73" fill="#C18D73"/><path d="M2 1127v125l125-125H2z" stroke="#A07A77" fill="#A07A77"/><path d="M127 1002H2l125 125v-125z" stroke="#B88A75" fill="#B88A75"/><path d="M2 1002v125h125L2 1002z" stroke="#AC8374" fill="#AC8374"/><path d="M127 502H2l125 125V502z" stroke="#E38D6A" fill="#E38D6A"/><path d="M2 502v125h125L2 502z" stroke="#DF8D70" fill="#DF8D70"/><path d="M2 752h125V627L2 752z" stroke="#E59C7F" fill="#E59C7F"/><path d="M2 627v125l125-125H2z" stroke="#E1967D" fill="#E1967D"/></g></svg>