<svg xmlns="http://www.w3.org/2000/svg" width="100" height="100" viewBox="0 0 100 100"><path d="M70.71 15.03c1.17 2.656 1.927 7.07.796 10.3 4.625 3.95 6.214 13.55 3.982 21.394 6.592.503 14.443-.242 19.512 1.78-4.738-.608-11.21-1.803-17.32-1.387-1.158.08-2.874-.044-2.79 1.585 7.075.556 14.104 1.16 19.913 2.973-5.76-.94-12.754-2.374-19.913-2.574-2.957 5.836-8.907 8.704-17.122 9.308.883 1.92 2.574 2.653 2.987 5.744.616 4.618-.964 11.38.595 14.46.748 1.474 1.967 1.513 2.79 2.774-2.013 2.38-7.002-.267-7.57-2.775-.972-4.294 1.483-10.953-1.192-13.864.19 4.684-1.108 11.264.2 15.45.514 1.645 2 2.28 1.592 3.764-9.352.95-5.444-12.104-6.972-19.81-1.41.1-.79 2.114-.796 2.973-.04 7.524 1.54 17.844-6.57 16.837-.237-1.58 1.088-2.12 1.593-3.563 1.48-4.234-.277-10.542.4-15.65-3.094 2.332.326 10.48-1.592 14.656-1.105 2.404-4.666 3.45-7.367 2.377.352-1.79 2.2-1.5 2.984-3.17 1.096-2.324.008-5.673.4-9.11-5.73 1.143-10.174-.166-12.35-3.764-.972-1.615-1.213-3.52-2.39-4.95-1.17-1.433-3.04-1.626-3.58-3.565 7.094-1.707 7.366 7.303 13.738 7.526 1.954.07 2.97-.564 4.778-.99.506-2.27 1.59-3.965 3.186-5.152-7.93-1.085-14.477-3.554-17.522-9.504-7.208.355-13.804 1.317-19.913 2.77 5.545-2.013 12.384-2.735 19.715-2.972-.432-2.596-4.22-1.882-6.57-1.782-4.37.194-9.87.737-13.342 1.39 5.034-1.796 12.098-1.572 18.918-1.586-2.086-6.54-1.363-16.93 3.186-20.798-1.29-3.25-.89-8.563.796-11.093 5.08.227 8.16 2.442 11.35 4.556 3.957-1.125 8.118-1.685 13.54-1.387 2.28.125 4.652 1.15 6.37.988 1.684-.158 3.54-2.05 5.177-2.77 2.13-.942 3.934-1.3 6.372-1.39z"/></svg>