<svg xmlns="http://www.w3.org/2000/svg" width="1920" height="1080"><path d="M2085-148h-125l125 125z" fill="#7a7a7a" stroke="#7a7a7a" stroke-width="1.51"/><path d="M1960-148v125h125z" fill="#7b7b7b" stroke="#7b7b7b" stroke-width="1.51"/><path d="M2085-23h-125l125 125z" fill="#757575" stroke="#757575" stroke-width="1.51"/><path d="M1960-23v125h125z" fill="#757575" stroke="#757575" stroke-width="1.51"/><path d="M2085 102h-125l125 125z" fill="#6e6e6e" stroke="#6e6e6e" stroke-width="1.51"/><path d="M1960 102v125h125z" fill="#6e6e6e" stroke="#6e6e6e" stroke-width="1.51"/><path d="M2085 227h-125l125 125z" fill="#666" stroke="#666" stroke-width="1.51"/><path d="M1960 227v125h125z" fill="#666" stroke="#666" stroke-width="1.51"/><path d="M2085 352h-125l125 125z" fill="#5c5c5c" stroke="#5c5c5c" stroke-width="1.51"/><path d="M1960 352v125h125z" fill="#5b5b5b" stroke="#5b5b5b" stroke-width="1.51"/><path d="M2085 477h-125l125 125z" fill="#515151" stroke="#515151" stroke-width="1.51"/><path d="M1960 477v125h125z" fill="#505050" stroke="#505050" stroke-width="1.51"/><path d="M2085 602h-125l125 125z" fill="#464646" stroke="#464646" stroke-width="1.51"/><path d="M1960 602v125h125z" fill="#454545" stroke="#454545" stroke-width="1.51"/><path d="M1960 977h125V852z" fill="#2e2e2e" stroke="#2e2e2e" stroke-width="1.51"/><path d="M1960 852v125l125-125z" fill="#343434" stroke="#343434" stroke-width="1.51"/><path d="M2085 727h-125l125 125z" fill="#3c3c3c" stroke="#3c3c3c" stroke-width="1.51"/><path d="M1960 727v125h125z" fill="#3b3b3b" stroke="#3b3b3b" stroke-width="1.51"/><path d="M2085 977h-125l125 125z" fill="#242424" stroke="#242424" stroke-width="1.51"/><path d="M1960 977v125h125z" fill="#222" stroke="#222" stroke-width="1.51"/><path d="M2085 1102h-125l125 125z" fill="#181818" stroke="#181818" stroke-width="1.51"/><path d="M1960 1102v125h125z" fill="#171717" stroke="#171717" stroke-width="1.51"/><path d="M1960-148h-125l125 125z" fill="#828282" stroke="#828282" stroke-width="1.51"/><path d="M1835-148v125h125z" fill="#828282" stroke="#828282" stroke-width="1.51"/><path d="M1960-23h-125l125 125z" fill="#7c7c7c" stroke="#7c7c7c" stroke-width="1.51"/><path d="M1835-23v125h125z" fill="#7d7d7d" stroke="#7d7d7d" stroke-width="1.51"/><path d="M1835 977h125V852z" fill="#353535" stroke="#353535" stroke-width="1.51"/><path d="M1835 852v125l125-125z" fill="#3b3b3b" stroke="#3b3b3b" stroke-width="1.51"/><path d="M1960 352h-125l125 125z" fill="#646464" stroke="#646464" stroke-width="1.51"/><path d="M1835 352v125h125z" fill="#636363" stroke="#636363" stroke-width="1.51"/><path d="M1960 477h-125l125 125z" fill="#585858" stroke="#585858" stroke-width="1.51"/><path d="M1835 477v125h125z" fill="#575757" stroke="#575757" stroke-width="1.51"/><path d="M1835 852h125V727z" fill="#3f3f3f" stroke="#3f3f3f" stroke-width="1.51"/><path d="M1835 727v125l125-125z" fill="#454545" stroke="#454545" stroke-width="1.51"/><path d="M1960 602h-125l125 125z" fill="#4d4d4d" stroke="#4d4d4d" stroke-width="1.51"/><path d="M1835 602v125h125z" fill="#4c4c4c" stroke="#4c4c4c" stroke-width="1.51"/><path d="M1960 977h-125l125 125z" fill="#2b2b2b" stroke="#2b2b2b" stroke-width="1.51"/><path d="M1835 977v125h125z" fill="#282828" stroke="#282828" stroke-width="1.51"/><path d="M1835 1227h125v-125z" fill="#1b1b1b" stroke="#1b1b1b" stroke-width="1.51"/><path d="M1835 1102v125l125-125z" fill="#202020" stroke="#202020" stroke-width="1.51"/><path d="M1960 102h-125l125 125z" fill="#767676" stroke="#767676" stroke-width="1.51"/><path d="M1835 102v125h125z" fill="#757575" stroke="#757575" stroke-width="1.51"/><path d="M1835 352h125V227z" fill="#6b6b6b" stroke="#6b6b6b" stroke-width="1.51"/><path d="M1835 227v125l125-125z" fill="#707070" stroke="#707070" stroke-width="1.51"/><path d="M1835-148h-125l125 125z" fill="#8b8b8b" stroke="#8b8b8b" stroke-width="1.51"/><path d="M1710-148v125h125z" fill="#8d8d8d" stroke="#8d8d8d" stroke-width="1.51"/><path d="M1835-23h-125l125 125z" fill="#868686" stroke="#868686" stroke-width="1.51"/><path d="M1710-23v125h125z" fill="#878787" stroke="#878787" stroke-width="1.51"/><path d="M1710 352h125V227z" fill="#737373" stroke="#737373" stroke-width="1.51"/><path d="M1710 227v125l125-125z" fill="#7a7a7a" stroke="#7a7a7a" stroke-width="1.51"/><path d="M1835 102h-125l125 125z" fill="#7f7f7f" stroke="#7f7f7f" stroke-width="1.51"/><path d="M1710 102v125h125z" fill="gray" stroke="gray" stroke-width="1.51"/><path d="M1835 352h-125l125 125z" fill="#6d6d6d" stroke="#6d6d6d" stroke-width="1.51"/><path d="M1710 352v125h125z" fill="#6c6c6c" stroke="#6c6c6c" stroke-width="1.51"/><path d="M1835 477h-125l125 125z" fill="#616161" stroke="#616161" stroke-width="1.51"/><path d="M1710 477v125h125z" fill="#606060" stroke="#606060" stroke-width="1.51"/><path d="M1835 602h-125l125 125z" fill="#565656" stroke="#565656" stroke-width="1.51"/><path d="M1710 602v125h125z" fill="#565656" stroke="#565656" stroke-width="1.51"/><path d="M1835 727h-125l125 125z" fill="#4b4b4b" stroke="#4b4b4b" stroke-width="1.51"/><path d="M1710 727v125h125z" fill="#4b4b4b" stroke="#4b4b4b" stroke-width="1.51"/><path d="M1835 852h-125l125 125z" fill="#414141" stroke="#414141" stroke-width="1.51"/><path d="M1710 852v125h125z" fill="#404040" stroke="#404040" stroke-width="1.51"/><path d="M1710 1227h125v-125z" fill="#222" stroke="#222" stroke-width="1.51"/><path d="M1710 1102v125l125-125z" fill="#282828" stroke="#282828" stroke-width="1.51"/><path d="M1835 977h-125l125 125z" fill="#323232" stroke="#323232" stroke-width="1.51"/><path d="M1710 977v125h125z" fill="#313131" stroke="#313131" stroke-width="1.51"/><path d="M1710-148h-125l125 125z" fill="#969696" stroke="#969696" stroke-width="1.51"/><path d="M1585-148v125h125z" fill="#989898" stroke="#989898" stroke-width="1.51"/><path d="M1710-23h-125l125 125z" fill="#919191" stroke="#919191" stroke-width="1.51"/><path d="M1585-23v125h125z" fill="#929292" stroke="#929292" stroke-width="1.51"/><path d="M1710 102h-125l125 125z" fill="#8a8a8a" stroke="#8a8a8a" stroke-width="1.51"/><path d="M1585 102v125h125z" fill="#8b8b8b" stroke="#8b8b8b" stroke-width="1.51"/><path d="M1585 477h125V352z" fill="#747474" stroke="#747474" stroke-width="1.51"/><path d="M1585 352v125l125-125z" fill="#7b7b7b" stroke="#7b7b7b" stroke-width="1.51"/><path d="M1710 227h-125l125 125z" fill="#818181" stroke="#818181" stroke-width="1.51"/><path d="M1585 227v125h125z" fill="#828282" stroke="#828282" stroke-width="1.51"/><path d="M1710 477h-125l125 125z" fill="#6b6b6b" stroke="#6b6b6b" stroke-width="1.51"/><path d="M1585 477v125h125z" fill="#6b6b6b" stroke="#6b6b6b" stroke-width="1.51"/><path d="M1710 602h-125l125 125z" fill="#606060" stroke="#606060" stroke-width="1.51"/><path d="M1585 602v125h125z" fill="#606060" stroke="#606060" stroke-width="1.51"/><path d="M1710 727h-125l125 125z" fill="#565656" stroke="#565656" stroke-width="1.51"/><path d="M1585 727v125h125z" fill="#555" stroke="#555" stroke-width="1.51"/><path d="M1585 1102h125V977z" fill="#373737" stroke="#373737" stroke-width="1.51"/><path d="M1585 977v125l125-125z" fill="#3f3f3f" stroke="#3f3f3f" stroke-width="1.51"/><path d="M1710 852h-125l125 125z" fill="#4b4b4b" stroke="#4b4b4b" stroke-width="1.51"/><path d="M1585 852v125h125z" fill="#494949" stroke="#494949" stroke-width="1.51"/><path d="M1710 1102h-125l125 125z" fill="#2f2f2f" stroke="#2f2f2f" stroke-width="1.51"/><path d="M1585 1102v125h125z" fill="#2e2e2e" stroke="#2e2e2e" stroke-width="1.51"/><path d="M1585-148h-125l125 125z" fill="#a1a1a1" stroke="#a1a1a1" stroke-width="1.51"/><path d="M1460-148v125h125z" fill="#a2a2a2" stroke="#a2a2a2" stroke-width="1.51"/><path d="M1585-23h-125l125 125z" fill="#9c9c9c" stroke="#9c9c9c" stroke-width="1.51"/><path d="M1460-23v125h125z" fill="#9c9c9c" stroke="#9c9c9c" stroke-width="1.51"/><path d="M1585 102h-125l125 125z" fill="#959595" stroke="#959595" stroke-width="1.51"/><path d="M1460 102v125h125z" fill="#959595" stroke="#959595" stroke-width="1.51"/><path d="M1585 227h-125l125 125z" fill="#8c8c8c" stroke="#8c8c8c" stroke-width="1.51"/><path d="M1460 227v125h125z" fill="#8c8c8c" stroke="#8c8c8c" stroke-width="1.51"/><path d="M1585 352h-125l125 125z" fill="#828282" stroke="#828282" stroke-width="1.51"/><path d="M1460 352v125h125z" fill="#818181" stroke="#818181" stroke-width="1.51"/><path d="M1585 477h-125l125 125z" fill="#767676" stroke="#767676" stroke-width="1.51"/><path d="M1460 477v125h125z" fill="#747474" stroke="#747474" stroke-width="1.51"/><path d="M1585 602h-125l125 125z" fill="#6a6a6a" stroke="#6a6a6a" stroke-width="1.51"/><path d="M1460 602v125h125z" fill="#696969" stroke="#696969" stroke-width="1.51"/><path d="M1585 727h-125l125 125z" fill="#5f5f5f" stroke="#5f5f5f" stroke-width="1.51"/><path d="M1460 727v125h125z" fill="#5e5e5e" stroke="#5e5e5e" stroke-width="1.51"/><path d="M1585 852h-125l125 125z" fill="#545454" stroke="#545454" stroke-width="1.51"/><path d="M1460 852v125h125z" fill="#525252" stroke="#525252" stroke-width="1.51"/><path d="M1585 977h-125l125 125z" fill="#454545" stroke="#454545" stroke-width="1.51"/><path d="M1460 977v125h125z" fill="#434343" stroke="#434343" stroke-width="1.51"/><path d="M1585 1102h-125l125 125z" fill="#373737" stroke="#373737" stroke-width="1.51"/><path d="M1460 1102v125h125z" fill="#363636" stroke="#363636" stroke-width="1.51"/><path d="M1460-148h-125l125 125z" fill="#a9a9a9" stroke="#a9a9a9" stroke-width="1.51"/><path d="M1335-148v125h125z" fill="#a9a9a9" stroke="#a9a9a9" stroke-width="1.51"/><path d="M1460-23h-125l125 125z" fill="#a3a3a3" stroke="#a3a3a3" stroke-width="1.51"/><path d="M1335-23v125h125z" fill="#a3a3a3" stroke="#a3a3a3" stroke-width="1.51"/><path d="M1460 102h-125l125 125z" fill="#9c9c9c" stroke="#9c9c9c" stroke-width="1.51"/><path d="M1335 102v125h125z" fill="#9c9c9c" stroke="#9c9c9c" stroke-width="1.51"/><path d="M1460 227h-125l125 125z" fill="#939393" stroke="#939393" stroke-width="1.51"/><path d="M1335 227v125h125z" fill="#939393" stroke="#939393" stroke-width="1.51"/><path d="M1460 352h-125l125 125z" fill="#898989" stroke="#898989" stroke-width="1.51"/><path d="M1335 352v125h125z" fill="#888" stroke="#888" stroke-width="1.51"/><path d="M1460 477h-125l125 125z" fill="#7d7d7d" stroke="#7d7d7d" stroke-width="1.51"/><path d="M1335 477v125h125z" fill="#7b7b7b" stroke="#7b7b7b" stroke-width="1.51"/><path d="M1460 602h-125l125 125z" fill="#717171" stroke="#717171" stroke-width="1.51"/><path d="M1335 602v125h125z" fill="#707070" stroke="#707070" stroke-width="1.51"/><path d="M1335 977h125V852z" fill="#575757" stroke="#575757" stroke-width="1.51"/><path d="M1335 852v125l125-125z" fill="#5d5d5d" stroke="#5d5d5d" stroke-width="1.51"/><path d="M1460 727h-125l125 125z" fill="#666" stroke="#666" stroke-width="1.51"/><path d="M1335 727v125h125z" fill="#646464" stroke="#646464" stroke-width="1.51"/><path d="M1460 977h-125l125 125z" fill="#4c4c4c" stroke="#4c4c4c" stroke-width="1.51"/><path d="M1335 977v125h125z" fill="#494949" stroke="#494949" stroke-width="1.51"/><path d="M1460 1102h-125l125 125z" fill="#3e3e3e" stroke="#3e3e3e" stroke-width="1.51"/><path d="M1335 1102v125h125z" fill="#3c3c3c" stroke="#3c3c3c" stroke-width="1.51"/><path d="M1335-148h-125l125 125z" fill="#b1b1b1" stroke="#b1b1b1" stroke-width="1.51"/><path d="M1210-148v125h125z" fill="#b1b1b1" stroke="#b1b1b1" stroke-width="1.51"/><path d="M1335-23h-125l125 125z" fill="#ababab" stroke="#ababab" stroke-width="1.51"/><path d="M1210-23v125h125z" fill="#ababab" stroke="#ababab" stroke-width="1.51"/><path d="M1335 102h-125l125 125z" fill="#a4a4a4" stroke="#a4a4a4" stroke-width="1.51"/><path d="M1210 102v125h125z" fill="#a4a4a4" stroke="#a4a4a4" stroke-width="1.51"/><path d="M1210 1102h125V977z" fill="#4e4e4e" stroke="#4e4e4e" stroke-width="1.51"/><path d="M1210 977v125l125-125z" fill="#555" stroke="#555" stroke-width="1.51"/><path d="M1335 477h-125l125 125z" fill="#848484" stroke="#848484" stroke-width="1.51"/><path d="M1210 477v125h125z" fill="#838383" stroke="#838383" stroke-width="1.51"/><path d="M1335 602h-125l125 125z" fill="#787878" stroke="#787878" stroke-width="1.51"/><path d="M1210 602v125h125z" fill="#777" stroke="#777" stroke-width="1.51"/><path d="M1210 977h125V852z" fill="#5e5e5e" stroke="#5e5e5e" stroke-width="1.51"/><path d="M1210 852v125l125-125z" fill="#656565" stroke="#656565" stroke-width="1.51"/><path d="M1335 727h-125l125 125z" fill="#6d6d6d" stroke="#6d6d6d" stroke-width="1.51"/><path d="M1210 727v125h125z" fill="#6c6c6c" stroke="#6c6c6c" stroke-width="1.51"/><path d="M1335 1102h-125l125 125z" fill="#444" stroke="#444" stroke-width="1.51"/><path d="M1210 1102v125h125z" fill="#434343" stroke="#434343" stroke-width="1.51"/><path d="M1335 227h-125l125 125z" fill="#9b9b9b" stroke="#9b9b9b" stroke-width="1.51"/><path d="M1210 227v125h125z" fill="#9b9b9b" stroke="#9b9b9b" stroke-width="1.51"/><path d="M1210 477h125V352z" fill="#8d8d8d" stroke="#8d8d8d" stroke-width="1.51"/><path d="M1210 352v125l125-125z" fill="#939393" stroke="#939393" stroke-width="1.51"/><path d="M1210-148h-125l125 125z" fill="#b8b8b8" stroke="#b8b8b8" stroke-width="1.51"/><path d="M1085-148v125h125z" fill="#b9b9b9" stroke="#b9b9b9" stroke-width="1.51"/><path d="M1210-23h-125l125 125z" fill="#b2b2b2" stroke="#b2b2b2" stroke-width="1.51"/><path d="M1085-23v125h125z" fill="#b3b3b3" stroke="#b3b3b3" stroke-width="1.51"/><path d="M1210 102h-125l125 125z" fill="#ababab" stroke="#ababab" stroke-width="1.51"/><path d="M1085 102v125h125z" fill="#ababab" stroke="#ababab" stroke-width="1.51"/><path d="M1210 227h-125l125 125z" fill="#a2a2a2" stroke="#a2a2a2" stroke-width="1.51"/><path d="M1085 227v125h125z" fill="#a2a2a2" stroke="#a2a2a2" stroke-width="1.51"/><path d="M1210 352h-125l125 125z" fill="#989898" stroke="#989898" stroke-width="1.51"/><path d="M1085 352v125h125z" fill="#979797" stroke="#979797" stroke-width="1.51"/><path d="M1210 477h-125l125 125z" fill="#8b8b8b" stroke="#8b8b8b" stroke-width="1.51"/><path d="M1085 477v125h125z" fill="#8a8a8a" stroke="#8a8a8a" stroke-width="1.51"/><path d="M1210 602h-125l125 125z" fill="#7f7f7f" stroke="#7f7f7f" stroke-width="1.51"/><path d="M1085 602v125h125z" fill="#7e7e7e" stroke="#7e7e7e" stroke-width="1.51"/><path d="M1210 727h-125l125 125z" fill="#747474" stroke="#747474" stroke-width="1.51"/><path d="M1085 727v125h125z" fill="#737373" stroke="#737373" stroke-width="1.51"/><path d="M1210 852h-125l125 125z" fill="#696969" stroke="#696969" stroke-width="1.51"/><path d="M1085 852v125h125z" fill="#676767" stroke="#676767" stroke-width="1.51"/><path d="M1210 977h-125l125 125z" fill="#595959" stroke="#595959" stroke-width="1.51"/><path d="M1085 977v125h125z" fill="#575757" stroke="#575757" stroke-width="1.51"/><path d="M1210 1102h-125l125 125z" fill="#4b4b4b" stroke="#4b4b4b" stroke-width="1.51"/><path d="M1085 1102v125h125z" fill="#4a4a4a" stroke="#4a4a4a" stroke-width="1.51"/><path d="M1085-148H960l125 125z" fill="silver" stroke="silver" stroke-width="1.51"/><path d="M960-148v125h125z" fill="#c1c1c1" stroke="#c1c1c1" stroke-width="1.51"/><path d="M1085-23H960l125 125z" fill="#bababa" stroke="#bababa" stroke-width="1.51"/><path d="M960-23v125h125z" fill="#bbb" stroke="#bbb" stroke-width="1.51"/><path d="M1085 102H960l125 125z" fill="#b3b3b3" stroke="#b3b3b3" stroke-width="1.51"/><path d="M960 102v125h125z" fill="#b3b3b3" stroke="#b3b3b3" stroke-width="1.51"/><path d="M1085 227H960l125 125z" fill="#aaa" stroke="#aaa" stroke-width="1.51"/><path d="M960 227v125h125z" fill="#aaa" stroke="#aaa" stroke-width="1.51"/><path d="M1085 602H960l125 125z" fill="#878787" stroke="#878787" stroke-width="1.51"/><path d="M960 602v125h125z" fill="#868686" stroke="#868686" stroke-width="1.51"/><path d="M1085 727H960l125 125z" fill="#7c7c7c" stroke="#7c7c7c" stroke-width="1.51"/><path d="M960 727v125h125z" fill="#7a7a7a" stroke="#7a7a7a" stroke-width="1.51"/><path d="M960 1102h125V977z" fill="#5b5b5b" stroke="#5b5b5b" stroke-width="1.51"/><path d="M960 977v125l125-125z" fill="#636363" stroke="#636363" stroke-width="1.51"/><path d="M1085 852H960l125 125z" fill="#707070" stroke="#707070" stroke-width="1.51"/><path d="M960 852v125h125z" fill="#6e6e6e" stroke="#6e6e6e" stroke-width="1.51"/><path d="M1085 1102H960l125 125z" fill="#525252" stroke="#525252" stroke-width="1.51"/><path d="M960 1102v125h125z" fill="#505050" stroke="#505050" stroke-width="1.51"/><path d="M1085 352H960l125 125z" fill="#a0a0a0" stroke="#a0a0a0" stroke-width="1.51"/><path d="M960 352v125h125z" fill="#9e9e9e" stroke="#9e9e9e" stroke-width="1.51"/><path d="M960 602h125V477z" fill="#8f8f8f" stroke="#8f8f8f" stroke-width="1.51"/><path d="M960 477v125l125-125z" fill="#959595" stroke="#959595" stroke-width="1.51"/><path d="M835 1227h125v-125z" fill="#555" stroke="#555" stroke-width="1.51"/><path d="M835 1102v125l125-125z" fill="#5b5b5b" stroke="#5b5b5b" stroke-width="1.51"/><path d="M835 1102h125V977z" fill="#626262" stroke="#626262" stroke-width="1.51"/><path d="M835 977v125l125-125z" fill="#6a6a6a" stroke="#6a6a6a" stroke-width="1.51"/><path d="M835 977h125V852z" fill="#737373" stroke="#737373" stroke-width="1.51"/><path d="M835 852v125l125-125z" fill="#7a7a7a" stroke="#7a7a7a" stroke-width="1.51"/><path d="M835 852h125V727z" fill="#7f7f7f" stroke="#7f7f7f" stroke-width="1.51"/><path d="M835 727v125l125-125z" fill="#868686" stroke="#868686" stroke-width="1.51"/><path d="M835 727h125V602z" fill="#8b8b8b" stroke="#8b8b8b" stroke-width="1.51"/><path d="M835 602v125l125-125z" fill="#919191" stroke="#919191" stroke-width="1.51"/><path d="M835 602h125V477z" fill="#969696" stroke="#969696" stroke-width="1.51"/><path d="M835 477v125l125-125z" fill="#9d9d9d" stroke="#9d9d9d" stroke-width="1.51"/><path d="M835 477h125V352z" fill="#a3a3a3" stroke="#a3a3a3" stroke-width="1.51"/><path d="M835 352v125l125-125z" fill="#aaa" stroke="#aaa" stroke-width="1.51"/><path d="M835 352h125V227z" fill="#afafaf" stroke="#afafaf" stroke-width="1.51"/><path d="M835 227v125l125-125z" fill="#b5b5b5" stroke="#b5b5b5" stroke-width="1.51"/><path d="M835 227h125V102z" fill="#b8b8b8" stroke="#b8b8b8" stroke-width="1.51"/><path d="M835 102v125l125-125z" fill="#bebebe" stroke="#bebebe" stroke-width="1.51"/><path d="M835 102h125V-23z" fill="silver" stroke="silver" stroke-width="1.51"/><path d="M835-23v125L960-23z" fill="#c5c5c5" stroke="#c5c5c5" stroke-width="1.51"/><path d="M835-23h125v-125z" fill="#c6c6c6" stroke="#c6c6c6" stroke-width="1.51"/><path d="M835-148v125l125-125z" fill="#cbcbcb" stroke="#cbcbcb" stroke-width="1.51"/><path d="M835 852H710l125 125z" fill="gray" stroke="gray" stroke-width="1.51"/><path d="M710 852v125h125z" fill="#7d7d7d" stroke="#7d7d7d" stroke-width="1.51"/><path d="M835-148H710L835-23z" fill="#d1d1d1" stroke="#d1d1d1" stroke-width="1.51"/><path d="M710-148v125h125z" fill="#d2d2d2" stroke="#d2d2d2" stroke-width="1.51"/><path d="M835-23H710l125 125z" fill="#cbcbcb" stroke="#cbcbcb" stroke-width="1.51"/><path d="M710-23v125h125z" fill="#cbcbcb" stroke="#cbcbcb" stroke-width="1.51"/><path d="M835 102H710l125 125z" fill="#c4c4c4" stroke="#c4c4c4" stroke-width="1.51"/><path d="M710 102v125h125z" fill="#c3c3c3" stroke="#c3c3c3" stroke-width="1.51"/><path d="M835 227H710l125 125z" fill="#bababa" stroke="#bababa" stroke-width="1.51"/><path d="M710 227v125h125z" fill="#bababa" stroke="#bababa" stroke-width="1.51"/><path d="M835 352H710l125 125z" fill="#b0b0b0" stroke="#b0b0b0" stroke-width="1.51"/><path d="M710 352v125h125z" fill="#aeaeae" stroke="#aeaeae" stroke-width="1.51"/><path d="M835 477H710l125 125z" fill="#a3a3a3" stroke="#a3a3a3" stroke-width="1.51"/><path d="M710 477v125h125z" fill="#a1a1a1" stroke="#a1a1a1" stroke-width="1.51"/><path d="M710 852h125V727z" fill="#878787" stroke="#878787" stroke-width="1.51"/><path d="M710 727v125l125-125z" fill="#8e8e8e" stroke="#8e8e8e" stroke-width="1.51"/><path d="M835 602H710l125 125z" fill="#979797" stroke="#979797" stroke-width="1.51"/><path d="M710 602v125h125z" fill="#969696" stroke="#969696" stroke-width="1.51"/><path d="M835 977H710l125 125z" fill="#6f6f6f" stroke="#6f6f6f" stroke-width="1.51"/><path d="M710 977v125h125z" fill="#6c6c6c" stroke="#6c6c6c" stroke-width="1.51"/><path d="M835 1102H710l125 125z" fill="#606060" stroke="#606060" stroke-width="1.51"/><path d="M710 1102v125h125z" fill="#5f5f5f" stroke="#5f5f5f" stroke-width="1.51"/><path d="M710-148H585L710-23z" fill="#d9d9d9" stroke="#d9d9d9" stroke-width="1.51"/><path d="M585-148v125h125z" fill="#d9d9d9" stroke="#d9d9d9" stroke-width="1.51"/><path d="M710-23H585l125 125z" fill="#d3d3d3" stroke="#d3d3d3" stroke-width="1.51"/><path d="M585-23v125h125z" fill="#d3d3d3" stroke="#d3d3d3" stroke-width="1.51"/><path d="M585 977h125V852z" fill="#828282" stroke="#828282" stroke-width="1.51"/><path d="M585 852v125l125-125z" fill="#898989" stroke="#898989" stroke-width="1.51"/><path d="M710 352H585l125 125z" fill="#b8b8b8" stroke="#b8b8b8" stroke-width="1.51"/><path d="M585 352v125h125z" fill="#b6b6b6" stroke="#b6b6b6" stroke-width="1.51"/><path d="M710 477H585l125 125z" fill="#ababab" stroke="#ababab" stroke-width="1.51"/><path d="M585 477v125h125z" fill="#a9a9a9" stroke="#a9a9a9" stroke-width="1.51"/><path d="M585 852h125V727z" fill="#8f8f8f" stroke="#8f8f8f" stroke-width="1.51"/><path d="M585 727v125l125-125z" fill="#959595" stroke="#959595" stroke-width="1.51"/><path d="M710 602H585l125 125z" fill="#9f9f9f" stroke="#9f9f9f" stroke-width="1.51"/><path d="M585 602v125h125z" fill="#9d9d9d" stroke="#9d9d9d" stroke-width="1.51"/><path d="M710 977H585l125 125z" fill="#777" stroke="#777" stroke-width="1.51"/><path d="M585 977v125h125z" fill="#737373" stroke="#737373" stroke-width="1.51"/><path d="M585 1227h125v-125z" fill="#646464" stroke="#646464" stroke-width="1.51"/><path d="M585 1102v125l125-125z" fill="#696969" stroke="#696969" stroke-width="1.51"/><path d="M710 102H585l125 125z" fill="#ccc" stroke="#ccc" stroke-width="1.51"/><path d="M585 102v125h125z" fill="#cbcbcb" stroke="#cbcbcb" stroke-width="1.51"/><path d="M585 352h125V227z" fill="#bfbfbf" stroke="#bfbfbf" stroke-width="1.51"/><path d="M585 227v125l125-125z" fill="#c4c4c4" stroke="#c4c4c4" stroke-width="1.51"/><path d="M585-148H460L585-23z" fill="#dfdfdf" stroke="#dfdfdf" stroke-width="1.51"/><path d="M460-148v125h125z" fill="#dfdfdf" stroke="#dfdfdf" stroke-width="1.51"/><path d="M585-23H460l125 125z" fill="#d9d9d9" stroke="#d9d9d9" stroke-width="1.51"/><path d="M460-23v125h125z" fill="#d9d9d9" stroke="#d9d9d9" stroke-width="1.51"/><path d="M585 102H460l125 125z" fill="#d2d2d2" stroke="#d2d2d2" stroke-width="1.51"/><path d="M460 102v125h125z" fill="#d1d1d1" stroke="#d1d1d1" stroke-width="1.51"/><path d="M585 227H460l125 125z" fill="#c8c8c8" stroke="#c8c8c8" stroke-width="1.51"/><path d="M460 227v125h125z" fill="#c7c7c7" stroke="#c7c7c7" stroke-width="1.51"/><path d="M585 352H460l125 125z" fill="#bebebe" stroke="#bebebe" stroke-width="1.51"/><path d="M460 352v125h125z" fill="#bcbcbc" stroke="#bcbcbc" stroke-width="1.51"/><path d="M585 477H460l125 125z" fill="#b1b1b1" stroke="#b1b1b1" stroke-width="1.51"/><path d="M460 477v125h125z" fill="#afafaf" stroke="#afafaf" stroke-width="1.51"/><path d="M585 602H460l125 125z" fill="#a4a4a4" stroke="#a4a4a4" stroke-width="1.51"/><path d="M460 602v125h125z" fill="#a3a3a3" stroke="#a3a3a3" stroke-width="1.51"/><path d="M585 727H460l125 125z" fill="#999" stroke="#999" stroke-width="1.51"/><path d="M460 727v125h125z" fill="#969696" stroke="#969696" stroke-width="1.51"/><path d="M585 852H460l125 125z" fill="#8d8d8d" stroke="#8d8d8d" stroke-width="1.51"/><path d="M460 852v125h125z" fill="#8a8a8a" stroke="#8a8a8a" stroke-width="1.51"/><path d="M460 1227h125v-125z" fill="#696969" stroke="#696969" stroke-width="1.51"/><path d="M460 1102v125l125-125z" fill="#6f6f6f" stroke="#6f6f6f" stroke-width="1.51"/><path d="M585 977H460l125 125z" fill="#7c7c7c" stroke="#7c7c7c" stroke-width="1.51"/><path d="M460 977v125h125z" fill="#797979" stroke="#797979" stroke-width="1.51"/><path d="M460-148H335L460-23z" fill="#e5e5e5" stroke="#e5e5e5" stroke-width="1.51"/><path d="M335-148v125h125z" fill="#e5e5e5" stroke="#e5e5e5" stroke-width="1.51"/><path d="M460-23H335l125 125z" fill="#dfdfdf" stroke="#dfdfdf" stroke-width="1.51"/><path d="M335-23v125h125z" fill="#dfdfdf" stroke="#dfdfdf" stroke-width="1.51"/><path d="M460 102H335l125 125z" fill="#d8d8d8" stroke="#d8d8d8" stroke-width="1.51"/><path d="M335 102v125h125z" fill="#d7d7d7" stroke="#d7d7d7" stroke-width="1.51"/><path d="M460 477H335l125 125z" fill="#b7b7b7" stroke="#b7b7b7" stroke-width="1.51"/><path d="M335 477v125h125z" fill="#b4b4b4" stroke="#b4b4b4" stroke-width="1.51"/><path d="M460 602H335l125 125z" fill="#aaa" stroke="#aaa" stroke-width="1.51"/><path d="M335 602v125h125z" fill="#a8a8a8" stroke="#a8a8a8" stroke-width="1.51"/><path d="M335 977h125V852z" fill="#8e8e8e" stroke="#8e8e8e" stroke-width="1.51"/><path d="M335 852v125l125-125z" fill="#949494" stroke="#949494" stroke-width="1.51"/><path d="M460 727H335l125 125z" fill="#9e9e9e" stroke="#9e9e9e" stroke-width="1.51"/><path d="M335 727v125h125z" fill="#9c9c9c" stroke="#9c9c9c" stroke-width="1.51"/><path d="M335 1227h125v-125z" fill="#6e6e6e" stroke="#6e6e6e" stroke-width="1.51"/><path d="M335 1102v125l125-125z" fill="#747474" stroke="#747474" stroke-width="1.51"/><path d="M460 977H335l125 125z" fill="#828282" stroke="#828282" stroke-width="1.51"/><path d="M335 977v125h125z" fill="#7e7e7e" stroke="#7e7e7e" stroke-width="1.51"/><path d="M460 227H335l125 125z" fill="#cecece" stroke="#cecece" stroke-width="1.51"/><path d="M335 227v125h125z" fill="#cdcdcd" stroke="#cdcdcd" stroke-width="1.51"/><path d="M335 477h125V352z" fill="silver" stroke="silver" stroke-width="1.51"/><path d="M335 352v125l125-125z" fill="#c6c6c6" stroke="#c6c6c6" stroke-width="1.51"/><path d="M335-148H210L335-23z" fill="#ebebeb" stroke="#ebebeb" stroke-width="1.51"/><path d="M210-148v125h125z" fill="#eaeaea" stroke="#eaeaea" stroke-width="1.51"/><path d="M335-23H210l125 125z" fill="#e5e5e5" stroke="#e5e5e5" stroke-width="1.51"/><path d="M210-23v125h125z" fill="#e4e4e4" stroke="#e4e4e4" stroke-width="1.51"/><path d="M335 102H210l125 125z" fill="#ddd" stroke="#ddd" stroke-width="1.51"/><path d="M210 102v125h125z" fill="#dcdcdc" stroke="#dcdcdc" stroke-width="1.51"/><path d="M335 227H210l125 125z" fill="#d4d4d4" stroke="#d4d4d4" stroke-width="1.51"/><path d="M210 227v125h125z" fill="#d2d2d2" stroke="#d2d2d2" stroke-width="1.51"/><path d="M335 352H210l125 125z" fill="#c9c9c9" stroke="#c9c9c9" stroke-width="1.51"/><path d="M210 352v125h125z" fill="#c7c7c7" stroke="#c7c7c7" stroke-width="1.51"/><path d="M335 477H210l125 125z" fill="#bcbcbc" stroke="#bcbcbc" stroke-width="1.51"/><path d="M210 477v125h125z" fill="#b9b9b9" stroke="#b9b9b9" stroke-width="1.51"/><path d="M335 602H210l125 125z" fill="#afafaf" stroke="#afafaf" stroke-width="1.51"/><path d="M210 602v125h125z" fill="#adadad" stroke="#adadad" stroke-width="1.51"/><path d="M335 727H210l125 125z" fill="#a4a4a4" stroke="#a4a4a4" stroke-width="1.51"/><path d="M210 727v125h125z" fill="#a1a1a1" stroke="#a1a1a1" stroke-width="1.51"/><path d="M335 852H210l125 125z" fill="#989898" stroke="#989898" stroke-width="1.51"/><path d="M210 852v125h125z" fill="#949494" stroke="#949494" stroke-width="1.51"/><path d="M335 977H210l125 125z" fill="#878787" stroke="#878787" stroke-width="1.51"/><path d="M210 977v125h125z" fill="#838383" stroke="#838383" stroke-width="1.51"/><path d="M335 1102H210l125 125z" fill="#777" stroke="#777" stroke-width="1.51"/><path d="M210 1102v125h125z" fill="#757575" stroke="#757575" stroke-width="1.51"/><path d="M210-148H85L210-23z" fill="#efefef" stroke="#efefef" stroke-width="1.51"/><path d="M85-148v125h125z" fill="#efefef" stroke="#efefef" stroke-width="1.51"/><path d="M210-23H85l125 125z" fill="#e9e9e9" stroke="#e9e9e9" stroke-width="1.51"/><path d="M85-23v125h125z" fill="#e9e9e9" stroke="#e9e9e9" stroke-width="1.51"/><path d="M210 102H85l125 125z" fill="#e2e2e2" stroke="#e2e2e2" stroke-width="1.51"/><path d="M85 102v125h125z" fill="#e1e1e1" stroke="#e1e1e1" stroke-width="1.51"/><path d="M85 1102h125V977z" fill="#858585" stroke="#858585" stroke-width="1.51"/><path d="M85 977v125l125-125z" fill="#8d8d8d" stroke="#8d8d8d" stroke-width="1.51"/><path d="M210 477H85l125 125z" fill="silver" stroke="silver" stroke-width="1.51"/><path d="M85 477v125h125z" fill="#bebebe" stroke="#bebebe" stroke-width="1.51"/><path d="M210 602H85l125 125z" fill="#b4b4b4" stroke="#b4b4b4" stroke-width="1.51"/><path d="M85 602v125h125z" fill="#b2b2b2" stroke="#b2b2b2" stroke-width="1.51"/><path d="M85 977h125V852z" fill="#979797" stroke="#979797" stroke-width="1.51"/><path d="M85 852v125l125-125z" fill="#9e9e9e" stroke="#9e9e9e" stroke-width="1.51"/><path d="M210 727H85l125 125z" fill="#a8a8a8" stroke="#a8a8a8" stroke-width="1.51"/><path d="M85 727v125h125z" fill="#a5a5a5" stroke="#a5a5a5" stroke-width="1.51"/><path d="M210 1102H85l125 125z" fill="#7b7b7b" stroke="#7b7b7b" stroke-width="1.51"/><path d="M85 1102v125h125z" fill="#797979" stroke="#797979" stroke-width="1.51"/><path d="M210 227H85l125 125z" fill="#d8d8d8" stroke="#d8d8d8" stroke-width="1.51"/><path d="M85 227v125h125z" fill="#d7d7d7" stroke="#d7d7d7" stroke-width="1.51"/><path d="M85 477h125V352z" fill="#cacaca" stroke="#cacaca" stroke-width="1.51"/><path d="M85 352v125l125-125z" fill="#d0d0d0" stroke="#d0d0d0" stroke-width="1.51"/><path d="M85-148H-40L85-23z" fill="#f4f4f4" stroke="#f4f4f4" stroke-width="1.51"/><path d="M-40-148v125H85z" fill="#f3f3f3" stroke="#f3f3f3" stroke-width="1.51"/><path d="M85-23H-40L85 102z" fill="#eee" stroke="#eee" stroke-width="1.51"/><path d="M-40-23v125H85z" fill="#ececec" stroke="#ececec" stroke-width="1.51"/><path d="M85 102H-40L85 227z" fill="#e6e6e6" stroke="#e6e6e6" stroke-width="1.51"/><path d="M-40 102v125H85z" fill="#e4e4e4" stroke="#e4e4e4" stroke-width="1.51"/><path d="M85 227H-40L85 352z" fill="#ddd" stroke="#ddd" stroke-width="1.51"/><path d="M-40 227v125H85z" fill="#dbdbdb" stroke="#dbdbdb" stroke-width="1.51"/><path d="M85 352H-40L85 477z" fill="#d2d2d2" stroke="#d2d2d2" stroke-width="1.51"/><path d="M-40 352v125H85z" fill="#cfcfcf" stroke="#cfcfcf" stroke-width="1.51"/><path d="M85 477H-40L85 602z" fill="#c5c5c5" stroke="#c5c5c5" stroke-width="1.51"/><path d="M-40 477v125H85z" fill="#c1c1c1" stroke="#c1c1c1" stroke-width="1.51"/><path d="M85 602H-40L85 727z" fill="#b8b8b8" stroke="#b8b8b8" stroke-width="1.51"/><path d="M-40 602v125H85z" fill="#b5b5b5" stroke="#b5b5b5" stroke-width="1.51"/><path d="M85 727H-40L85 852z" fill="#acacac" stroke="#acacac" stroke-width="1.51"/><path d="M-40 727v125H85z" fill="#a9a9a9" stroke="#a9a9a9" stroke-width="1.51"/><path d="M85 852H-40L85 977z" fill="#a0a0a0" stroke="#a0a0a0" stroke-width="1.51"/><path d="M-40 852v125H85z" fill="#9c9c9c" stroke="#9c9c9c" stroke-width="1.51"/><path d="M85 977H-40l125 125z" fill="#8f8f8f" stroke="#8f8f8f" stroke-width="1.51"/><path d="M-40 977v125H85z" fill="#8a8a8a" stroke="#8a8a8a" stroke-width="1.51"/><path d="M85 1102H-40l125 125z" fill="#7f7f7f" stroke="#7f7f7f" stroke-width="1.51"/><path d="M-40 1102v125H85z" fill="#7c7c7c" stroke="#7c7c7c" stroke-width="1.51"/><path d="M-40-148h-125L-40-23z" fill="#f7f7f7" stroke="#f7f7f7" stroke-width="1.51"/><path d="M-165-148v125h125z" fill="#f6f6f6" stroke="#f6f6f6" stroke-width="1.51"/><path d="M-40-23h-125l125 125z" fill="#f1f1f1" stroke="#f1f1f1" stroke-width="1.51"/><path d="M-165-23v125h125z" fill="#f0f0f0" stroke="#f0f0f0" stroke-width="1.51"/><path d="M-40 102h-125l125 125z" fill="#eaeaea" stroke="#eaeaea" stroke-width="1.51"/><path d="M-165 102v125h125z" fill="#e8e8e8" stroke="#e8e8e8" stroke-width="1.51"/><path d="M-40 227h-125l125 125z" fill="#e0e0e0" stroke="#e0e0e0" stroke-width="1.51"/><path d="M-165 227v125h125z" fill="#dedede" stroke="#dedede" stroke-width="1.51"/><path d="M-40 602h-125l125 125z" fill="#bbb" stroke="#bbb" stroke-width="1.51"/><path d="M-165 602v125h125z" fill="#b8b8b8" stroke="#b8b8b8" stroke-width="1.51"/><path d="M-40 727h-125l125 125z" fill="#afafaf" stroke="#afafaf" stroke-width="1.51"/><path d="M-165 727v125h125z" fill="#acacac" stroke="#acacac" stroke-width="1.51"/><path d="M-165 1102h125V977z" fill="#8d8d8d" stroke="#8d8d8d" stroke-width="1.51"/><path d="M-165 977v125l125-125z" fill="#939393" stroke="#939393" stroke-width="1.51"/><path d="M-40 852h-125l125 125z" fill="#a3a3a3" stroke="#a3a3a3" stroke-width="1.51"/><path d="M-165 852v125h125z" fill="#9f9f9f" stroke="#9f9f9f" stroke-width="1.51"/><path d="M-40 1102h-125l125 125z" fill="#828282" stroke="#828282" stroke-width="1.51"/><path d="M-165 1102v125h125z" fill="#7f7f7f" stroke="#7f7f7f" stroke-width="1.51"/><path d="M-40 352h-125l125 125z" fill="#d5d5d5" stroke="#d5d5d5" stroke-width="1.51"/><path d="M-165 352v125h125z" fill="#d2d2d2" stroke="#d2d2d2" stroke-width="1.51"/><path d="M-165 602h125V477z" fill="#c4c4c4" stroke="#c4c4c4" stroke-width="1.51"/><path d="M-165 477v125l125-125z" fill="#c9c9c9" stroke="#c9c9c9" stroke-width="1.51"/></svg>