<svg xmlns="http://www.w3.org/2000/svg" viewBox="0 0 1000 1000" preserveAspectRatio="none"><path d="M0 0v100h100" fill="#FFF"/><path d="M0 0h100v100M100 0v100h100" fill="#FFF"/><path d="M100 0h100v100M200 0v100h100" fill="#FFF"/><path d="M200 0h100v100M300 0v100h100" fill="#FFF"/><path d="M300 0h100v100M400 0v100h100" fill="#FFF"/><path d="M400 0h100v100M500 0v100h100" fill="#FFF"/><path d="M500 0h100v100M600 0v100h100" fill="#FFF"/><path d="M600 0h100v100M700 0v100h100" fill="#FFF"/><path d="M700 0h100v100M800 0v100h100" fill="#FFF"/><path d="M800 0h100v100M900 0v100h100" fill="#FFF"/><path d="M900 0h100v100M0 100v100h100" fill="#FFF"/><path d="M0 100h100v100M100 100v100h100" fill="#FFF"/><path d="M100 100h100v100M200 100v100h100" fill="#FFF"/><path d="M200 100h100v100M300 100v100h100" fill="#FFF"/><path d="M300 100h100v100M400 100v100h100" fill="#FFF"/><path d="M400 100h100v100M500 100v100h100" fill="#FFF"/><path d="M500 100h100v100M600 100v100h100" fill="#FFF"/><path d="M600 100h100v100M700 100v100h100" fill="#FFF"/><path d="M700 100h100v100M800 100v100h100" fill="#FFF"/><path d="M800 100h100v100M900 100v100h100" fill="#FFF"/><path d="M900 100h100v100M0 200v100h100" fill="#FFF"/><path d="M0 200h100v100M100 200v100h100" fill="#FFF"/><path d="M100 200h100v100M200 200v100h100" fill="#FFF"/><path d="M200 200h100v100M300 200v100h100" fill="#FFF"/><path d="M300 200h100v100M400 200v100h100" fill="#FFF"/><path d="M400 200h100v100M500 200v100h100" fill="#FFF"/><path d="M500 200h100v100M600 200v100h100" fill="#FFF"/><path d="M600 200h100v100M700 200v100h100" fill="#FFF"/><path d="M700 200h100v100M800 200v100h100" fill="#FFF"/><path d="M800 200h100v100M900 200v100h100" fill="#FFF"/><path d="M900 200h100v100M0 300v100h100" fill="#FFF"/><path d="M0 300h100v100M100 300v100h100" fill="#FFF"/><path d="M100 300h100v100M200 300v100h100" fill="#FFF"/><path d="M200 300h100v100M300 300v100h100" fill="#FFF"/><path d="M300 300h100v100M400 300v100h100" fill="#FFF"/><path d="M400 300h100v100M500 300v100h100" fill="#FFF"/><path d="M500 300h100v100M600 300v100h100" fill="#FFF"/><path d="M600 300h100v100M700 300v100h100" fill="#FFF"/><path d="M700 300h100v100M800 300v100h100" fill="#FFF"/><path d="M800 300h100v100M900 300v100h100" fill="#FFF"/><path d="M900 300h100v100M0 400v100h100" fill="#FFF"/><path d="M0 400h100v100M100 400v100h100" fill="#FFF"/><path d="M100 400h100v100M200 400v100h100" fill="#FFF"/><path d="M200 400h100v100M300 400v100h100" fill="#FFF"/><path d="M300 400h100v100M400 400v100h100" fill="#FFF"/><path d="M400 400h100v100M500 400v100h100" fill="#FFF"/><path d="M500 400h100v100M600 400v100h100" fill="#FFF"/><path d="M600 400h100v100M700 400v100h100" fill="#FFF"/><path d="M700 400h100v100M800 400v100h100" fill="#FFF"/><path d="M800 400h100v100M900 400v100h100" fill="#FFF"/><path d="M900 400h100v100M0 500v100h100" fill="#FFF"/><path d="M0 500h100v100M100 500v100h100" fill="#FFF"/><path d="M100 500h100v100M200 500v100h100" fill="#FFF"/><path d="M200 500h100v100M300 500v100h100" fill="#FFF"/><path d="M300 500h100v100M400 500v100h100" fill="#FFF"/><path d="M400 500h100v100M500 500v100h100" fill="#FFF"/><path d="M500 500h100v100M600 500v100h100" fill="#FFF"/><path d="M600 500h100v100M700 500v100h100" fill="#FFF"/><path d="M700 500h100v100M800 500v100h100" fill="#FFF"/><path d="M800 500h100v100M900 500v100h100" fill="#FFF"/><path d="M900 500h100v100M0 600v100h100" fill="#FFF"/><path d="M0 600h100v100M100 600v100h100" fill="#FFF"/><path d="M100 600h100v100M200 600v100h100" fill="#FFF"/><path d="M200 600h100v100M300 600v100h100" fill="#FFF"/><path d="M300 600h100v100M400 600v100h100" fill="#FFF"/><path d="M400 600h100v100M500 600v100h100" fill="#FFF"/><path d="M500 600h100v100M600 600v100h100" fill="#FFF"/><path d="M600 600h100v100M700 600v100h100" fill="#FFF"/><path d="M700 600h100v100M800 600v100h100" fill="#FFF"/><path d="M800 600h100v100M900 600v100h100" fill="#FFF"/><path d="M900 600h100v100M0 700v100h100" fill="#FFF"/><path d="M0 700h100v100M100 700v100h100" fill="#FFF"/><path d="M100 700h100v100M200 700v100h100" fill="#FFF"/><path d="M200 700h100v100M300 700v100h100" fill="#FFF"/><path d="M300 700h100v100M400 700v100h100" fill="#FFF"/><path d="M400 700h100v100M500 700v100h100" fill="#FFF"/><path d="M500 700h100v100M600 700v100h100" fill="#FFF"/><path d="M600 700h100v100M700 700v100h100" fill="#FFF"/><path d="M700 700h100v100M800 700v100h100" fill="#FFF"/><path d="M800 700h100v100M900 700v100h100" fill="#FFF"/><path d="M900 700h100v100M0 800v100h100" fill="#FFF"/><path d="M0 800h100v100M100 800v100h100" fill="#FFF"/><path d="M100 800h100v100M200 800v100h100" fill="#FFF"/><path d="M200 800h100v100M300 800v100h100" fill="#FFF"/><path d="M300 800h100v100M400 800v100h100" fill="#FFF"/><path d="M400 800h100v100M500 800v100h100" fill="#FFF"/><path d="M500 800h100v100M600 800v100h100" fill="#FFF"/><path d="M600 800h100v100M700 800v100h100" fill="#FFF"/><path d="M700 800h100v100M800 800v100h100" fill="#FFF"/><path d="M800 800h100v100M900 800v100h100" fill="#FFF"/><path d="M900 800h100v100M0 900v100h100" fill="#FFF"/><path d="M0 900h100v100M100 900v100h100" fill="#FFF"/><path d="M100 900h100v100M200 900v100h100" fill="#FFF"/><path d="M200 900h100v100M300 900v100h100" fill="#FFF"/><path d="M300 900h100v100M400 900v100h100" fill="#FFF"/><path d="M400 900h100v100M500 900v100h100" fill="#FFF"/><path d="M500 900h100v100M600 900v100h100" fill="#FFF"/><path d="M600 900h100v100M700 900v100h100" fill="#FFF"/><path d="M700 900h100v100M800 900v100h100" fill="#FFF"/><path d="M800 900h100v100M900 900v100h100" fill="#FFF"/><path d="M900 900h100v100" fill="#FFF"/></svg>