<svg width="2254" height="254" viewBox="0 0 2254 254" xmlns="http://www.w3.org/2000/svg"><title>navigation</title><g stroke="#FFF" stroke-width="1.51" fill="none" fill-rule="evenodd"><path d="M2252 2h-125l125 125V2z" fill="#FAFAFA"/><path d="M2127 2v125h125L2127 2zM2252 127h-125l125 125V127zM2127 2h-125l125 125V2z" fill="#FAFAFA"/><path d="M2002 2v125h125L2002 2zM2002 2h-125l125 125V2z" fill="#FAFAFA"/><path d="M1877 2v125h125L1877 2zM1877 2h-125l125 125V2z" fill="#FAFAFA"/><path d="M1752 2v125h125L1752 2zM1752 2h-125l125 125V2z" fill="#FAFAFA"/><path d="M1627 2v125h125L1627 2zM1627 2h-125l125 125V2z" fill="#FAFAFA"/><path d="M1502 2v125h125L1502 2zM1502 2h-125l125 125V2z" fill="#FAFAFA"/><path d="M1377 2v125h125L1377 2zM1377 2h-125l125 125V2z" fill="#FAFAFA"/><path d="M1252 2v125h125L1252 2zM1252 2h-125l125 125V2z" fill="#FAFAFA"/><path d="M1127 2v125h125L1127 2zM1002 127h125V2l-125 125z" fill="#FAFAFA"/><path d="M1002 2v125L1127 2h-125zM1002 2H877l125 125V2z" fill="#FAFAFA"/><path d="M877 2v125h125L877 2zM877 2H752l125 125V2z" fill="#FAFAFA"/><path d="M752 2v125h125L752 2zM752 2H627l125 125V2z" fill="#FAFAFA"/><path d="M627 2v125h125L627 2zM502 2h125L502 127V2zM627 2v125H502L627 2zM502 2H377l125 125V2z" fill="#FAFAFA"/><path d="M377 2v125h125L377 2zM377 2H252l125 125V2z" fill="#FAFAFA"/><path d="M252 2v125h125L252 2z" fill="#FAFAFA"/><path d="M252 2H127l125 125V2z" fill="#FDFDFD"/><path d="M127 2v125h125L127 2z" fill="#FBFBFB"/><path d="M127 2H2l125 125V2z" fill="#F7F7F7"/><path d="M2 2v125h125L2 2z" fill="#F6F6F6"/></g></svg>