<svg xmlns="http://www.w3.org/2000/svg" width="1920" height="1080"><path d="M2085-148h-125l125 125z" fill="#9b537b" stroke="#9b537b" stroke-width="1.51"/><path d="M1960-148v125h125z" fill="#a35e80" stroke="#a35e80" stroke-width="1.51"/><path d="M2085-23h-125l125 125z" fill="#ac637c" stroke="#ac637c" stroke-width="1.51"/><path d="M1960-23v125h125z" fill="#b16e7e" stroke="#b16e7e" stroke-width="1.51"/><path d="M2085 102h-125l125 125z" fill="#b57780" stroke="#b57780" stroke-width="1.51"/><path d="M1960 102v125h125z" fill="#b48587" stroke="#b48587" stroke-width="1.51"/><path d="M2085 227h-125l125 125z" fill="#b48e8f" stroke="#b48e8f" stroke-width="1.51"/><path d="M1960 227v125h125z" fill="#b29b97" stroke="#b29b97" stroke-width="1.51"/><path d="M2085 352h-125l125 125z" fill="#b1a2a1" stroke="#b1a2a1" stroke-width="1.51"/><path d="M1960 352v125h125z" fill="#afabaa" stroke="#afabaa" stroke-width="1.51"/><path d="M2085 477h-125l125 125z" fill="#afafb5" stroke="#afafb5" stroke-width="1.51"/><path d="M1960 477v125h125z" fill="#acb5b9" stroke="#acb5b9" stroke-width="1.51"/><path d="M2085 602h-125l125 125z" fill="#a8adac" stroke="#a8adac" stroke-width="1.51"/><path d="M1960 602v125h125z" fill="#a3b1a9" stroke="#a3b1a9" stroke-width="1.51"/><path d="M1960 977h125V852z" fill="#6f99ab" stroke="#6f99ab" stroke-width="1.51"/><path d="M1960 852v125l125-125z" fill="#76a2ad" stroke="#76a2ad" stroke-width="1.51"/><path d="M2085 727h-125l125 125z" fill="#94a6a9" stroke="#94a6a9" stroke-width="1.51"/><path d="M1960 727v125h125z" fill="#89a9ad" stroke="#89a9ad" stroke-width="1.51"/><path d="M2085 977h-125l125 125z" fill="#5d90ad" stroke="#5d90ad" stroke-width="1.51"/><path d="M1960 977v125h125z" fill="#528cb2" stroke="#528cb2" stroke-width="1.51"/><path d="M2085 1102h-125l125 125z" fill="#4678b5" stroke="#4678b5" stroke-width="1.51"/><path d="M1960 1102v125h125z" fill="#4975b4" stroke="#4975b4" stroke-width="1.51"/><path d="M1960-148h-125l125 125z" fill="#9a6482" stroke="#9a6482" stroke-width="1.51"/><path d="M1835-148v125h125z" fill="#a46f83" stroke="#a46f83" stroke-width="1.51"/><path d="M1960-23h-125l125 125z" fill="#ab7482" stroke="#ab7482" stroke-width="1.51"/><path d="M1835-23v125h125z" fill="#b27f80" stroke="#b27f80" stroke-width="1.51"/><path d="M1835 977h125V852z" fill="#64a8b1" stroke="#64a8b1" stroke-width="1.51"/><path d="M1835 852v125l125-125z" fill="#71b1b0" stroke="#71b1b0" stroke-width="1.51"/><path d="M1960 352h-125l125 125z" fill="#adb2a7" stroke="#adb2a7" stroke-width="1.51"/><path d="M1835 352v125h125z" fill="#aebbad" stroke="#aebbad" stroke-width="1.51"/><path d="M1960 477h-125l125 125z" fill="#a9bebc" stroke="#a9bebc" stroke-width="1.51"/><path d="M1835 477v125h125z" fill="#a9c5bc" stroke="#a9c5bc" stroke-width="1.51"/><path d="M1835 852h125V727z" fill="#83b2b1" stroke="#83b2b1" stroke-width="1.51"/><path d="M1835 727v125l125-125z" fill="#8fbbae" stroke="#8fbbae" stroke-width="1.51"/><path d="M1960 602h-125l125 125z" fill="#a1bdb3" stroke="#a1bdb3" stroke-width="1.51"/><path d="M1835 602v125h125z" fill="#a0c1ac" stroke="#a0c1ac" stroke-width="1.51"/><path d="M1960 977h-125l125 125z" fill="#4f9eb3" stroke="#4f9eb3" stroke-width="1.51"/><path d="M1835 977v125h125z" fill="#4a9bb6" stroke="#4a9bb6" stroke-width="1.51"/><path d="M1835 1227h125v-125z" fill="#3f7fb8" stroke="#3f7fb8" stroke-width="1.51"/><path d="M1835 1102v125l125-125z" fill="#398bbb" stroke="#398bbb" stroke-width="1.51"/><path d="M1960 102h-125l125 125z" fill="#b38786" stroke="#b38786" stroke-width="1.51"/><path d="M1835 102v125h125z" fill="#b5958a" stroke="#b5958a" stroke-width="1.51"/><path d="M1835 352h125V227z" fill="#b0a59b" stroke="#b0a59b" stroke-width="1.51"/><path d="M1835 227v125l125-125z" fill="#b3a494" stroke="#b3a494" stroke-width="1.51"/><path d="M1835-148h-125l125 125z" fill="#a2757c" stroke="#a2757c" stroke-width="1.51"/><path d="M1710-148v125h125z" fill="#ac807d" stroke="#ac807d" stroke-width="1.51"/><path d="M1835-23h-125l125 125z" fill="#b3857d" stroke="#b3857d" stroke-width="1.51"/><path d="M1710-23v125h125z" fill="#ba8f79" stroke="#ba8f79" stroke-width="1.51"/><path d="M1710 352h125V227z" fill="#b7b595" stroke="#b7b595" stroke-width="1.51"/><path d="M1710 227v125l125-125z" fill="#bbb48d" stroke="#bbb48d" stroke-width="1.51"/><path d="M1835 102h-125l125 125z" fill="#ba9880" stroke="#ba9880" stroke-width="1.51"/><path d="M1710 102v125h125z" fill="#bca583" stroke="#bca583" stroke-width="1.51"/><path d="M1835 352h-125l125 125z" fill="#b4c2a1" stroke="#b4c2a1" stroke-width="1.51"/><path d="M1710 352v125h125z" fill="#b5cba6" stroke="#b5cba6" stroke-width="1.51"/><path d="M1835 477h-125l125 125z" fill="#b1cfb6" stroke="#b1cfb6" stroke-width="1.51"/><path d="M1710 477v125h125z" fill="#b1d5b5" stroke="#b1d5b5" stroke-width="1.51"/><path d="M1835 602h-125l125 125z" fill="#a9cdad" stroke="#a9cdad" stroke-width="1.51"/><path d="M1710 602v125h125z" fill="#a8d1a5" stroke="#a8d1a5" stroke-width="1.51"/><path d="M1835 727h-125l125 125z" fill="#94c5aa" stroke="#94c5aa" stroke-width="1.51"/><path d="M1710 727v125h125z" fill="#8dc8a9" stroke="#8dc8a9" stroke-width="1.51"/><path d="M1835 852h-125l125 125z" fill="#77bbab" stroke="#77bbab" stroke-width="1.51"/><path d="M1710 852v125h125z" fill="#6fbdaa" stroke="#6fbdaa" stroke-width="1.51"/><path d="M1710 1227h125v-125z" fill="#4f8db4" stroke="#4f8db4" stroke-width="1.51"/><path d="M1710 1102v125l125-125z" fill="#4b9ab5" stroke="#4b9ab5" stroke-width="1.51"/><path d="M1835 977h-125l125 125z" fill="#5aadae" stroke="#5aadae" stroke-width="1.51"/><path d="M1710 977v125h125z" fill="#57aab0" stroke="#57aab0" stroke-width="1.51"/><path d="M1710-148h-125l125 125z" fill="#aa8476" stroke="#aa8476" stroke-width="1.51"/><path d="M1585-148v125h125z" fill="#b68c78" stroke="#b68c78" stroke-width="1.51"/><path d="M1710-23h-125l125 125z" fill="#ba9576" stroke="#ba9576" stroke-width="1.51"/><path d="M1585-23v125h125z" fill="#c39c74" stroke="#c39c74" stroke-width="1.51"/><path d="M1710 102h-125l125 125z" fill="#c1a879" stroke="#c1a879" stroke-width="1.51"/><path d="M1585 102v125h125z" fill="#c6b27e" stroke="#c6b27e" stroke-width="1.51"/><path d="M1585 477h125V352z" fill="#bad6a1" stroke="#bad6a1" stroke-width="1.51"/><path d="M1585 352v125l125-125z" fill="#c0d599" stroke="#c0d599" stroke-width="1.51"/><path d="M1710 227h-125l125 125z" fill="#bfbf88" stroke="#bfbf88" stroke-width="1.51"/><path d="M1585 227v125h125z" fill="#c3c88d" stroke="#c3c88d" stroke-width="1.51"/><path d="M1710 477h-125l125 125z" fill="#b8dfaf" stroke="#b8dfaf" stroke-width="1.51"/><path d="M1585 477v125h125z" fill="#bce3b0" stroke="#bce3b0" stroke-width="1.51"/><path d="M1710 602h-125l125 125z" fill="#b0dda5" stroke="#b0dda5" stroke-width="1.51"/><path d="M1585 602v125h125z" fill="#b2dea0" stroke="#b2dea0" stroke-width="1.51"/><path d="M1710 727h-125l125 125z" fill="#9bd5a2" stroke="#9bd5a2" stroke-width="1.51"/><path d="M1585 727v125h125z" fill="#98d4a4" stroke="#98d4a4" stroke-width="1.51"/><path d="M1585 1102h125V977z" fill="#5eb4ab" stroke="#5eb4ab" stroke-width="1.51"/><path d="M1585 977v125l125-125z" fill="#6bbfa8" stroke="#6bbfa8" stroke-width="1.51"/><path d="M1710 852h-125l125 125z" fill="#7fcaa5" stroke="#7fcaa5" stroke-width="1.51"/><path d="M1585 852v125h125z" fill="#7bc9a5" stroke="#7bc9a5" stroke-width="1.51"/><path d="M1710 1102h-125l125 125z" fill="#54a4b1" stroke="#54a4b1" stroke-width="1.51"/><path d="M1585 1102v125h125z" fill="#639eae" stroke="#639eae" stroke-width="1.51"/><path d="M1585-148h-125l125 125z" fill="#b88b76" stroke="#b88b76" stroke-width="1.51"/><path d="M1460-148v125h125z" fill="#c49278" stroke="#c49278" stroke-width="1.51"/><path d="M1585-23h-125l125 125z" fill="#c89b75" stroke="#c89b75" stroke-width="1.51"/><path d="M1460-23v125h125z" fill="#d1a274" stroke="#d1a274" stroke-width="1.51"/><path d="M1585 102h-125l125 125z" fill="#cfaf79" stroke="#cfaf79" stroke-width="1.51"/><path d="M1460 102v125h125z" fill="#d4b87d" stroke="#d4b87d" stroke-width="1.51"/><path d="M1585 227h-125l125 125z" fill="#cec687" stroke="#cec687" stroke-width="1.51"/><path d="M1460 227v125h125z" fill="#d1ce8c" stroke="#d1ce8c" stroke-width="1.51"/><path d="M1585 352h-125l125 125z" fill="#cad999" stroke="#cad999" stroke-width="1.51"/><path d="M1460 352v125h125z" fill="#cfdfa0" stroke="#cfdfa0" stroke-width="1.51"/><path d="M1585 477h-125l125 125z" fill="#c8e6af" stroke="#c8e6af" stroke-width="1.51"/><path d="M1460 477v125h125z" fill="#cceaaf" stroke="#cceaaf" stroke-width="1.51"/><path d="M1585 602h-125l125 125z" fill="#c0e4a5" stroke="#c0e4a5" stroke-width="1.51"/><path d="M1460 602v125h125z" fill="#c1e59f" stroke="#c1e59f" stroke-width="1.51"/><path d="M1585 727h-125l125 125z" fill="#acdca2" stroke="#acdca2" stroke-width="1.51"/><path d="M1460 727v125h125z" fill="#a8dba3" stroke="#a8dba3" stroke-width="1.51"/><path d="M1585 852h-125l125 125z" fill="#91d2a5" stroke="#91d2a5" stroke-width="1.51"/><path d="M1460 852v125h125z" fill="#8dd0a5" stroke="#8dd0a5" stroke-width="1.51"/><path d="M1585 977h-125l125 125z" fill="#78c4a8" stroke="#78c4a8" stroke-width="1.51"/><path d="M1460 977v125h125z" fill="#7abdab" stroke="#7abdab" stroke-width="1.51"/><path d="M1585 1102h-125l125 125z" fill="#6babb2" stroke="#6babb2" stroke-width="1.51"/><path d="M1460 1102v125h125z" fill="#77a5ae" stroke="#77a5ae" stroke-width="1.51"/><path d="M1460-148h-125l125 125z" fill="#c59175" stroke="#c59175" stroke-width="1.51"/><path d="M1335-148v125h125z" fill="#d19876" stroke="#d19876" stroke-width="1.51"/><path d="M1460-23h-125l125 125z" fill="#d5a174" stroke="#d5a174" stroke-width="1.51"/><path d="M1335-23v125h125z" fill="#dea872" stroke="#dea872" stroke-width="1.51"/><path d="M1460 102h-125l125 125z" fill="#ddb577" stroke="#ddb577" stroke-width="1.51"/><path d="M1335 102v125h125z" fill="#e1bf7b" stroke="#e1bf7b" stroke-width="1.51"/><path d="M1460 227h-125l125 125z" fill="#dccd86" stroke="#dccd86" stroke-width="1.51"/><path d="M1335 227v125h125z" fill="#dfd58b" stroke="#dfd58b" stroke-width="1.51"/><path d="M1460 352h-125l125 125z" fill="#d9e098" stroke="#d9e098" stroke-width="1.51"/><path d="M1335 352v125h125z" fill="#dee69e" stroke="#dee69e" stroke-width="1.51"/><path d="M1460 477h-125l125 125z" fill="#d8edad" stroke="#d8edad" stroke-width="1.51"/><path d="M1335 477v125h125z" fill="#dbf1ad" stroke="#dbf1ad" stroke-width="1.51"/><path d="M1460 602h-125l125 125z" fill="#cfeca4" stroke="#cfeca4" stroke-width="1.51"/><path d="M1335 602v125h125z" fill="#d1ec9d" stroke="#d1ec9d" stroke-width="1.51"/><path d="M1335 977h125V852z" fill="#99d5a4" stroke="#99d5a4" stroke-width="1.51"/><path d="M1335 852v125l125-125z" fill="#a7dba3" stroke="#a7dba3" stroke-width="1.51"/><path d="M1460 727h-125l125 125z" fill="#bce4a1" stroke="#bce4a1" stroke-width="1.51"/><path d="M1335 727v125h125z" fill="#b9e2a2" stroke="#b9e2a2" stroke-width="1.51"/><path d="M1460 977h-125l125 125z" fill="#8bcba7" stroke="#8bcba7" stroke-width="1.51"/><path d="M1335 977v125h125z" fill="#8dc4aa" stroke="#8dc4aa" stroke-width="1.51"/><path d="M1460 1102h-125l125 125z" fill="#7eb2b1" stroke="#7eb2b1" stroke-width="1.51"/><path d="M1335 1102v125h125z" fill="#89abad" stroke="#89abad" stroke-width="1.51"/><path d="M1335-148h-125l125 125z" fill="#d29672" stroke="#d29672" stroke-width="1.51"/><path d="M1210-148v125h125z" fill="#de9e74" stroke="#de9e74" stroke-width="1.51"/><path d="M1335-23h-125l125 125z" fill="#e2a771" stroke="#e2a771" stroke-width="1.51"/><path d="M1210-23v125h125z" fill="#ebae6f" stroke="#ebae6f" stroke-width="1.51"/><path d="M1335 102h-125l125 125z" fill="#eaba74" stroke="#eaba74" stroke-width="1.51"/><path d="M1210 102v125h125z" fill="#efc578" stroke="#efc578" stroke-width="1.51"/><path d="M1210 1102h125V977z" fill="#98c8a8" stroke="#98c8a8" stroke-width="1.51"/><path d="M1210 977v125l125-125z" fill="#a2d3a3" stroke="#a2d3a3" stroke-width="1.51"/><path d="M1335 477h-125l125 125z" fill="#e7f3aa" stroke="#e7f3aa" stroke-width="1.51"/><path d="M1210 477v125h125z" fill="#ebf7aa" stroke="#ebf7aa" stroke-width="1.51"/><path d="M1335 602h-125l125 125z" fill="#dff2a0" stroke="#dff2a0" stroke-width="1.51"/><path d="M1210 602v125h125z" fill="#e0f39a" stroke="#e0f39a" stroke-width="1.51"/><path d="M1210 977h125V852z" fill="#aadba1" stroke="#aadba1" stroke-width="1.51"/><path d="M1210 852v125l125-125z" fill="#b8e1a0" stroke="#b8e1a0" stroke-width="1.51"/><path d="M1335 727h-125l125 125z" fill="#cce99e" stroke="#cce99e" stroke-width="1.51"/><path d="M1210 727v125h125z" fill="#c8e99f" stroke="#c8e99f" stroke-width="1.51"/><path d="M1335 1102h-125l125 125z" fill="#91b7af" stroke="#91b7af" stroke-width="1.51"/><path d="M1210 1102v125h125z" fill="#9ab1ab" stroke="#9ab1ab" stroke-width="1.51"/><path d="M1335 227h-125l125 125z" fill="#ead283" stroke="#ead283" stroke-width="1.51"/><path d="M1210 227v125h125z" fill="#eedb87" stroke="#eedb87" stroke-width="1.51"/><path d="M1210 477h125V352z" fill="#e8ea9c" stroke="#e8ea9c" stroke-width="1.51"/><path d="M1210 352v125l125-125z" fill="#ece993" stroke="#ece993" stroke-width="1.51"/><path d="M1210-148h-125l125 125z" fill="#de9a73" stroke="#de9a73" stroke-width="1.51"/><path d="M1085-148v125h125z" fill="#e8a178" stroke="#e8a178" stroke-width="1.51"/><path d="M1210-23h-125l125 125z" fill="#eeab71" stroke="#eeab71" stroke-width="1.51"/><path d="M1085-23v125h125z" fill="#f5b173" stroke="#f5b173" stroke-width="1.51"/><path d="M1210 102h-125l125 125z" fill="#f6bf74" stroke="#f6bf74" stroke-width="1.51"/><path d="M1085 102v125h125z" fill="#f9c87c" stroke="#f9c87c" stroke-width="1.51"/><path d="M1210 227h-125l125 125z" fill="#f6d783" stroke="#f6d783" stroke-width="1.51"/><path d="M1085 227v125h125z" fill="#f8df8c" stroke="#f8df8c" stroke-width="1.51"/><path d="M1210 352h-125l125 125z" fill="#f4ec94" stroke="#f4ec94" stroke-width="1.51"/><path d="M1085 352v125h125z" fill="#f7f19f" stroke="#f7f19f" stroke-width="1.51"/><path d="M1210 477h-125l125 125z" fill="#f4f9ab" stroke="#f4f9ab" stroke-width="1.51"/><path d="M1085 477v125h125z" fill="#f5fbaf" stroke="#f5fbaf" stroke-width="1.51"/><path d="M1210 602h-125l125 125z" fill="#ecf7a1" stroke="#ecf7a1" stroke-width="1.51"/><path d="M1085 602v125h125z" fill="#ebf79f" stroke="#ebf79f" stroke-width="1.51"/><path d="M1210 727h-125l125 125z" fill="#d9ef9e" stroke="#d9ef9e" stroke-width="1.51"/><path d="M1085 727v125h125z" fill="#d3eda3" stroke="#d3eda3" stroke-width="1.51"/><path d="M1210 852h-125l125 125z" fill="#c0e4a1" stroke="#c0e4a1" stroke-width="1.51"/><path d="M1085 852v125h125z" fill="#bae2a5" stroke="#bae2a5" stroke-width="1.51"/><path d="M1210 977h-125l125 125z" fill="#abd6a5" stroke="#abd6a5" stroke-width="1.51"/><path d="M1085 977v125h125z" fill="#a9ceac" stroke="#a9ceac" stroke-width="1.51"/><path d="M1210 1102h-125l125 125z" fill="#9fbcaf" stroke="#9fbcaf" stroke-width="1.51"/><path d="M1085 1102v125h125z" fill="#a5b5af" stroke="#a5b5af" stroke-width="1.51"/><path d="M1085-148H960l125 125z" fill="#e49d7c" stroke="#e49d7c" stroke-width="1.51"/><path d="M960-148v125h125z" fill="#eea381" stroke="#eea381" stroke-width="1.51"/><path d="M1085-23H960l125 125z" fill="#f4ae7b" stroke="#f4ae7b" stroke-width="1.51"/><path d="M960-23v125h125z" fill="#fbb37d" stroke="#fbb37d" stroke-width="1.51"/><path d="M1085 102H960l125 125z" fill="#fcc27e" stroke="#fcc27e" stroke-width="1.51"/><path d="M960 102v125h125z" fill="#ffcb86" stroke="#ffcb86" stroke-width="1.51"/><path d="M1085 227H960l125 125z" fill="#fcda8d" stroke="#fcda8d" stroke-width="1.51"/><path d="M960 227v125h125z" fill="#fee196" stroke="#fee196" stroke-width="1.51"/><path d="M1085 602H960l125 125z" fill="#f2faab" stroke="#f2faab" stroke-width="1.51"/><path d="M960 602v125h125z" fill="#f1f9a9" stroke="#f1f9a9" stroke-width="1.51"/><path d="M1085 727H960l125 125z" fill="#dff2a8" stroke="#dff2a8" stroke-width="1.51"/><path d="M960 727v125h125z" fill="#d9f0ad" stroke="#d9f0ad" stroke-width="1.51"/><path d="M960 1102h125V977z" fill="#acd0b2" stroke="#acd0b2" stroke-width="1.51"/><path d="M960 977v125l125-125z" fill="#b3dab1" stroke="#b3dab1" stroke-width="1.51"/><path d="M1085 852H960l125 125z" fill="#c6e8ab" stroke="#c6e8ab" stroke-width="1.51"/><path d="M960 852v125h125z" fill="#c0e5af" stroke="#c0e5af" stroke-width="1.51"/><path d="M1085 1102H960l125 125z" fill="#a5bfb9" stroke="#a5bfb9" stroke-width="1.51"/><path d="M960 1102v125h125z" fill="#aab7b9" stroke="#aab7b9" stroke-width="1.51"/><path d="M1085 352H960l125 125z" fill="#fbef9e" stroke="#fbef9e" stroke-width="1.51"/><path d="M960 352v125h125z" fill="#fdf3a9" stroke="#fdf3a9" stroke-width="1.51"/><path d="M960 602h125V477z" fill="#f9fdb6" stroke="#f9fdb6" stroke-width="1.51"/><path d="M960 477v125l125-125z" fill="#fdfcb8" stroke="#fdfcb8" stroke-width="1.51"/><path d="M835 1227h125v-125z" fill="#adb6b8" stroke="#adb6b8" stroke-width="1.51"/><path d="M835 1102v125l125-125z" fill="#aabbb7" stroke="#aabbb7" stroke-width="1.51"/><path d="M835 1102h125V977z" fill="#b1cfb4" stroke="#b1cfb4" stroke-width="1.51"/><path d="M835 977v125l125-125z" fill="#b6d5ac" stroke="#b6d5ac" stroke-width="1.51"/><path d="M835 977h125V852z" fill="#c3e3ae" stroke="#c3e3ae" stroke-width="1.51"/><path d="M835 852v125l125-125z" fill="#cce4a9" stroke="#cce4a9" stroke-width="1.51"/><path d="M835 852h125V727z" fill="#dbeeac" stroke="#dbeeac" stroke-width="1.51"/><path d="M835 727v125l125-125z" fill="#e4eea6" stroke="#e4eea6" stroke-width="1.51"/><path d="M835 727h125V602z" fill="#f3f8a8" stroke="#f3f8a8" stroke-width="1.51"/><path d="M835 602v125l125-125z" fill="#f7f6a9" stroke="#f7f6a9" stroke-width="1.51"/><path d="M835 602h125V477z" fill="#fefcb8" stroke="#fefcb8" stroke-width="1.51"/><path d="M835 477v125l125-125z" fill="#fff7b2" stroke="#fff7b2" stroke-width="1.51"/><path d="M835 477h125V352z" fill="#fff1a8" stroke="#fff1a8" stroke-width="1.51"/><path d="M835 352v125l125-125z" fill="#ffea9c" stroke="#ffea9c" stroke-width="1.51"/><path d="M835 352h125V227z" fill="#ffe095" stroke="#ffe095" stroke-width="1.51"/><path d="M835 227v125l125-125z" fill="#ffd68b" stroke="#ffd68b" stroke-width="1.51"/><path d="M835 227h125V102z" fill="#ffc985" stroke="#ffc985" stroke-width="1.51"/><path d="M835 102v125l125-125z" fill="#ffbd7c" stroke="#ffbd7c" stroke-width="1.51"/><path d="M835 102h125V-23z" fill="#fdb27c" stroke="#fdb27c" stroke-width="1.51"/><path d="M835-23v125L960-23z" fill="#f8a979" stroke="#f8a979" stroke-width="1.51"/><path d="M835-23h125v-125z" fill="#efa180" stroke="#efa180" stroke-width="1.51"/><path d="M835-148v125l125-125z" fill="#e7987a" stroke="#e7987a" stroke-width="1.51"/><path d="M835 852H710l125 125z" fill="#cdde9f" stroke="#cdde9f" stroke-width="1.51"/><path d="M710 852v125h125z" fill="#c5d89b" stroke="#c5d89b" stroke-width="1.51"/><path d="M835-148H710L835-23z" fill="#e69371" stroke="#e69371" stroke-width="1.51"/><path d="M710-148v125h125z" fill="#ed966f" stroke="#ed966f" stroke-width="1.51"/><path d="M835-23H710l125 125z" fill="#f6a470" stroke="#f6a470" stroke-width="1.51"/><path d="M710-23v125h125z" fill="#faa76a" stroke="#faa76a" stroke-width="1.51"/><path d="M835 102H710l125 125z" fill="#ffb873" stroke="#ffb873" stroke-width="1.51"/><path d="M710 102v125h125z" fill="#febe73" stroke="#febe73" stroke-width="1.51"/><path d="M835 227H710l125 125z" fill="#ffd181" stroke="#ffd181" stroke-width="1.51"/><path d="M710 227v125h125z" fill="#fed582" stroke="#fed582" stroke-width="1.51"/><path d="M835 352H710l125 125z" fill="#ffe593" stroke="#ffe593" stroke-width="1.51"/><path d="M710 352v125h125z" fill="#ffe696" stroke="#ffe696" stroke-width="1.51"/><path d="M835 477H710l125 125z" fill="#fff2a9" stroke="#fff2a9" stroke-width="1.51"/><path d="M710 477v125h125z" fill="#fdf1a5" stroke="#fdf1a5" stroke-width="1.51"/><path d="M710 852h125V727z" fill="#dce69e" stroke="#dce69e" stroke-width="1.51"/><path d="M710 727v125l125-125z" fill="#e4e698" stroke="#e4e698" stroke-width="1.51"/><path d="M835 602H710l125 125z" fill="#f7f19f" stroke="#f7f19f" stroke-width="1.51"/><path d="M710 602v125h125z" fill="#f3ed95" stroke="#f3ed95" stroke-width="1.51"/><path d="M835 977H710l125 125z" fill="#b8d0a3" stroke="#b8d0a3" stroke-width="1.51"/><path d="M710 977v125h125z" fill="#b4c5a3" stroke="#b4c5a3" stroke-width="1.51"/><path d="M835 1102H710l125 125z" fill="#acb6ae" stroke="#acb6ae" stroke-width="1.51"/><path d="M710 1102v125h125z" fill="#afaba6" stroke="#afaba6" stroke-width="1.51"/><path d="M710-148H585L710-23z" fill="#e48866" stroke="#e48866" stroke-width="1.51"/><path d="M585-148v125h125z" fill="#eb8a64" stroke="#eb8a64" stroke-width="1.51"/><path d="M710-23H585l125 125z" fill="#f49964" stroke="#f49964" stroke-width="1.51"/><path d="M585-23v125h125z" fill="#f89a5f" stroke="#f89a5f" stroke-width="1.51"/><path d="M585 977h125V852z" fill="#c6d194" stroke="#c6d194" stroke-width="1.51"/><path d="M585 852v125l125-125z" fill="#ced08f" stroke="#ced08f" stroke-width="1.51"/><path d="M710 352H585l125 125z" fill="#fedb86" stroke="#fedb86" stroke-width="1.51"/><path d="M585 352v125h125z" fill="#ffda8a" stroke="#ffda8a" stroke-width="1.51"/><path d="M710 477H585l125 125z" fill="#ffe89c" stroke="#ffe89c" stroke-width="1.51"/><path d="M585 477v125h125z" fill="#fee59a" stroke="#fee59a" stroke-width="1.51"/><path d="M585 852h125V727z" fill="#dddc92" stroke="#dddc92" stroke-width="1.51"/><path d="M585 727v125l125-125z" fill="#e5da8c" stroke="#e5da8c" stroke-width="1.51"/><path d="M710 602H585l125 125z" fill="#f7e792" stroke="#f7e792" stroke-width="1.51"/><path d="M585 602v125h125z" fill="#f4e189" stroke="#f4e189" stroke-width="1.51"/><path d="M710 977H585l125 125z" fill="#bac797" stroke="#bac797" stroke-width="1.51"/><path d="M585 977v125h125z" fill="#b6b997" stroke="#b6b997" stroke-width="1.51"/><path d="M585 1227h125v-125z" fill="#b0a49e" stroke="#b0a49e" stroke-width="1.51"/><path d="M585 1102v125l125-125z" fill="#afa89e" stroke="#afa89e" stroke-width="1.51"/><path d="M710 102H585l125 125z" fill="#fdae66" stroke="#fdae66" stroke-width="1.51"/><path d="M585 102v125h125z" fill="#fdb268" stroke="#fdb268" stroke-width="1.51"/><path d="M585 352h125V227z" fill="#fece7a" stroke="#fece7a" stroke-width="1.51"/><path d="M585 227v125l125-125z" fill="#fec271" stroke="#fec271" stroke-width="1.51"/><path d="M585-148H460L585-23z" fill="#e37a5b" stroke="#e37a5b" stroke-width="1.51"/><path d="M460-148v125h125z" fill="#e97c5a" stroke="#e97c5a" stroke-width="1.51"/><path d="M585-23H460l125 125z" fill="#f38b5a" stroke="#f38b5a" stroke-width="1.51"/><path d="M460-23v125h125z" fill="#f78d55" stroke="#f78d55" stroke-width="1.51"/><path d="M585 102H460l125 125z" fill="#fca05c" stroke="#fca05c" stroke-width="1.51"/><path d="M460 102v125h125z" fill="#fca55d" stroke="#fca55d" stroke-width="1.51"/><path d="M585 227H460l125 125z" fill="#feb96a" stroke="#feb96a" stroke-width="1.51"/><path d="M460 227v125h125z" fill="#febc6c" stroke="#febc6c" stroke-width="1.51"/><path d="M585 352H460l125 125z" fill="#ffce7b" stroke="#ffce7b" stroke-width="1.51"/><path d="M460 352v125h125z" fill="#ffce7f" stroke="#ffce7f" stroke-width="1.51"/><path d="M585 477H460l125 125z" fill="#ffda91" stroke="#ffda91" stroke-width="1.51"/><path d="M460 477v125h125z" fill="#ffd88e" stroke="#ffd88e" stroke-width="1.51"/><path d="M585 602H460l125 125z" fill="#f8d987" stroke="#f8d987" stroke-width="1.51"/><path d="M460 602v125h125z" fill="#f5d47e" stroke="#f5d47e" stroke-width="1.51"/><path d="M585 727H460l125 125z" fill="#e6d285" stroke="#e6d285" stroke-width="1.51"/><path d="M460 727v125h125z" fill="#dfcb83" stroke="#dfcb83" stroke-width="1.51"/><path d="M585 852H460l125 125z" fill="#d0c888" stroke="#d0c888" stroke-width="1.51"/><path d="M460 852v125h125z" fill="#c9c185" stroke="#c9c185" stroke-width="1.51"/><path d="M460 1227h125v-125z" fill="#b39793" stroke="#b39793" stroke-width="1.51"/><path d="M460 1102v125l125-125z" fill="#b19c93" stroke="#b19c93" stroke-width="1.51"/><path d="M585 977H460l125 125z" fill="#bcba8c" stroke="#bcba8c" stroke-width="1.51"/><path d="M460 977v125h125z" fill="#b9ad8c" stroke="#b9ad8c" stroke-width="1.51"/><path d="M460-148H335L460-23z" fill="#e06a52" stroke="#e06a52" stroke-width="1.51"/><path d="M335-148v125h125z" fill="#e76a52" stroke="#e76a52" stroke-width="1.51"/><path d="M460-23H335l125 125z" fill="#f17c51" stroke="#f17c51" stroke-width="1.51"/><path d="M335-23v125h125z" fill="#f47b4c" stroke="#f47b4c" stroke-width="1.51"/><path d="M460 102H335l125 125z" fill="#fa9152" stroke="#fa9152" stroke-width="1.51"/><path d="M335 102v125h125z" fill="#fb9454" stroke="#fb9454" stroke-width="1.51"/><path d="M460 477H335l125 125z" fill="#ffcc87" stroke="#ffcc87" stroke-width="1.51"/><path d="M335 477v125h125z" fill="#ffc885" stroke="#ffc885" stroke-width="1.51"/><path d="M460 602H335l125 125z" fill="#f8cb7d" stroke="#f8cb7d" stroke-width="1.51"/><path d="M335 602v125h125z" fill="#f5c475" stroke="#f5c475" stroke-width="1.51"/><path d="M335 977h125V852z" fill="#cab77f" stroke="#cab77f" stroke-width="1.51"/><path d="M335 852v125l125-125z" fill="#d2b57b" stroke="#d2b57b" stroke-width="1.51"/><path d="M460 727H335l125 125z" fill="#e7c47b" stroke="#e7c47b" stroke-width="1.51"/><path d="M335 727v125h125z" fill="#e0bc7a" stroke="#e0bc7a" stroke-width="1.51"/><path d="M335 1227h125v-125z" fill="#b4898a" stroke="#b4898a" stroke-width="1.51"/><path d="M335 1102v125l125-125z" fill="#b28d8a" stroke="#b28d8a" stroke-width="1.51"/><path d="M460 977H335l125 125z" fill="#beac82" stroke="#beac82" stroke-width="1.51"/><path d="M335 977v125h125z" fill="#ba9e83" stroke="#ba9e83" stroke-width="1.51"/><path d="M460 227H335l125 125z" fill="#fdab60" stroke="#fdab60" stroke-width="1.51"/><path d="M335 227v125h125z" fill="#fdac63" stroke="#fdac63" stroke-width="1.51"/><path d="M335 477h125V352z" fill="#ffc379" stroke="#ffc379" stroke-width="1.51"/><path d="M335 352v125l125-125z" fill="#feba6f" stroke="#feba6f" stroke-width="1.51"/><path d="M335-148H210L335-23z" fill="#dd574b" stroke="#dd574b" stroke-width="1.51"/><path d="M210-148v125h125z" fill="#e4574a" stroke="#e4574a" stroke-width="1.51"/><path d="M335-23H210l125 125z" fill="#ee6949" stroke="#ee6949" stroke-width="1.51"/><path d="M210-23v125h125z" fill="#f16945" stroke="#f16945" stroke-width="1.51"/><path d="M335 102H210l125 125z" fill="#f7804b" stroke="#f7804b" stroke-width="1.51"/><path d="M210 102v125h125z" fill="#f8834d" stroke="#f8834d" stroke-width="1.51"/><path d="M335 227H210l125 125z" fill="#fb9a59" stroke="#fb9a59" stroke-width="1.51"/><path d="M210 227v125h125z" fill="#fb9c5b" stroke="#fb9c5b" stroke-width="1.51"/><path d="M335 352H210l125 125z" fill="#fdaf6a" stroke="#fdaf6a" stroke-width="1.51"/><path d="M210 352v125h125z" fill="#feae6e" stroke="#feae6e" stroke-width="1.51"/><path d="M335 477H210l125 125z" fill="#ffbc7f" stroke="#ffbc7f" stroke-width="1.51"/><path d="M210 477v125h125z" fill="#ffb87d" stroke="#ffb87d" stroke-width="1.51"/><path d="M335 602H210l125 125z" fill="#f8bb75" stroke="#f8bb75" stroke-width="1.51"/><path d="M210 602v125h125z" fill="#f4b56d" stroke="#f4b56d" stroke-width="1.51"/><path d="M335 727H210l125 125z" fill="#e7b473" stroke="#e7b473" stroke-width="1.51"/><path d="M210 727v125h125z" fill="#e0ac72" stroke="#e0ac72" stroke-width="1.51"/><path d="M335 852H210l125 125z" fill="#d1ab76" stroke="#d1ab76" stroke-width="1.51"/><path d="M210 852v125h125z" fill="#caa274" stroke="#caa274" stroke-width="1.51"/><path d="M335 977H210l125 125z" fill="#bf9d7a" stroke="#bf9d7a" stroke-width="1.51"/><path d="M210 977v125h125z" fill="#ba8f7b" stroke="#ba8f7b" stroke-width="1.51"/><path d="M335 1102H210l125 125z" fill="#b28384" stroke="#b28384" stroke-width="1.51"/><path d="M210 1102v125h125z" fill="#b3757e" stroke="#b3757e" stroke-width="1.51"/><path d="M210-148H85L210-23z" fill="#d7484a" stroke="#d7484a" stroke-width="1.51"/><path d="M85-148v125h125z" fill="#dc4a4d" stroke="#dc4a4d" stroke-width="1.51"/><path d="M210-23H85l125 125z" fill="#e85b49" stroke="#e85b49" stroke-width="1.51"/><path d="M85-23v125h125z" fill="#e95d48" stroke="#e95d48" stroke-width="1.51"/><path d="M210 102H85l125 125z" fill="#f1724b" stroke="#f1724b" stroke-width="1.51"/><path d="M85 102v125h125z" fill="#f07850" stroke="#f07850" stroke-width="1.51"/><path d="M85 1102h125V977z" fill="#b6887c" stroke="#b6887c" stroke-width="1.51"/><path d="M85 977v125l125-125z" fill="#b78e79" stroke="#b78e79" stroke-width="1.51"/><path d="M210 477H85l125 125z" fill="#fbaf7e" stroke="#fbaf7e" stroke-width="1.51"/><path d="M85 477v125h125z" fill="#f7ae80" stroke="#f7ae80" stroke-width="1.51"/><path d="M210 602H85l125 125z" fill="#f3af74" stroke="#f3af74" stroke-width="1.51"/><path d="M85 602v125h125z" fill="#ecaa70" stroke="#ecaa70" stroke-width="1.51"/><path d="M85 977h125V852z" fill="#c69c75" stroke="#c69c75" stroke-width="1.51"/><path d="M85 852v125l125-125z" fill="#ca9b75" stroke="#ca9b75" stroke-width="1.51"/><path d="M210 727H85l125 125z" fill="#e2a872" stroke="#e2a872" stroke-width="1.51"/><path d="M85 727v125h125z" fill="#d8a274" stroke="#d8a274" stroke-width="1.51"/><path d="M210 1102H85l125 125z" fill="#ad7782" stroke="#ad7782" stroke-width="1.51"/><path d="M85 1102v125h125z" fill="#ab6a80" stroke="#ab6a80" stroke-width="1.51"/><path d="M210 227H85l125 125z" fill="#f58d58" stroke="#f58d58" stroke-width="1.51"/><path d="M85 227v125h125z" fill="#f3915e" stroke="#f3915e" stroke-width="1.51"/><path d="M85 477h125V352z" fill="#f9a670" stroke="#f9a670" stroke-width="1.51"/><path d="M85 352v125l125-125z" fill="#f59f6a" stroke="#f59f6a" stroke-width="1.51"/><path d="M85-148H-40L85-23z" fill="#ce3a4d" stroke="#ce3a4d" stroke-width="1.51"/><path d="M-40-148v125H85z" fill="#d33d4f" stroke="#d33d4f" stroke-width="1.51"/><path d="M85-23H-40L85 102z" fill="#df4f4c" stroke="#df4f4c" stroke-width="1.51"/><path d="M-40-23v125H85z" fill="#e1514b" stroke="#e1514b" stroke-width="1.51"/><path d="M85 102H-40L85 227z" fill="#e9674e" stroke="#e9674e" stroke-width="1.51"/><path d="M-40 102v125H85z" fill="#e86d53" stroke="#e86d53" stroke-width="1.51"/><path d="M85 227H-40L85 352z" fill="#ed825c" stroke="#ed825c" stroke-width="1.51"/><path d="M-40 227v125H85z" fill="#eb8661" stroke="#eb8661" stroke-width="1.51"/><path d="M85 352H-40L85 477z" fill="#ef986c" stroke="#ef986c" stroke-width="1.51"/><path d="M-40 352v125H85z" fill="#ee9874" stroke="#ee9874" stroke-width="1.51"/><path d="M85 477H-40L85 602z" fill="#f2a581" stroke="#f2a581" stroke-width="1.51"/><path d="M-40 477v125H85z" fill="#eea382" stroke="#eea382" stroke-width="1.51"/><path d="M85 602H-40L85 727z" fill="#eba477" stroke="#eba477" stroke-width="1.51"/><path d="M-40 602v125H85z" fill="#e4a073" stroke="#e4a073" stroke-width="1.51"/><path d="M85 727H-40L85 852z" fill="#da9d75" stroke="#da9d75" stroke-width="1.51"/><path d="M-40 727v125H85z" fill="#d09877" stroke="#d09877" stroke-width="1.51"/><path d="M85 852H-40L85 977z" fill="#c59477" stroke="#c59477" stroke-width="1.51"/><path d="M-40 852v125H85z" fill="#bb8e78" stroke="#bb8e78" stroke-width="1.51"/><path d="M85 977H-40l125 125z" fill="#b2877a" stroke="#b2877a" stroke-width="1.51"/><path d="M-40 977v125H85z" fill="#aa7b7e" stroke="#aa7b7e" stroke-width="1.51"/><path d="M85 1102H-40l125 125z" fill="#a56d84" stroke="#a56d84" stroke-width="1.51"/><path d="M-40 1102v125H85z" fill="#a26081" stroke="#a26081" stroke-width="1.51"/><path d="M-40-148h-125L-40-23z" fill="#c22e4b" stroke="#c22e4b" stroke-width="1.51"/><path d="M-165-148v125h125z" fill="#c4304c" stroke="#c4304c" stroke-width="1.51"/><path d="M-40-23h-125l125 125z" fill="#d2434a" stroke="#d2434a" stroke-width="1.51"/><path d="M-165-23v125h125z" fill="#d24648" stroke="#d24648" stroke-width="1.51"/><path d="M-40 102h-125l125 125z" fill="#dc5c4c" stroke="#dc5c4c" stroke-width="1.51"/><path d="M-165 102v125h125z" fill="#d96250" stroke="#d96250" stroke-width="1.51"/><path d="M-40 227h-125l125 125z" fill="#e1785a" stroke="#e1785a" stroke-width="1.51"/><path d="M-165 227v125h125z" fill="#dc7b5e" stroke="#dc7b5e" stroke-width="1.51"/><path d="M-40 602h-125l125 125z" fill="#de9a75" stroke="#de9a75" stroke-width="1.51"/><path d="M-165 602v125h125z" fill="#d6956f" stroke="#d6956f" stroke-width="1.51"/><path d="M-40 727h-125l125 125z" fill="#cd9373" stroke="#cd9373" stroke-width="1.51"/><path d="M-165 727v125h125z" fill="#c18d73" stroke="#c18d73" stroke-width="1.51"/><path d="M-165 1102h125V977z" fill="#a1747b" stroke="#a1747b" stroke-width="1.51"/><path d="M-165 977v125l125-125z" fill="#a07a77" stroke="#a07a77" stroke-width="1.51"/><path d="M-40 852h-125l125 125z" fill="#b88a75" stroke="#b88a75" stroke-width="1.51"/><path d="M-165 852v125h125z" fill="#ac8374" stroke="#ac8374" stroke-width="1.51"/><path d="M-40 1102h-125l125 125z" fill="#986381" stroke="#986381" stroke-width="1.51"/><path d="M-165 1102v125h125z" fill="#94567d" stroke="#94567d" stroke-width="1.51"/><path d="M-40 352h-125l125 125z" fill="#e38d6a" stroke="#e38d6a" stroke-width="1.51"/><path d="M-165 352v125h125z" fill="#df8d70" stroke="#df8d70" stroke-width="1.51"/><path d="M-165 602h125V477z" fill="#e59c7f" stroke="#e59c7f" stroke-width="1.51"/><path d="M-165 477v125l125-125z" fill="#e1967d" stroke="#e1967d" stroke-width="1.51"/></svg>